<svg height="50" viewBox="0 0 50 50" width="50" xmlns="http://www.w3.org/2000/svg"><g fill="#214b81" fill-rule="evenodd"><path d="m17.9661972 1.99600939h13.9737089v-1.99600939h-13.9737089z"/><path d="m32 4h4v-2h-4z"/><path d="m36 6h4v-2h-4z"/><path d="m40 8h2v-2h-2z"/><path d="m42 8-.0002381 2.0037629-.0002323 1.9962371h-1.9995296-2.0002352v-2.00023518h-3.9997648v-1.99976482h-4.0002352v1.99976482h-1.9997648v4.00023518h4v-2h2 1.9997648v2h-1.9997648v2h-2-2.0002352-1.9997648v2.0002352 1.9997648 2h1.9997648v-2h2.0002352v2h2v-2h6v2h-4.0002352v4h2v1.9997648h3.9997648v-1.9997648h-1.9995296v-2h1.9995296v2h4.0002352v1.9997648 4 4.0002352h2v-4.0002352h2l.0002352-13.9809501h-2.0002352v-4.0190499h-2l.0002352-3.9960019-2.0002352-.00399808v-1.99976482z"/><path d="m44 40h2v-4h-2z"/><path d="m42 42h2v-2h-2z"/><path d="m40 44h2v-2h-2z"/><path d="m36 46h4v-2h-4z"/><path d="m32 48h4v-2h-4z"/><path d="m32 46h2v-2h-2z"/><path d="m22 30h2v-2h-2z"/><path d="m18 50h14v-2h-14z"/><path d="m14 48h4v-2h-4z"/><path d="m10 46h4v-2h-4z"/><path d="m13.9738732 1.99605634h-.0004694v1.99624413h-3.99201882-.00023475v1.99624413h-1.99600938-.00023475v1.99624413h-1.99600939-.00023474v1.99624413h-1.99600939-.00023474v1.99624414.0002347 1.9960094h-1.99624413v1.9962442 1.9960093h-1.99624413v.0004695 5.9884977 7.9849765h1.99624413v-5.9887324h1.99624413v-1.9962441-1.9962441h1.99624413 1.99624413v-3.9922536h1.99624413v-1.9962441h-1.99624413v-.0002347-1.9960094h-1.99624413v-.0002348h.00023474v-1.9960094h1.99577465v-.0002347h.00023474v-1.99624414h.00023475v-1.99624413h1.99577464v1.99624413h1.99624411v1.99647884 1.9962442h1.9960094v-1.9962442h1.9964789v-1.99647884-1.99624413h1.9962441v-1.99624413h1.9962442v-1.99624413h-1.9962442.0002348v-1.99624413z"/><path d="m11.9999608 42v-2-2h2.0000392v-2h-2.0000392-2.0000392v-2h-2.00003919v-2h-2.0000392-1.99956882-2.00027439v4h2.0000392v4h2.0000392v2h2.00003919v2h1.99980401.0004704v-2z"/><path d="m22 26h8v10h-8z"/><path d="m26 28h10v10h-10z"/><path d="m20 28h10v6h-10z"/><path d="m30 32h10v2h-10z"/><path d="m26 33h12v5h-12z"/><path d="m28 35h10v5h-10z"/><path d="m30 39h6v5h-6z"/><path d="m22 22h4v-4h-4z"/><path d="m24 16h2v-2h-2z"/></g></svg>