<svg height="50" viewBox="0 0 50 50" width="50" xmlns="http://www.w3.org/2000/svg"><g fill="#214b81" fill-rule="evenodd"><path d="m44 6h2v-2h-2z"/><path d="m4 6h2v-2h-2z"/><path d="m4 46h2v-2h-2z"/><path d="m44 46.0143973 2-.0143973v-2h-2z"/><path d="m6 4h38v-2h-38z"/><path d="m6 48.0143973 38-.0143973v-2h-38z"/><path d="m13.9750204 35.990264h19.9581327v-1.9857056h-19.9581327z"/><path d="m13.9750204 39.9614416h19.9581327v-1.9857056h-19.9581327z"/><path d="m24.0000214 22.0000235h-2v2h2v2h-2v2h2v-2h2v2h2v-2h-2v-2h2v-2h-2v-2h2v-2h-2v-2h2v2h2v-2h2v2h2v-2h-2v-2h2l-.0000428-2h-1.9999572v2h-2v-2h-2v1.9999765l-.0000214 2h2v-2h-1.9999786l-2 .0000235v-2h-2v1.9999765l-.0000214 2h2v-2h-1.9999786l-2 .0000235v-2h-2v2l1.9999786-.0000235v2h-2v-1.9999765h-1.9999786v-2h-2v2h2v2h-2v2h2v-2h2v2h2v-2h2v2l1.9999786-.0000235v2h-2v-1.9999765h-1.9999786v2h2v1.9999765l-.0000214 2h2v-2h-1.9999786zm-10.0000214-2.0000235v-10h22v10h-6v10h-10v-10z"/><path d="m38 34h-2v6h2v-2h2v-2h-2z"/><path d="m46 6h2v38h-2z"/><path d="m2 6h2v38h-2z"/></g></svg>