<svg height="50" viewBox="0 0 50 50" width="50" xmlns="http://www.w3.org/2000/svg"><g fill="#214b81" fill-rule="evenodd"><path d="m44 6h2v-2h-2z"/><path d="m4 6h2v-2h-2z"/><path d="m37.999892 43-.0000249-13.0002016v-2l.0000306-16h-26.0000306v33.9999552l4.0001329.0002464v-4l-.0001329-8h18v11.9997984l1.5809434.0002016h2.4191895v-3zm8.000108-37h2v38h-2v-14h-6v16h4v2h-4-2-4-18-4-2-4v-2h4v-16h-6v14h-2v-38h2v22h6v-16-2h30v2 16h6zm-19.9999898 39.9999888 6-.000056v-10h-6zm-8.0000818 0 6-.000056v-10h-6zm-13.99990795-.0000112v-2h2v2z"/><path d="m6 4h38v-2h-38z"/><path d="m30 26h2v-6h-2z"/><path d="m22 30h6v-2h-6z"/><path d="m22 18h6v-2h-6z"/><path d="m28 28h2v-2h-2z"/><path d="m20 28h2v-2h-2z"/><path d="m28 20h2v-2h-2z"/><path d="m20 20h2v-2h-2z"/><path d="m18 26h2v-6h-2z"/><path d="m26 20h-2v2 2h2 2v-2h-2z"/><path d="m44 46h2v-2h-2z"/><path d="m40 34h2v-2h-2z"/><path d="m40 38h2v-2h-2z"/><path d="m40 42h2v-2h-2z"/><path d="m40 46h2v-2h-2z"/><path d="m42 32h2v-2h-2z"/><path d="m42 36h2v-2h-2z"/><path d="m42 40h2v-2h-2z"/><path d="m42 44h2v-2h-2z"/><path d="m44 34h2v-2h-2z"/><path d="m44 38h2v-2h-2z"/><path d="m44 42h2v-2h-2z"/><path d="m4 34h2v-2h-2z"/><path d="m4 38h2v-2h-2z"/><path d="m4 42h2v-2h-2z"/><path d="m8 46h2v-2h-2z"/><path d="m6 32h2v-2h-2z"/><path d="m6 36h2v-2h-2z"/><path d="m6 40h2v-2h-2z"/><path d="m6 44h2v-2h-2z"/><path d="m8 34h2v-2h-2z"/><path d="m8 38h2v-2h-2z"/><path d="m8 42h2v-2h-2z"/></g></svg>