<svg height="50" viewBox="0 0 50 50" width="50" xmlns="http://www.w3.org/2000/svg"><g fill="#214b81" fill-rule="evenodd"><path d="m30 16h4v-4h-4z"/><path d="m32 20h2v-2h-2z"/><path d="m28 31.9877449v1.9958367h1.9958367v3.9916735h1.9958368v1.9958367h3.9916734v1.9958368h1.9958368v-1.9958368h1.995602v-1.9958367h-1.995602v-3.9916735h1.995602 1.9958367v-5.9875102h-1.9958367v-1.9960714h-1.995602-1.9958368v1.9960714h1.9958368v3.9916735h-1.9958368v-1.9958367h-1.9958367v-1.9958368h-1.9958367v3.9916735h-1.9958368z"/><path d="m26 42v-2h2v-4h-2v-2h-4v2 4h2v2z"/><path d="m5.99167347 3.99583673h37.92042853v-1.99583673h-37.92042853z"/><path d="m46 44h2v-38h-2z"/><path d="m44 6h2v-2h-2z"/><path d="m22.0335641 6-.0336111 2.0000112h-1.9997884v2.0000112h-2.0000235v2.0000112h-2.0000235v2.0000112h-4.0002822v2.0000112h-1.9997884v2.0000112 2.0000112h1.9997884v-2.0000112h2.0000235v-2.0000112h2.0002587 2.0000235v4.0000224h-2.0000235v-2.0000112h-2.0002587v2.0000112 2.0000112 2.0000112h-2.0000235v-2.0000112h-1.9997884-2.00002348v2.0000112 1.999776 2.0461381h2.00002348v-2.0461381h1.9997884v4.0503213h-3.99981188v1.9499475 2.0000112h2.00002348v2.0000112 4.0000224 5.9997984h-4.000047v2.0000112h24.000047 2.0000236 6.0000705 3.9998119 2.0000235v-2.0000112h2.0000235v-2.0000112h-2.0000235v2.0000112h-2.0000235v-2.0000112h-9.9998824v2.0000112h-2.0000236-8.000094v-2.0000112h-1.9997884v-1.999776h-4.000047v-2.0002016h2.0000235v-3.999832h2.0000235v-4.0000224h1.9997884v-2.0000112h2.0000235v-2.0000112h4.000047v-5.9666578h-4.000047v-6.0334094h2.0000235v-4.0000224h-2.0000235v-2.0000112-2.0000112h2.0000235v-2.0000112z"/><path d="m3.99583673 5.99167347h1.99583674v-1.99583674h-1.99583674z"/><path d="m4 46h2v-2h-2z"/><path d="m2.00023469 43.9123367h1.99560204v-37.92066323h-1.99560204z"/></g></svg>