<svg height="20" viewBox="0 0 20 20" width="20" xmlns="http://www.w3.org/2000/svg" xmlns:xlink="http://www.w3.org/1999/xlink"><mask id="a" fill="#fff"><path d="m.00045455 0h19.99954545v20h-19.99954545z" fill="#fff" fill-rule="evenodd"/></mask><g fill="#00c3a6" fill-rule="evenodd"><path d="m.00045455 0v3.63636364c9.02363636 0 16.36363635 7.33999996 16.36363635 16.36363636h3.6363636c0-11.04545455-8.9554545-20-19.99999995-20" mask="url(#a)"/><path d="m.00045455 7.27272727v3.63636363c5.01272727 0 9.09090909 4.0781818 9.09090909 9.0909091h3.63636366c0-7.0181818-5.70909094-12.72727273-12.72727275-12.72727273"/><path d="m2.72772727 14.5454545c-1.50636363 0-2.72727272 1.2209091-2.72727272 2.7272728 0 1.5063636 1.22090909 2.7272727 2.72727272 2.7272727 1.50545455 0 2.72727273-1.2209091 2.72727273-2.7272727 0-1.5063637-1.22181818-2.7272728-2.72727273-2.7272728"/></g></svg>