<svg height="38" viewBox="0 0 135 38" width="135" xmlns="http://www.w3.org/2000/svg" xmlns:xlink="http://www.w3.org/1999/xlink"><mask id="a" fill="#fff"><path d="m0 .39232432h35.345807v37.60767568h-35.345807z" fill="#fff" fill-rule="evenodd"/></mask><mask id="b" fill="#fff"><path d="m.55956861.43142391h6.81869411v10.96527179h-6.81869411z" fill="#fff" fill-rule="evenodd"/></mask><g fill="none" fill-rule="evenodd"><path d="m28.7672984 8.92722703c-3.6832317 3.71372977-7.1555248 5.72670267-10.3155061 5.96805407-2.4309124.1828108-5.0072289-.5432973-7.6531757-2.1618919-2.18823074-1.3382162-3.87573857-2.93524325-4.88640012-3.89037839l-.10239732-.09654054h-.00102398.00102398c1.80424078-1.938 4.09794075-3.36454054 6.65070594-4.13583784 0-.00102702 0-.00102702.001024-.00102702h.001024s-.001024.00102702-.002048.00102702c-.2723769 1.00135135-.3205036 2.07562162-.152572 3.14783784.3020721 1.92567568 1.2902062 3.62745943 2.712505 4.66475673 1.1120349.8123784 2.4155528 1.1523244 3.66992.9541081 1.2533432-.1971892 2.3909774-.9212432 3.2009402-2.0365946 1.0362609-1.42756753 1.4571139-3.34810807 1.1550418-5.27378374-.0552946-.35535135-.1351645-.70454054-.2375618-1.04551352l.001024.00102703c1.8411038.70454054 3.5439712 1.73362162 5.0522837 3.05027027.307192.27010811.6102881.55562162.9062163.85345946zm-17.3778493 14.91345947c-.3829659 2.2635676-.9072402 5.3538919-.4351886 10.0258378l-.0020479-.002054c-1.24003157-.6295676-2.41248089-1.4172973-3.46614931-2.3364865-2.87326881-2.5110811-4.81574597-5.9300541-5.4680169-9.6211892-.62769558-3.5483784-.03993496-7.1665946 1.65371672-10.2189189h-.00102397l.00102397-.0010271v.0010271c.64510312.6757838 1.42434672 1.4522162 2.24147734 2.2645946 1.99879569 1.9852432 4.26484835 4.2395675 5.36664355 5.8396756.6379353.9284325.4392845 2.1023244.1095651 4.0485406zm21.2658755-14.22021623c1.5513194-1.83735135 2.2384054-2.6867027 2.0889053-3.15091892-.113661-.34610811-.4740996-.65216216-1.0168054-.85859459-.5846887-.22286487-1.3854357-.32556757-1.7888811-.0872973-.1341405.07805405-.3522468.32351351-.8765211.91918919l-.4904832.55459459h-.0010239c-.3123119-.3194054-.6461271-.63881081-.9717506-.92124324-2.370498-2.07459459-5.2775579-3.42513514-8.4088679-3.914-1.261535-1.34437838-2.90706-1.96881081-4.5269856-1.71410811-1.3588124.21464865-2.5568611 1.02908108-3.3770636 2.29540541-3.1814847.97259459-6.06294532 2.80172973-8.34435762 5.30459459v-.00205405c-.50993865-.15405406-1.62914136.04518919-2.32953904.43032432-.40242146.21978379-.63281543.47654054-.68299012.76513514-.03891098.21772973.04915071.5587027.92157588 1.5559459l-.00102397.0010271c-2.24045337 3.5812432-3.21220394 7.8187567-2.72786461 11.9350811.496627 4.2231351 2.49542269 8.0539459 5.62775672 10.794054 1.11101092.9695135 2.33056301 1.7808649 3.6412487 2.4207027 1.89127846.9222703 3.98018386 1.5682703 6.21142146 1.8681622 4.6867253.6254594 9.2147348-.3758919 12.9225418-2.5470271l.0081918-.0041081c.4710277-.2639459.6430552-.8421621.4065174-1.3751892l-.0706542-.1612432c-.9635588-2.166-3.8951941-8.7574595-2.2629808-14.7696757.6829901-2.5172432 2.6520906-5.1977838 4.3539341-7.3001081h.001024c1.8114085 2.8212433 2.7370803 6.1796216 2.6029398 9.4753514-.1259487 3.1231892-1.1529938 6.0307027-2.979762 8.4719459-.0552945.0677838-.0849898.1540541-.0788459.2485406.0030719.040054.0112637.077027.0255993.1119459l.1863631.4344324c.0593905.1294054.1955789.2156757.346103.2054054.1013733-.0071891.1925069-.0554594.2508734-.1304324 4.8116501-6.1210811 5.389171-14.5457838 1.3414049-20.85583783z" fill="#e31f25" mask="url(#a)"/><g fill="#000"><path d="m45.5869409 18.3045915h1.6313446c.850817 0 1.6837993-.3629957 1.6837993-1.4172614 0-.9269541-.5979848-1.3993746-1.7572361-1.3993746h-1.5579078zm2.4454432-5.0872002c2.5367146 0 4.0411185 1.7076579 4.0411185 3.5615662 0 1.3636011-.7070908 2.379989-2.1202234 3.0354855 1.2673082.6344533 1.6481301 2.1600873 3.3885806 5.7942527h-3.3885806c-1.3229103-2.6524988-1.81074-5.0324878-3.4777538-5.0324878h-.8885845v5.0324878h-3.0801463v-12.3913044z"/><path d="m59.4542274 20.5728712c-.1042792-1.0866674-.7620406-1.741864-1.7316369-1.741864-.986642 0-1.6273577.6382174-1.7306343 1.741864zm2.0775632 3.9831154c-1.4358448 1.0527091-2.9418776 1.0527091-3.5655477 1.0527091-2.8045098 0-4.6243831-1.6210122-4.6243831-4.1039673 0-2.4320176 1.7486826-4.1569023 4.2092715-4.1569023 2.3192104 0 4.2403548 1.6379913 4.1200326 4.5354381h-5.7313473c.0862309 1.4142657 1.0568299 2.2422503 2.6310453 2.2422503 1.0046904 0 1.7837766-.2926411 2.9609287-1.1386037z"/><path d="m69.2065464 19.2427305c-.3582998-.2689698-.9376992-.4839379-1.3808855-.4839379-1.2436853 0-1.9770648.9502215-1.9770648 2.6003877 0 1.5047771.7333795 2.5100388 1.8921783 2.5100388.5280728 0 .9534921-.1973138 1.465772-.6812518zm2.4715778 6.2049987h-2.4715778v-.6635974c-.6988327.5919413-1.3463387.8245639-2.1813845.8245639-2.1152521 0-3.6817033-1.8287871-3.6817033-4.3045556 0-2.5276931 1.5664512-4.2858626 3.8179164-4.2858626.7146255 0 1.3798985.1796594 2.0451714.5192467v-4.3201329h2.4715778z"/><path d="m82.1469527 23.3381314h1.6758616c1.6404846 0 2.217636-.4545337 2.217636-1.5256339 0-.9090675-.7691983-1.3993746-1.8163591-1.3993746h-2.0771385zm0-5.1966249h1.5535581c1.0825379 0 1.518181-.69127 1.518181-1.3457144 0-.6344533-.4356431-1.3067844-1.518181-1.3067844h-1.5535581zm2.1822589-4.9241152c2.8099489 0 3.945047 1.7255446 3.945047 3.1080847 0 1.0342746-.6287008 1.9612287-1.6243122 2.4704748 1.6930447.4534816 2.5309755 1.7244925 2.5309755 3.1785795 0 1.4183135-.7328104 3.6341654-4.2058264 3.6341654h-5.7957723v-12.3913044z"/><path d="m96.2626186 19.4694811c-.3101435-.172809-.8017314-.4485043-1.5296191-.4485043-1.4937521 0-2.0043284 1.5003417-2.0043284 2.6390831 0 1.0528364.5823102 2.1566164 2.0591837 2.1566164.782743 0 1.1846636-.3106566 1.4747638-.5354082zm2.6414938 3.225435c0 .7241996.1466324 1.5353031 1.1118746 1.7250934l-1.8766841 1.1886862c-.8196648-.15383-1.367163-.567373-1.6393297-.9819148-.4926428.4315231-1.1477417.9819148-2.4959163.9819148-2.8419267 0-3.9896684-2.3963514-3.9896684-4.1214448 0-1.9148835 1.238464-4.1394248 4.0624572-4.1394248 1.1287533 0 1.8028406.3276379 2.2047612.5344093v-.3795804h2.6225055z"/><path d="m103.328813 19.8259852h.033665c.734698-1.6863695 1.55554-2.4781591 2.514014-2.4781591.49607 0 .923819.1943854 1.640694.7378502l-.68321 2.2501888c-.649544-.4213379-1.077293-.5974042-1.470386-.5974042-.905996 0-1.48821.8782962-2.034777 2.3723157v3.4979191h-2.479359v-8.1021046h2.479359z"/><path d="m111.794501 18.6659417c.827733-.9313327 1.636701-1.3181156 2.700036-1.3181156 1.295808 0 3.024248.7206377 3.024248 3.111567v5.1493026h-2.611424v-4.9386076c0-1.1430454-.55773-1.6173635-1.294766-1.6173635-.648426 0-1.135266.3338548-1.818094 1.3354191v5.220552h-2.610382v-8.1031029h2.610382z"/><path d="m125.298757 20.5728712c-.104291-1.0866674-.762124-1.741864-1.73283-1.741864-.985748 0-1.626534.6382174-1.729821 1.741864zm2.077791 3.9831154c-1.437005 1.0527091-2.943203 1.0527091-3.566942 1.0527091-2.804818 0-4.623888-1.6210122-4.623888-4.1039673 0-2.4320176 1.747872-4.1569023 4.208731-4.1569023 2.320468 0 4.241823 1.6379913 4.120485 4.5354381h-5.731977c.087244 1.4142657 1.056946 2.2422503 2.632337 2.2422503 1.004801 0 1.78297-.2926411 2.961254-1.1386037z"/></g><path d="m7.37836691 4.78180435h-3.02131628v3.38695652c0 .80336956.4677831 1.32070652 1.27624567 1.32070652.54071143 0 1.04287503-.12597826 1.74507061-.48119565v1.87108696c-.91785505.3758696-1.60129763.517337-2.4097602.517337-1.72840127 0-3.22030642-.7847827-3.22030642-3.08440222v-3.53048913h-1.18873168v-.49875l3.47243006-3.85163044h.32505196v2.58565218h3.02131628z" fill="#2b2b2a" mask="url(#b)" transform="translate(127.520384 14.043478)"/></g></svg>