<?xml version="1.0" encoding="UTF-8"?>
<svg width="135px" height="38px" viewBox="0 0 135 38" version="1.1" xmlns="http://www.w3.org/2000/svg" xmlns:xlink="http://www.w3.org/1999/xlink">
    <!-- Generator: Sketch 53.2 (72643) - https://sketchapp.com -->
    <title>logo_redbarnet@3x</title>
    <desc>Created with Sketch.</desc>
    <defs>
        <polygon id="path-1" points="0 0.392324324 35.345807 0.392324324 35.345807 38 0 38"></polygon>
    </defs>
    <g id="Symboler" stroke="none" stroke-width="1" fill="none" fill-rule="evenodd">
        <g id="Bundlinks" transform="translate(-134.000000, -27.000000)">
            <g id="Group" transform="translate(0.000000, 27.000000)">
                <g id="Group-23-Copy" transform="translate(134.000000, 0.000000)">
                    <g id="logo_RedBarnet">
                        <g id="logo_redbarnet">
                            <g id="Group-3">
                                <mask id="mask-2" fill="white">
                                    <use xlink:href="#path-1"></use>
                                </mask>
                                <g id="Clip-2"></g>
                                <path d="M28.7672984,8.92722703 C25.0840667,12.6409568 21.6117736,14.6539297 18.4517923,14.8952811 C16.0208799,15.0780919 13.4445634,14.3519838 10.7986166,12.7333892 C8.61038586,11.395173 6.92287803,9.79814595 5.91221648,8.84301081 L5.80981916,8.74647027 L5.80879518,8.74647027 L5.80981916,8.74647027 C7.61405994,6.80847027 9.90775991,5.38192973 12.4605251,4.61063243 C12.4605251,4.60960541 12.4605251,4.60960541 12.4615491,4.60960541 L12.4625731,4.60960541 C12.4625731,4.60960541 12.4615491,4.61063243 12.4605251,4.61063243 C12.1881482,5.61198378 12.1400215,6.68625405 12.3079531,7.75847027 C12.6100252,9.68414595 13.5981593,11.3859297 15.0204581,12.423227 C16.132493,13.2356054 17.4360109,13.5755514 18.6903781,13.3773351 C19.9437213,13.1801459 21.0813555,12.4560919 21.8913183,11.3407405 C22.9275792,9.91317297 23.3484322,7.99263243 23.0463601,6.06695676 C22.9910655,5.71160541 22.9111956,5.36241622 22.8087983,5.02144324 L22.8098223,5.02247027 C24.6509261,5.72701081 26.3537935,6.75609189 27.862106,8.07274054 C28.169298,8.34284865 28.4723941,8.62836216 28.7683223,8.9262 L28.7672984,8.92722703 Z M11.3894491,23.8406865 C11.0064832,26.1042541 10.4822089,29.1945784 10.9542605,33.8665243 L10.9522126,33.8644703 C9.71218103,33.2349027 8.53973171,32.447173 7.48606329,31.5279838 C4.61279448,29.0169027 2.67031732,25.5979297 2.01804639,21.9067946 C1.39035081,18.3584162 1.97811143,14.7402 3.67176311,11.6878757 L3.67073914,11.6878757 L3.67176311,11.6868486 L3.67176311,11.6878757 C4.31686623,12.3636595 5.09610983,13.1400919 5.91324045,13.9524703 C7.91203614,15.9377135 10.1780888,18.1920378 11.279884,19.7921459 C11.9178193,20.7205784 11.7191685,21.8944703 11.3894491,23.8406865 L11.3894491,23.8406865 Z M32.6553246,9.62047027 C34.206644,7.78311892 34.89373,6.93376757 34.7442299,6.46955135 C34.6305689,6.12344324 34.2701303,5.81738919 33.7274245,5.61095676 C33.1427358,5.38809189 32.3419888,5.28538919 31.9385434,5.52365946 C31.8044029,5.60171351 31.5862966,5.84717297 31.0620223,6.44284865 L30.5715391,6.99744324 L30.5705152,6.99744324 C30.2582033,6.67803784 29.9243881,6.35863243 29.5987646,6.0762 C27.2282666,4.00160541 24.3212067,2.65106486 21.1898967,2.1622 C19.9283617,0.817821622 18.2828367,0.193389189 16.6629111,0.448091892 C15.3040987,0.662740541 14.10605,1.47717297 13.2858475,2.7434973 C10.1043628,3.71609189 7.22290218,5.54522703 4.94148988,8.04809189 L4.94148988,8.04603784 C4.43155123,7.89198378 3.31234852,8.09122703 2.61195084,8.47636216 C2.20952938,8.69614595 1.97913541,8.9529027 1.92896072,9.2414973 C1.89004974,9.45922703 1.97811143,9.8002 2.8505366,10.7974432 L2.84951263,10.7984703 C0.609059261,14.3797135 -0.362691308,18.617227 0.121648016,22.7335514 C0.61827502,26.9566865 2.61707071,30.7874973 5.74940474,33.5276054 C6.86041566,34.4971189 8.07996775,35.3084703 9.39065344,35.9483081 C11.2819319,36.8705784 13.3708373,37.5165784 15.6020749,37.8164703 C20.2888002,38.4419297 24.8168097,37.4405784 28.5246167,35.2694432 L28.5328085,35.2653351 C29.0038362,35.0013892 29.1758637,34.423173 28.9393259,33.8901459 L28.8686717,33.7289027 C27.9051129,31.5629027 24.9734776,24.9714432 26.6056909,18.959227 C27.288681,16.4419838 29.2577815,13.7614432 30.959625,11.6591189 L30.960649,11.6591189 C32.7720575,14.4803622 33.6977293,17.8387405 33.5635888,21.1344703 C33.4376401,24.2576595 32.410595,27.165173 30.5838268,29.6064162 C30.5285323,29.6742 30.498837,29.7604703 30.5049809,29.8549568 C30.5080528,29.8950108 30.5162446,29.9319838 30.5305802,29.9669027 L30.7169433,30.4013351 C30.7763338,30.5307405 30.9125222,30.6170108 31.0630463,30.6067405 C31.1644196,30.5995514 31.2555532,30.5512811 31.3139197,30.4763081 C36.1255698,24.355227 36.7030907,15.9305243 32.6553246,9.62047027 L32.6553246,9.62047027 Z" id="Fill-1" fill="#E31F25" mask="url(#mask-2)"></path>
                            </g>
                            <path d="M45.5869409,18.3045915 L47.2182855,18.3045915 C48.0691025,18.3045915 48.9020848,17.9415958 48.9020848,16.8873301 C48.9020848,15.960376 48.3041,15.4879555 47.1448487,15.4879555 L45.5869409,15.4879555 L45.5869409,18.3045915 Z M48.0323841,13.2173913 C50.5690987,13.2173913 52.0735026,14.9250492 52.0735026,16.7789575 C52.0735026,18.1425586 51.3664118,19.1589465 49.9532792,19.814443 C51.2205874,20.4488963 51.6014093,21.9745303 53.3418598,25.6086957 L49.9532792,25.6086957 C48.6303689,22.9561969 48.1425392,20.5762079 46.4755254,20.5762079 L45.5869409,20.5762079 L45.5869409,25.6086957 L42.5067946,25.6086957 L42.5067946,13.2173913 L48.0323841,13.2173913 Z M59.4542274,20.5728712 C59.3499482,19.4862038 58.6921868,18.8310072 57.7225905,18.8310072 C56.7359485,18.8310072 56.0952328,19.4692246 55.9919562,20.5728712 L59.4542274,20.5728712 Z M61.5317906,24.5559866 C60.0959458,25.6086957 58.589913,25.6086957 57.9662429,25.6086957 C55.1617331,25.6086957 53.3418598,23.9876835 53.3418598,21.5047284 C53.3418598,19.0727108 55.0905424,17.3478261 57.5511313,17.3478261 C59.8703417,17.3478261 61.7914861,18.9858174 61.6711639,21.8832642 L55.9398166,21.8832642 C56.0260475,23.2975299 56.9966465,24.1255145 58.5708619,24.1255145 C59.5755523,24.1255145 60.3546385,23.8328734 61.5317906,22.9869108 L61.5317906,24.5559866 Z M69.2065464,19.2427305 C68.8482466,18.9737607 68.2688472,18.7587926 67.8256609,18.7587926 C66.5819756,18.7587926 65.8485961,19.7090141 65.8485961,21.3591803 C65.8485961,22.8639574 66.5819756,23.8692191 67.7407744,23.8692191 C68.2688472,23.8692191 68.6942665,23.6719053 69.2065464,23.1879673 L69.2065464,19.2427305 Z M71.6781242,25.4477292 L69.2065464,25.4477292 L69.2065464,24.7841318 C68.5077137,25.3760731 67.8602077,25.6086957 67.0251619,25.6086957 C64.9099098,25.6086957 63.3434586,23.7799086 63.3434586,21.3041401 C63.3434586,18.776447 64.9099098,17.0182775 67.161375,17.0182775 C67.8760005,17.0182775 68.5412735,17.1979369 69.2065464,17.5375242 L69.2065464,13.2173913 L71.6781242,13.2173913 L71.6781242,25.4477292 Z M82.1469527,23.3381314 L83.8228143,23.3381314 C85.4632989,23.3381314 86.0404503,22.8835977 86.0404503,21.8124975 C86.0404503,20.90343 85.271252,20.4131229 84.2240912,20.4131229 L82.1469527,20.4131229 L82.1469527,23.3381314 Z M82.1469527,18.1415065 L83.7005108,18.1415065 C84.7830487,18.1415065 85.2186918,17.4502365 85.2186918,16.7957921 C85.2186918,16.1613388 84.7830487,15.4890077 83.7005108,15.4890077 L82.1469527,15.4890077 L82.1469527,18.1415065 Z M84.3292116,13.2173913 C87.1391605,13.2173913 88.2742586,14.9429359 88.2742586,16.325476 C88.2742586,17.3597506 87.6455578,18.2867047 86.6499464,18.7959508 C88.3429911,19.2494324 89.1809219,20.5204433 89.1809219,21.9745303 C89.1809219,23.3928438 88.4481115,25.6086957 84.9750955,25.6086957 L79.1793232,25.6086957 L79.1793232,13.2173913 L84.3292116,13.2173913 Z M96.2626186,19.4694811 C95.9524751,19.2966721 95.4608872,19.0209768 94.7329995,19.0209768 C93.2392474,19.0209768 92.7286711,20.5213185 92.7286711,21.6600599 C92.7286711,22.7128963 93.3109813,23.8166763 94.7878548,23.8166763 C95.5705978,23.8166763 95.9725184,23.5060197 96.2626186,23.2812681 L96.2626186,19.4694811 Z M98.9041124,22.6949161 C98.9041124,23.4191157 99.0507448,24.2302192 100.015987,24.4200095 L98.1393029,25.6086957 C97.3196381,25.4548657 96.7721399,25.0413227 96.4999732,24.6267809 C96.0073304,25.058304 95.3522315,25.6086957 94.0040569,25.6086957 C91.1621302,25.6086957 90.0143885,23.2123443 90.0143885,21.4872509 C90.0143885,19.5723674 91.2528525,17.3478261 94.0768457,17.3478261 C95.205599,17.3478261 95.8796863,17.675464 96.2816069,17.8822354 L96.2816069,17.502655 L98.9041124,17.502655 L98.9041124,22.6949161 Z M103.328813,19.8259852 L103.362478,19.8259852 C104.097176,18.1396157 104.918018,17.3478261 105.876492,17.3478261 C106.372562,17.3478261 106.800311,17.5422115 107.517186,18.0856763 L106.833976,20.3358651 C106.184432,19.9145272 105.756683,19.7384609 105.36359,19.7384609 C104.457594,19.7384609 103.87538,20.6167571 103.328813,22.1107766 L103.328813,25.6086957 L100.849454,25.6086957 L100.849454,17.5065911 L103.328813,17.5065911 L103.328813,19.8259852 Z M111.794501,18.6659417 C112.622234,17.734609 113.431202,17.3478261 114.494537,17.3478261 C115.790345,17.3478261 117.518785,18.0684638 117.518785,20.4593931 L117.518785,25.6086957 L114.907361,25.6086957 L114.907361,20.6700881 C114.907361,19.5270427 114.349631,19.0527246 113.612595,19.0527246 C112.964169,19.0527246 112.477329,19.3865794 111.794501,20.3881437 L111.794501,25.6086957 L109.184119,25.6086957 L109.184119,17.5055928 L111.794501,17.5055928 L111.794501,18.6659417 Z M134.898751,18.8252826 L131.877434,18.8252826 L131.877434,22.2122391 C131.877434,23.0156087 132.345217,23.5329457 133.15368,23.5329457 C133.694391,23.5329457 134.196555,23.4069674 134.898751,23.05175 L134.898751,24.922837 C133.980896,25.2987065 133.297453,25.4401739 132.48899,25.4401739 C130.760589,25.4401739 129.268684,24.6553913 129.268684,22.3557717 L129.268684,18.8252826 L128.079952,18.8252826 L128.079952,18.3265326 L131.552382,14.4749022 L131.877434,14.4749022 L131.877434,17.0605543 L134.898751,17.0605543 L134.898751,18.8252826 Z M125.298757,20.5728712 C125.194466,19.4862038 124.536633,18.8310072 123.565927,18.8310072 C122.580179,18.8310072 121.939393,19.4692246 121.836106,20.5728712 L125.298757,20.5728712 Z M127.376548,24.5559866 C125.939543,25.6086957 124.433345,25.6086957 123.809606,25.6086957 C121.004788,25.6086957 119.185718,23.9876835 119.185718,21.5047284 C119.185718,19.0727108 120.93359,17.3478261 123.394449,17.3478261 C125.714917,17.3478261 127.636272,18.9858174 127.514934,21.8832642 L121.782957,21.8832642 C121.870201,23.2975299 122.839903,24.1255145 124.415294,24.1255145 C125.420095,24.1255145 126.198264,23.8328734 127.376548,22.9869108 L127.376548,24.5559866 Z" id="Combined-Shape" fill="#000000"></path>
                        </g>
                    </g>
                </g>
            </g>
        </g>
    </g>
</svg>