<svg enable-background="new 0 0 209 24" height="24" viewBox="0 0 209 24" width="209" xmlns="http://www.w3.org/2000/svg"><path d="m0 0h37.1v24h-37.1z" fill="#164194"/><g fill="#ffec00"><path d="m17.7 5.2.8-.5.8.5-.3-.9.8-.5h-1l-.3-.9-.3.9h-.9l.7.5z"/><path d="m13.7 6.3.8-.6.8.6-.3-.9.8-.6h-1l-.3-.9-.3.9h-1l.8.6z"/><path d="m11.5 6.8-.3.9h-1l.8.6-.3.9.8-.6.8.6-.3-.9.8-.6h-1z"/><path d="m10.4 12.5.8.6-.3-.9.8-.6h-1l-.3-.9-.3.9h-.9l.7.6-.2.9z"/><path d="m11.8 15.6-.3-.9-.3.9h-1l.8.5-.3.9.8-.5.8.5-.3-.9.8-.5z"/><path d="m14.8 18.5-.3-.9-.3.9h-1l.8.5-.3.9.8-.5.8.5-.3-.9.8-.5z"/><path d="m18.8 19.5-.3-.9-.3.9h-.9l.7.6-.2.9.7-.6.8.6-.3-.9.8-.6z"/><path d="m22.9 18.5-.3-.9-.3.9h-1l.8.5-.3.9.8-.5.8.5-.3-.9.8-.5z"/><path d="m25.8 15.6-.3-.9-.3.9h-.9l.8.5-.3.9.7-.5.8.5-.3-.9.8-.5z"/><path d="m27.9 11.6h-1l-.3-.9-.3.9h-1l.8.6-.3.9.8-.6.8.6-.3-.9z"/><path d="m24.8 9.2.7-.6.8.6-.3-.9.8-.6h-1l-.3-.9-.3.9h-.9l.8.6z"/><path d="m22.6 3.9-.3.9h-1l.8.6-.3.9.8-.6.8.6-.3-.9.8-.6h-1z"/></g><path d="m43 9.4v-6.7h2l1.2 4.6 1.2-4.6h2v6.7h-1.3v-5.3l-1.1 5.3h-1.3l-1.3-5.3v5.3z"/><path d="m53.7 7.9 1.3.2c-.2.5-.4.8-.8 1.1-.4.2-.8.4-1.3.4-.8 0-1.5-.3-1.9-.8-.3-.4-.5-1-.5-1.7 0-.8.2-1.4.6-1.9s1-.7 1.6-.7c.7 0 1.3.2 1.7.7s.6 1.2.6 2.2h-3.2c0 .4.1.7.3.9s.4.3.7.3c.2 0 .4-.1.5-.2.3-.1.4-.3.4-.5zm.1-1.3c0-.4-.1-.7-.3-.9s-.4-.3-.7-.3-.5.1-.7.3-.3.5-.3.8h2z"/><path d="m60.6 9.4h-1.2v-.7c-.2.3-.4.5-.7.6s-.5.2-.8.2c-.6 0-1-.2-1.4-.7-.5-.4-.7-1-.7-1.8s.2-1.5.6-1.9.9-.6 1.5-.6c.5 0 1 .2 1.4.7v-2.5h1.3zm-3.4-2.5c0 .5.1.9.2 1.1.2.3.5.5.9.5.3 0 .6-.1.8-.4s.3-.6.3-1.1c0-.6-.1-1-.3-1.2s-.5-.4-.8-.4-.6.1-.8.4c-.2.2-.3.6-.3 1.1z"/><path d="m61.3 4.5h.7v-.3c0-.4 0-.7.1-.9s.2-.4.5-.5c.2-.1.5-.2.9-.2s.7.1 1.1.2l-.2.9c-.2 0-.4-.1-.6-.1s-.3 0-.4.1-.1.3-.1.5v.3h1v1h-1v3.9h-1.3v-3.8h-.7z"/><path d="m65 3.9v-1.2h1.3v1.2zm0 5.5v-4.9h1.3v4.9z"/><path d="m72.1 9.4h-1.3v-2.5c0-.5 0-.9-.1-1-.1-.2-.1-.3-.3-.4-.1-.1-.3-.1-.4-.1-.2 0-.4.1-.6.2s-.3.3-.4.5-.1.6-.1 1.1v2.2h-1.3v-4.9h1.2v.7c.4-.6 1-.8 1.6-.8.3 0 .5.1.8.2.2.1.4.2.5.4.2.1.3.3.3.5s.1.5.1.9z"/><path d="m74.4 6-1.2-.2c.1-.5.4-.8.7-1s.8-.3 1.4-.3 1 .1 1.3.2.5.3.6.5.2.6.2 1.2v1.5c0 .4 0 .7.1.9 0 .2.1.4.2.7h-1.3c0-.1-.1-.2-.1-.4 0-.1 0-.1 0-.2-.2.2-.5.4-.7.5-.3.1-.5.2-.8.2-.5 0-.9-.1-1.2-.4s-.4-.6-.4-1c0-.3.1-.5.2-.7s.3-.4.6-.5c.2-.1.6-.2 1-.3.6-.1 1-.2 1.3-.3v-.3c0-.2-.1-.4-.2-.5s-.4-.2-.7-.2c-.2 0-.4 0-.5.1-.4.1-.5.3-.5.5zm1.7 1.1c-.2.1-.4.1-.8.2s-.6.2-.7.2c-.2.1-.3.3-.3.5s.1.3.2.5c.1.1.3.2.5.2s.5-.1.7-.2c.2-.2.3-.4.3-.5s.1-.3.1-.6z"/><path d="m83.1 9.4h-1.3v-2.5c0-.5 0-.9-.1-1-.1-.2-.1-.3-.3-.4-.1-.1-.3-.1-.4-.1-.2 0-.4.1-.6.2s-.3.3-.4.5-.1.6-.1 1.1v2.2h-1.3v-4.9h1.2v.7c.4-.6 1-.8 1.6-.8.3 0 .5.1.8.2.2.1.4.2.5.4.2.1.3.3.3.5s.1.5.1.9z"/><path d="m83.9 8 1.3-.2c.1.3.2.4.3.6.2.1.4.2.7.2s.6-.1.8-.2c.1-.1.2-.2.2-.3s0-.2-.1-.2c-.1-.1-.2-.1-.4-.2-1-.2-1.7-.4-2-.6-.4-.3-.6-.6-.6-1.1 0-.4.2-.8.5-1.1s.9-.4 1.6-.4 1.2.1 1.5.3.5.5.7 1l-1.2.2c-.1-.2-.2-.3-.3-.4s-.4-.2-.6-.2c-.3 0-.6 0-.7.1s-.1.2-.1.3 0 .2.1.2c.1.1.5.2 1.2.4s1.2.3 1.4.6c.3.2.4.6.4 1s-.2.8-.6 1.2c-.4.3-.9.5-1.7.5-.7 0-1.2-.1-1.6-.4-.4-.4-.6-.8-.8-1.3z"/><path d="m89.6 3.9v-1.2h1.3v1.2zm0 5.5v-4.9h1.3v4.9z"/><path d="m95.1 7.9 1.3.2c-.2.5-.4.8-.8 1.1-.4.2-.8.4-1.3.4-.8 0-1.5-.3-1.9-.8-.3-.4-.5-1-.5-1.7 0-.8.2-1.4.6-1.9s1-.7 1.6-.7c.7 0 1.3.2 1.7.7s.6 1.2.6 2.2h-3.2c0 .4.1.7.3.9s.4.3.7.3c.2 0 .4-.1.5-.2.2-.1.3-.3.4-.5zm0-1.3c0-.4-.1-.7-.3-.9s-.4-.3-.7-.3-.5.1-.7.3-.3.5-.3.8h2z"/><path d="m98.7 9.4h-1.3v-4.9h1.2v.7c.2-.3.4-.5.6-.6s.4-.2.6-.2c.3 0 .6.1.9.2l-.4 1.1c-.2-.1-.4-.2-.6-.2s-.3 0-.5.1c-.2.2-.3.4-.4.7s-.1.8-.1 1.6z"/><path d="m104 7.9 1.3.2c-.2.5-.4.8-.8 1.1-.4.2-.8.4-1.3.4-.8 0-1.5-.3-1.9-.8-.3-.4-.5-1-.5-1.7 0-.8.2-1.4.6-1.9s1-.7 1.6-.7c.7 0 1.3.2 1.7.7s.6 1.2.6 2.2h-3.2c0 .4.1.7.3.9s.4.3.7.3c.2 0 .4-.1.5-.2.2-.1.3-.3.4-.5zm0-1.3c0-.4-.1-.7-.3-.9s-.4-.3-.7-.3-.5.1-.7.3-.3.5-.3.8h2z"/><path d="m108.6 4.5v1h-.9v2 .7c0 .1.1.1.1.2.1 0 .1.1.2.1s.3 0 .5-.1l.1 1c-.3.1-.6.2-1 .2-.2 0-.4 0-.6-.1s-.3-.2-.4-.3-.1-.3-.2-.5c0-.2 0-.5 0-.9v-2.2h-.6v-1h.6v-1l1.3-.8v1.7z"/><path d="m113.1 6-1.2-.2c.1-.5.4-.8.7-1s.8-.3 1.4-.3 1 .1 1.3.2.5.3.6.5.2.6.2 1.2v1.5c0 .4 0 .7.1.9 0 .2.1.4.2.7h-1.3c0-.1-.1-.2-.1-.4 0-.1 0-.1 0-.2-.2.2-.5.4-.7.5-.3.1-.5.2-.8.2-.5 0-.9-.1-1.2-.4s-.4-.6-.4-1c0-.3.1-.5.2-.7s.3-.4.6-.5c.2-.1.6-.2 1-.3.6-.1 1-.2 1.3-.3v-.3c0-.2-.1-.4-.2-.5s-.4-.2-.7-.2c-.2 0-.4 0-.5.1-.3.1-.4.3-.5.5zm1.7 1.1c-.2.1-.4.1-.8.2s-.6.2-.7.2c-.2.1-.3.3-.3.5s.1.3.2.5c.1.1.3.2.5.2s.5-.1.7-.2.3-.3.3-.4.1-.3.1-.6z"/><path d="m116.8 4.5h.7v-.3c0-.4 0-.7.1-.9s.2-.4.5-.5c.2-.1.5-.2.9-.2s.7.1 1.1.2l-.2.9c-.2 0-.4-.1-.6-.1s-.3 0-.4.1-.1.3-.1.5v.3h1v1h-1v3.9h-1.3v-3.8h-.7z"/><path d="m123.1 2.7h2.5c.6 0 1 0 1.3.1.4.1.7.3 1 .6s.5.7.6 1.1.2 1 .2 1.6-.1 1-.2 1.4c-.2.5-.4.9-.7 1.2-.2.2-.6.4-1 .5-.3.1-.7.1-1.2.1h-2.6v-6.6zm1.4 1.1v4.5h1c.4 0 .7 0 .8-.1.2-.1.4-.1.5-.3.1-.1.3-.3.4-.7s.1-.7.1-1.2 0-.9-.1-1.2-.2-.5-.4-.7-.4-.3-.6-.3-.6-.1-1.1-.1h-.6z"/><path d="m132.8 7.9 1.3.2c-.2.5-.4.8-.8 1.1-.4.2-.8.4-1.3.4-.8 0-1.5-.3-1.9-.8-.3-.4-.5-1-.5-1.7 0-.8.2-1.4.6-1.9s1-.7 1.6-.7c.7 0 1.3.2 1.7.7s.6 1.2.6 2.2h-3.2c0 .4.1.7.3.9s.4.3.7.3c.2 0 .4-.1.5-.2s.3-.3.4-.5zm0-1.3c0-.4-.1-.7-.3-.9s-.4-.3-.7-.3-.5.1-.7.3-.3.5-.3.8h2z"/><path d="m139.6 9.4h-1.3v-2.5c0-.5 0-.9-.1-1-.1-.2-.1-.3-.3-.4-.1-.1-.3-.1-.4-.1-.2 0-.4.1-.6.2s-.3.3-.4.5-.1.6-.1 1.1v2.2h-1.3v-4.9h1.2v.7c.4-.6 1-.8 1.6-.8.3 0 .5.1.8.2.2.1.4.2.5.4s.2.3.3.5c0 .2.1.5.1.9z"/><path d="m143.5 9.4v-6.7h5v1.1h-3.6v1.5h3.4v1.1h-3.4v1.8h3.8v1.1h-5.2z"/><path d="m153 9.4v-.7c-.2.3-.4.5-.7.6-.3.2-.6.2-.9.2s-.6-.1-.9-.2-.4-.3-.6-.6c-.1-.3-.2-.6-.2-1.1v-3.1h1.3v2.2c0 .7 0 1.1.1 1.3 0 .2.1.3.3.4.1.1.3.1.5.1s.4-.1.6-.2.3-.3.4-.5.1-.6.1-1.3v-2h1.3v4.9z"/><path d="m156.8 9.4h-1.3v-4.9h1.2v.7c.2-.3.4-.5.6-.6s.4-.2.6-.2c.3 0 .6.1.9.2l-.4 1.1c-.2-.1-.4-.2-.6-.2s-.3 0-.5.1c-.1.1-.2.3-.3.5-.1.3-.1.8-.1 1.6v1.7z"/><path d="m158.9 6.9c0-.4.1-.8.3-1.2s.5-.7.9-.9.8-.3 1.3-.3c.7 0 1.3.2 1.8.7s.7 1.1.7 1.8-.2 1.4-.7 1.8c-.5.5-1.1.7-1.8.7-.4 0-.9-.1-1.3-.3s-.7-.5-.9-.9c-.2-.3-.3-.8-.3-1.4zm1.4.1c0 .5.1.9.3 1.1.2.3.5.4.9.4.3 0 .6-.1.8-.4s.3-.6.3-1.1-.1-.8-.3-1.1-.5-.4-.8-.4-.6.1-.9.4c-.2.2-.3.6-.3 1.1z"/><path d="m165 4.5h1.2v.7c.2-.2.4-.4.6-.6.3-.2.6-.2.9-.2.6 0 1 .2 1.4.7.4.4.6 1.1.6 1.9s-.2 1.4-.6 1.9-.9.7-1.4.7c-.3 0-.5-.1-.7-.2s-.5-.3-.7-.6v2.5h-1.3zm1.2 2.4c0 .5.1 1 .3 1.2.2.3.5.4.8.4s.6-.1.7-.4c.2-.2.3-.6.3-1.2 0-.5-.1-.9-.3-1.1s-.5-.4-.8-.4-.6.1-.8.4c-.1.3-.2.6-.2 1.1z"/><path d="m176.7 7.9 1.3.2c-.2.5-.4.8-.8 1.1-.4.2-.8.4-1.4.4-.3 0-.7-.1-1-.2s-.6-.3-.8-.5c-.2.2-.5.3-.8.5-.3.1-.7.2-1.1.2-.5 0-.9-.1-1.2-.4s-.4-.6-.4-1c0-.2.1-.5.2-.7s.2-.3.4-.5c.1-.1.3-.2.6-.3.1 0 .5-.1 1.1-.2.3-.1.6-.1.8-.2v-.2c0-.2-.1-.4-.2-.5s-.3-.2-.6-.2c-.2 0-.4 0-.6.1-.1.1-.2.3-.3.5l-1.2-.2c.2-.5.4-.8.7-1s.8-.3 1.5-.3c.3 0 .6 0 .9.1.2.1.5.2.6.3.2-.2.4-.3.6-.3.2-.1.5-.1.7-.1.5 0 .9.1 1.2.3s.6.5.8.9.3 1 .3 1.7h-3.2c.1.4.2.7.3.9.2.2.4.3.7.3.2 0 .4-.1.6-.2.1-.1.2-.3.3-.5zm-3.2-.8c-.7.2-1.1.3-1.2.3-.2.1-.3.1-.4.2s-.1.2-.1.3c0 .2.1.3.2.5.1.1.3.2.5.2s.4-.1.6-.2c.1-.1.2-.2.3-.4s.1-.5.1-.9zm3.2-.5c0-.3-.1-.5-.1-.6-.1-.2-.2-.3-.3-.4-.2-.1-.3-.1-.5-.1s-.3 0-.5.1c-.1.1-.2.2-.3.4s-.2.4-.1.6z"/><path d="m179.1 3.9v-1.2h1.3v1.2zm0 5.5v-4.9h1.3v4.9z"/><path d="m181.3 8 1.3-.2c.1.3.2.4.3.6.2.1.4.2.7.2s.6-.1.8-.2c.1-.1.2-.2.2-.3s0-.2-.1-.2c-.1-.1-.2-.1-.4-.2-1-.2-1.7-.4-2-.6-.4-.3-.6-.6-.6-1.1 0-.4.2-.8.5-1.1s.9-.4 1.6-.4 1.2.1 1.5.3.5.5.7 1l-1.2.2c-.1-.2-.2-.3-.3-.4s-.4-.2-.6-.2c-.3 0-.6 0-.7.1s-.1.2-.1.3 0 .2.1.2c.1.1.5.2 1.2.4s1.2.3 1.4.6c.3.2.4.6.4 1s-.2.8-.6 1.2c-.4.3-.9.5-1.7.5-.7 0-1.2-.1-1.6-.4-.4-.4-.7-.8-.8-1.3z"/><path d="m186.9 9.4v-6.7h1.3v3.6l1.5-1.7h1.6l-1.7 1.8 1.8 3.1h-1.4l-1.2-2.2-.6.6v1.6h-1.3z"/><path d="m195 7.9 1.3.2c-.2.5-.4.8-.8 1.1-.4.2-.8.4-1.3.4-.8 0-1.5-.3-1.9-.8-.3-.4-.5-1-.5-1.7 0-.8.2-1.4.6-1.9s1-.7 1.6-.7c.7 0 1.3.2 1.7.7s.6 1.2.6 2.2h-3.2c0 .4.1.7.3.9s.4.3.7.3c.2 0 .4-.1.5-.2s.4-.3.4-.5zm.1-1.3c0-.4-.1-.7-.3-.9s-.4-.3-.7-.3-.5.1-.7.3-.3.5-.3.8h2z"/><path d="m43.1 14h1.4v3.7c0 .6 0 1 .1 1.1.1.3.2.5.4.7s.5.3.9.3.7-.1.9-.2c.2-.2.3-.4.4-.6 0-.2.1-.6.1-1.1v-3.9h1.4v3.5c0 .8 0 1.4-.1 1.7s-.2.6-.4.8-.5.4-.8.5-.8.2-1.3.2c-.6 0-1.1-.1-1.5-.2-.3-.1-.6-.3-.8-.6-.2-.2-.3-.5-.4-.7-.1-.4-.1-1-.1-1.7v-3.5z"/><path d="m54.3 20.7h-1.3v-2.5c0-.5 0-.9-.1-1-.1-.2-.1-.3-.3-.4-.1-.1-.3-.1-.4-.1-.2 0-.4.1-.6.2s-.3.3-.4.5-.1.6-.1 1.1v2.2h-1.3v-4.9h1.2v.7c.4-.6 1-.8 1.6-.8.3 0 .5.1.8.2.2.1.4.2.5.4s.2.3.3.5c0 .2.1.5.1.9z"/><path d="m55.6 15.2v-1.2h1.3v1.2zm0 5.5v-4.9h1.3v4.9z"/><path d="m57.9 18.2c0-.4.1-.8.3-1.2s.5-.7.9-.9.8-.3 1.3-.3c.7 0 1.3.2 1.8.7s.7 1.1.7 1.8-.2 1.4-.7 1.8c-.5.5-1.1.7-1.8.7-.4 0-.9-.1-1.3-.3s-.7-.5-.9-.9c-.2-.3-.3-.8-.3-1.4zm1.4.1c0 .5.1.9.3 1.1.2.3.5.4.9.4s.6-.1.8-.4.3-.6.3-1.1-.1-.8-.3-1.1-.5-.4-.8-.4-.6.1-.9.4c-.2.2-.3.6-.3 1.1z"/><path d="m68.4 20.7h-1.3v-2.5c0-.5 0-.9-.1-1-.1-.2-.1-.3-.3-.4-.1-.1-.3-.1-.4-.1-.2 0-.4.1-.6.2s-.3.3-.4.5-.1.6-.1 1.1v2.2h-1.2v-4.9h1.2v.7c.4-.6 1-.8 1.6-.8.3 0 .5.1.8.2.2.1.4.2.5.4s.2.3.3.5c0 .2.1.5.1.9v3z"/><path d="m69.3 19.3 1.3-.2c.1.3.2.4.3.6.2.1.4.2.7.2s.6-.1.8-.2c.1-.1.2-.2.2-.3s0-.2-.1-.2c-.1-.1-.3-.2-.5-.2-1-.2-1.7-.4-2-.6-.4-.3-.6-.6-.6-1.1 0-.4.2-.8.5-1.1s.9-.4 1.6-.4 1.2.1 1.5.3.5.5.7 1l-1.2.2c-.1-.2-.2-.3-.3-.4s-.4-.2-.6-.2c-.3 0-.6 0-.7.1s-.1.2-.1.3 0 .2.1.2c.1.1.5.2 1.2.4s1.2.3 1.4.6c.3.2.4.6.4 1s-.2.8-.6 1.2c-.4.3-.9.5-1.7.5-.7 0-1.2-.1-1.6-.4-.4-.4-.6-.8-.7-1.3z"/><path d="m81.9 18.2 1.3.4c-.2.7-.5 1.3-1 1.6s-1.1.5-1.8.5c-.9 0-1.6-.3-2.2-.9s-.9-1.4-.9-2.5.3-2 .9-2.6 1.3-.9 2.3-.9c.8 0 1.5.2 2 .7.3.3.5.7.7 1.2l-1.3.3c-.1-.3-.2-.6-.5-.8s-.6-.3-.9-.3c-.5 0-.9.2-1.2.5-.3.4-.5.9-.5 1.7 0 .9.2 1.5.5 1.8.3.4.7.5 1.2.5.4 0 .7-.1.9-.3.2 0 .4-.4.5-.9z"/><path d="m84.1 18.2c0-.4.1-.8.3-1.2s.5-.7.9-.9.8-.3 1.3-.3c.7 0 1.3.2 1.8.7s.7 1.1.7 1.8-.2 1.4-.7 1.8c-.5.5-1.1.7-1.8.7-.4 0-.9-.1-1.3-.3s-.7-.5-.9-.9c-.2-.3-.3-.8-.3-1.4zm1.3.1c0 .5.1.9.3 1.1.2.3.5.4.9.4.3 0 .6-.1.8-.4s.3-.6.3-1.1-.1-.8-.3-1.1-.5-.4-.8-.4-.6.1-.9.4c-.2.2-.3.6-.3 1.1z"/><path d="m94.6 20.7h-1.3v-2.5c0-.5 0-.9-.1-1-.1-.2-.1-.3-.3-.4-.1-.1-.3-.1-.4-.1-.2 0-.4.1-.6.2s-.3.3-.4.5-.1.6-.1 1.1v2.2h-1.3v-4.9h1.2v.7c.4-.6 1-.8 1.6-.8.3 0 .5.1.8.2.2.1.4.2.5.4s.2.3.3.5c0 .2.1.5.1.9z"/><path d="m100.3 20.7h-1.3v-2.5c0-.5 0-.9-.1-1-.1-.2-.1-.3-.3-.4-.1-.1-.3-.1-.4-.1-.2 0-.4.1-.6.2s-.3.3-.4.5-.1.6-.1 1.1v2.2h-1.3v-4.9h1.2v.7c.4-.6 1-.8 1.6-.8.3 0 .5.1.8.2.2.1.4.2.5.4s.2.3.3.5c0 .2.1.5.1.9z"/><path d="m104.5 19.2 1.3.2c-.2.5-.4.8-.8 1.1-.4.2-.8.4-1.3.4-.8 0-1.5-.3-1.9-.8-.3-.4-.5-1-.5-1.7 0-.8.2-1.4.6-1.9s1-.7 1.6-.7c.7 0 1.3.2 1.7.7s.6 1.2.6 2.2h-3.2c0 .4.1.7.3.9s.4.3.7.3c.2 0 .4-.1.5-.2s.3-.3.4-.5zm0-1.3c0-.4-.1-.7-.3-.9s-.4-.3-.7-.3-.5.1-.7.3-.3.5-.3.8h2z"/><path d="m111.1 17.3-1.3.2c0-.3-.1-.4-.3-.6-.2-.1-.3-.2-.6-.2s-.6.1-.8.3-.3.6-.3 1.1c0 .6.1 1 .3 1.2s.5.4.8.4c.2 0 .4-.1.6-.2s.3-.4.3-.7l1.3.2c-.1.6-.4 1-.8 1.3s-.9.4-1.5.4c-.7 0-1.3-.2-1.7-.7s-.6-1.1-.6-1.9.2-1.4.6-1.9c.4-.4 1-.7 1.7-.7.6 0 1.1.1 1.4.4.5.5.8.9.9 1.4z"/><path d="m114.4 15.8v1h-.9v2 .7c0 .1.1.1.1.2.1 0 .1.1.2.1s.3 0 .5-.1l.1 1c-.3.1-.6.2-1 .2-.2 0-.4 0-.6-.1s-.3-.2-.4-.3-.1-.3-.2-.5c0-.2 0-.5 0-.9v-2.1h-.6v-1h.6v-1l1.3-.8v1.7h.9z"/><path d="m115.3 15.2v-1.2h1.3v1.2zm0 5.5v-4.9h1.3v4.9z"/><path d="m122.3 20.7h-1.3v-2.5c0-.5 0-.9-.1-1-.1-.2-.1-.3-.3-.4-.1-.1-.3-.1-.4-.1-.2 0-.4.1-.6.2s-.3.3-.4.5-.1.6-.1 1.1v2.2h-1.3v-4.9h1.2v.7c.4-.6 1-.8 1.6-.8.3 0 .5.1.8.2.2.1.4.2.5.4s.2.3.3.5c0 .2.1.5.1.9z"/><path d="m123.5 21 1.5.2c0 .2.1.3.2.4s.3.1.6.1.6-.1.8-.2c.1-.1.2-.2.3-.3 0-.1.1-.3.1-.6v-.7c-.4.5-.9.8-1.5.8-.7 0-1.2-.3-1.6-.8-.3-.4-.5-1-.5-1.6 0-.8.2-1.4.6-1.9.4-.4.9-.6 1.5-.6s1.1.3 1.5.8v-.7h1.2v4.4c0 .6 0 1-.1 1.3s-.2.5-.4.7-.4.3-.7.4-.6.1-1.1.1c-.8 0-1.4-.1-1.8-.4-.3-.3-.5-.6-.5-1.1-.1-.1-.1-.2-.1-.3zm1.2-2.8c0 .5.1.9.3 1.1s.4.4.7.4.6-.1.8-.4c.2-.2.3-.6.3-1.1s-.1-.9-.3-1.1-.5-.4-.8-.4-.6.1-.8.4c-.1.2-.2.6-.2 1.1z"/><path d="m132 20.7v-6.7h5v1.1h-3.6v1.5h3.4v1.1h-3.4v1.8h3.8v1.1h-5.2z"/><path d="m141.5 20.7v-.7c-.2.3-.4.5-.7.6-.3.2-.6.2-.9.2s-.6-.1-.9-.2-.4-.3-.6-.6c-.1-.3-.2-.6-.2-1.1v-3.1h1.3v2.2c0 .7 0 1.1.1 1.3 0 .2.1.3.3.4.1.1.3.1.5.1s.4-.1.6-.2.3-.3.4-.5.1-.6.1-1.3v-2.1h1.3v4.9h-1.3z"/><path d="m145.3 20.7h-1.3v-4.9h1.2v.7c.2-.3.4-.5.6-.6s.4-.2.6-.2c.3 0 .6.1.9.2l-.4 1.1c-.2-.1-.4-.2-.6-.2s-.3 0-.5.1c-.1.1-.2.3-.3.5-.1.3-.1.8-.1 1.6v1.7z"/><path d="m147.4 18.2c0-.4.1-.8.3-1.2s.5-.7.9-.9.8-.3 1.3-.3c.7 0 1.3.2 1.8.7s.7 1.1.7 1.8-.2 1.4-.7 1.8c-.5.5-1.1.7-1.8.7-.4 0-.9-.1-1.3-.3s-.7-.5-.9-.9c-.2-.3-.3-.8-.3-1.4zm1.3.1c0 .5.1.9.3 1.1.2.3.5.4.9.4.3 0 .6-.1.8-.4s.3-.6.3-1.1-.1-.8-.3-1.1-.5-.4-.8-.4-.6.1-.9.4c-.2.2-.3.6-.3 1.1z"/><path d="m153.4 15.8h1.2v.7c.2-.2.4-.4.6-.6.3-.2.6-.2.9-.2.6 0 1 .2 1.4.7.4.4.6 1.1.6 1.9s-.2 1.4-.6 1.9-.9.7-1.4.7c-.3 0-.5-.1-.7-.2s-.5-.3-.7-.6v2.5h-1.3zm1.3 2.4c0 .5.1 1 .3 1.2.2.3.5.4.8.4s.6-.1.7-.4c.2-.2.3-.6.3-1.2 0-.5-.1-.9-.3-1.1s-.5-.4-.8-.4-.6.1-.8.4c-.1.3-.2.6-.2 1.1z"/><path d="m162 19.2 1.3.2c-.2.5-.4.8-.8 1.1-.4.2-.8.4-1.3.4-.8 0-1.5-.3-1.9-.8-.3-.4-.5-1-.5-1.7 0-.8.2-1.4.6-1.9s1-.7 1.6-.7c.7 0 1.3.2 1.7.7s.6 1.2.6 2.2h-3.2c0 .4.1.7.3.9s.4.3.7.3c.2 0 .4-.1.5-.2.3-.1.4-.3.4-.5zm.1-1.3c0-.4-.1-.7-.3-.9s-.4-.3-.7-.3-.5.1-.7.3-.3.5-.3.8h2z"/><path d="m164.3 18.9v-1.3h2.5v1.3z"/><path d="m167 15.8h.7v-.4c0-.4 0-.7.1-.9s.2-.4.5-.5c.2-.1.5-.2.9-.2s.7.1 1.1.2l-.2.9c-.2 0-.4-.1-.6-.1s-.3 0-.4.1-.1.3-.1.5v.3h1v1h-1v3.9h-1.3v-3.9h-.7z"/><path d="m171.7 17.3-1.2-.2c.1-.5.4-.8.7-1s.8-.3 1.4-.3 1 .1 1.3.2.5.3.6.5.2.6.2 1.2v1.5c0 .4 0 .7.1.9 0 .2.1.4.2.7h-1.3c0-.1-.1-.2-.1-.4 0-.1 0-.1 0-.2-.2.2-.5.4-.7.5-.3.1-.5.2-.8.2-.5 0-.9-.1-1.2-.4s-.4-.6-.4-1c0-.3.1-.5.2-.7s.3-.4.6-.5c.2-.1.6-.2 1-.3.6-.1 1-.2 1.3-.3v-.1c0-.2-.1-.4-.2-.5s-.4-.2-.7-.2c-.2 0-.4 0-.5.1-.3-.1-.4.1-.5.3zm1.7 1.1c-.2.1-.4.1-.8.2s-.6.2-.7.2c-.2.1-.3.3-.3.5s.1.3.2.5c.1.1.3.2.5.2s.5-.1.7-.2.3-.3.3-.4.1-.3.1-.6z"/><path d="m180.2 17.3-1.3.2c0-.3-.1-.4-.3-.6-.2-.1-.3-.2-.6-.2s-.6.1-.8.3-.3.6-.3 1.1c0 .6.1 1 .3 1.2s.5.4.8.4c.2 0 .4-.1.6-.2s.3-.4.3-.7l1.3.2c-.1.6-.4 1-.8 1.3s-.9.4-1.5.4c-.7 0-1.3-.2-1.7-.7s-.6-1.1-.6-1.9.2-1.4.6-1.9c.4-.4 1-.7 1.7-.7.6 0 1.1.1 1.4.4.5.5.8.9.9 1.4z"/><path d="m181.2 15.2v-1.2h1.3v1.2zm0 5.5v-4.9h1.3v4.9z"/><path d="m183.8 20.7v-6.7h1.3v6.7z"/><path d="m186.4 15.2v-1.2h1.3v1.2zm0 5.5v-4.9h1.3v4.9z"/><path d="m191.3 15.8v1h-.9v2 .7c0 .1.1.1.1.2.1 0 .1.1.2.1s.3 0 .5-.1l.1 1c-.3.1-.6.2-1 .2-.2 0-.4 0-.6-.1s-.3-.2-.4-.3-.1-.3-.2-.5c0-.2 0-.5 0-.9v-2.1h-.6v-1h.6v-1l1.3-.8v1.7h.9z"/><path d="m195 19.2 1.3.2c-.2.5-.4.8-.8 1.1-.4.2-.8.4-1.3.4-.8 0-1.5-.3-1.9-.8-.3-.4-.5-1-.5-1.7 0-.8.2-1.4.6-1.9s1-.7 1.6-.7c.7 0 1.3.2 1.7.7s.6 1.2.6 2.2h-3.2c0 .4.1.7.3.9s.4.3.7.3c.2 0 .4-.1.5-.2s.3-.3.4-.5zm.1-1.3c0-.4-.1-.7-.3-.9s-.4-.3-.7-.3-.5.1-.7.3-.3.5-.3.8h2z"/><path d="m199.7 15.8v1h-.9v2 .7c0 .1.1.1.1.2.1 0 .1.1.2.1s.3 0 .5-.1l.1 1c-.3.1-.6.2-1 .2-.2 0-.4 0-.6-.1s-.3-.2-.4-.3-.1-.3-.2-.5c0-.2 0-.5 0-.9v-2.1h-.6v-1h.6v-1l1.3-.8v1.7h.9z"/><path d="m203.4 19.2 1.3.2c-.2.5-.4.8-.8 1.1-.4.2-.8.4-1.3.4-.8 0-1.5-.3-1.9-.8-.3-.4-.5-1-.5-1.7 0-.8.2-1.4.6-1.9s1-.7 1.6-.7c.7 0 1.3.2 1.7.7s.6 1.2.6 2.2h-3.2c0 .4.1.7.3.9s.4.3.7.3c.2 0 .4-.1.5-.2.2-.1.3-.3.4-.5zm.1-1.3c0-.4-.1-.7-.3-.9s-.4-.3-.7-.3-.5.1-.7.3-.3.5-.3.8h2z"/><path d="m208 15.8v1h-.9v2 .7c0 .1.1.1.1.2.1 0 .1.1.2.1s.3 0 .5-.1l.1 1c-.3.1-.6.2-1 .2-.2 0-.4 0-.6-.1s-.3-.2-.4-.3-.1-.3-.2-.5c0-.2 0-.5 0-.9v-2.1h-.6v-1h.6v-1l1.3-.8v1.7h.9z"/></svg>