<svg enable-background="new 0 0 206.5 31" height="31" viewBox="0 0 206.5 31" width="206.5" xmlns="http://www.w3.org/2000/svg" xmlns:xlink="http://www.w3.org/1999/xlink"><clipPath id="a"><path d="m.5 0h26v31h-26z"/></clipPath><clipPath id="b"><path d="m.5 0h26v31h-26z"/></clipPath><clipPath id="c"><path d="m21.5 12.4h2.5v2h-2.5z"/></clipPath><clipPath id="d"><path d="m23.9 12.4-2.4 1.9 2.4-1.9c.1 0 .1 0 0 0z"/></clipPath><clipPath id="e"><path d="m21.5 12.4h2.5v2h-2.5z"/></clipPath><clipPath id="f"><path d="m21.5 12.4h2.5v2h-2.5z"/></clipPath><clipPath id="g"><path d="m10.7 11.3h13.2v3.1h-13.2z"/></clipPath><clipPath id="h"><path d="m11.3 13.3c.9 0 1.8.1 2.6.1.9 0 1.7.1 2.6.2s1.7.2 2.5.3 1.7.2 2.5.4c.7-.6 1.7-1.4 2.4-1.9-.8-.2-1.7-.3-2.5-.4-.9-.1-1.7-.2-2.6-.3s-1.8-.2-2.6-.2c-.9-.1-1.8-.1-2.7-.1-.8.6-1.5 1.3-2.2 1.9"/></clipPath><clipPath id="i"><path d="m10.7 11.3h13.2v3.1h-13.2z"/></clipPath><clipPath id="j"><path d="m10.7 11.3h13.2v3.1h-13.2z"/></clipPath><clipPath id="k"><path d="m16.3 13.4h6.9v2.6h-6.9z"/></clipPath><clipPath id="l"><path d="m23.2 13.4c-.1.1-.2.1-.3.2s-.2.1-.3.2c-.1 0-.2.1-.4.1-.1 0-.3.1-.4.1-.2 0-.5 0-.7.1-.2 0-.4 0-.6 0s-.3 0-.5 0c-.1 0-.3 0-.4 0s-.2 0-.3 0-.2 0-.3 0-.2 0-.3 0-.2 0-.3-.1l-2.4 2c.1 0 .2 0 .3.1h.3.3.3.1.3.5.5c.2 0 .4 0 .7-.1.1 0 .3 0 .4-.1.1 0 .3-.1.4-.1s.2-.1.3-.2.2-.1.3-.2c.9-.7 1.7-1.4 2.5-2z"/></clipPath><clipPath id="m"><path d="m16.3 13.4h6.9v2.6h-6.9z"/></clipPath><clipPath id="n"><path d="m16.3 13.4h6.9v2.6h-6.9z"/></clipPath><clipPath id="o"><path d="m16 13.9h2.6v2h-2.6z"/></clipPath><clipPath id="p"><path d="m18.4 13.9c-.8.7-1.6 1.3-2.4 2h.1.1l2.4-2c-.1 0-.1 0-.2 0z"/></clipPath><clipPath id="q"><path d="m16 13.9h2.6v2h-2.6z"/></clipPath><clipPath id="r"><path d="m16 13.9h2.6v2h-2.6z"/></clipPath><clipPath id="s"><path d="m10.7 11.3h6.8v2.3h-6.8z"/></clipPath><clipPath id="t"><path d="m13 11.3-2.2 2.1h.1.1.1.1c.7-.7 1.5-1.4 2.2-2.1h-.1-.1-.1z"/></clipPath><clipPath id="u"><path d="m10.7 11.3h6.8v2.3h-6.8z"/></clipPath><clipPath id="v"><path d="m10.7 11.3h6.8v2.3h-6.8z"/></clipPath><clipPath id="w"><path d="m8.4 0h4.5v13.3h-4.5z"/></clipPath><clipPath id="x"><path d="m10.5 0-2.1 2.4c.2.7.3 1.4.5 2.2.1.6.3 1.4.4 2.1.2.7.3 1.5.5 2.2s.3 1.5.5 2.2c0 .2.1.4.1.5 0 .2.1.4.1.5 0 .2.1.4.1.5 0 .2.1.4.1.5l2.2-2.1c0-.2-.1-.4-.1-.6s-.1-.4-.1-.6-.1-.4-.1-.6-.1-.4-.1-.6c-.2-.8-.3-1.5-.5-2.3s-.3-1.5-.5-2.3c-.2-.3-.3-1-.5-1.8-.2-.7-.3-1.4-.5-2.2z"/></clipPath><clipPath id="y"><path d="m8.4 0h4.5v13.3h-4.5z"/></clipPath><clipPath id="z"><path d="m8.4 0h4.5v13.3h-4.5z"/></clipPath><clipPath id="A"><path d="m22.4 25.2h3.8v2h-3.8z"/></clipPath><clipPath id="B"><path d="m26.3 25.2c-.1 0-.1.1-.2.1s-.2.1-.3.1-.2.1-.3.1-.3.1-.4.1l-2.6 1.7c.2 0 .3-.1.4-.1s.2-.1.3-.1.2-.1.3-.1.1-.1.2-.1c.8-.6 1.7-1.1 2.6-1.7z"/></clipPath><clipPath id="C"><path d="m22.4 25.2h3.8v2h-3.8z"/></clipPath><clipPath id="D"><path d="m22.4 25.2h3.8v2h-3.8z"/></clipPath><clipPath id="E"><path d="m6 11.3h7v2.2h-7z"/></clipPath><clipPath id="F"><path d="m10.1 13.3h.1.1.1.1l2.2-2.1c-.1 0-.1 0-.2 0h-.1-.1c-.1 0-.1 0-.2 0-.5.8-1.2 1.4-2 2.1"/></clipPath><clipPath id="G"><path d="m6 11.3h7v2.2h-7z"/></clipPath><clipPath id="H"><path d="m6 11.3h7v2.2h-7z"/></clipPath><clipPath id="I"><path d="m4.8.9h4.5v8.8h-4.5z"/></clipPath><clipPath id="J"><path d="m7.5.9-2 2.3c-.2.3-.3.5-.4.8-.1.2-.2.5-.3.7 0 .3-.1.6 0 .9 0 .3.1.6.1.9.1.5.3 1 .5 1.4s.5.7.7 1c.3.3.5.5.7.6.2.2.3.3.3.3l2.1-2.2s-.1-.1-.3-.2c-.1-.2-.3-.4-.6-.7s-.5-.6-.8-1c-.2-.4-.4-.9-.5-1.5-.1-.3-.1-.6-.2-.9 0-.3 0-.6 0-.9s.1-.6.2-.8c.2-.2.4-.5.5-.7z"/></clipPath><clipPath id="K"><path d="m4.8.9h4.5v8.8h-4.5z"/></clipPath><clipPath id="L"><path d="m4.8.9h4.5v8.8h-4.5z"/></clipPath><clipPath id="M"><path d="m6.9 7.6h2.4v2.4h-2.4z"/></clipPath><clipPath id="N"><path d="m9.3 7.6-2.2 2.2s0 0-.1.1c0 0 0 0-.1.1 0 0 0 0-.1.1 0 0 0 0-.1.1.9-.9 1.6-1.6 2.3-2.4 0 0 0 0 .1-.1 0 0 0 0 .1-.1 0 .1 0 .1.1 0-.1 0 0 0 0 0z"/></clipPath><clipPath id="O"><path d="m6.9 7.6h2.4v2.4h-2.4z"/></clipPath><clipPath id="P"><path d="m6.9 7.6h2.4v2.4h-2.4z"/></clipPath><clipPath id="Q"><path d="m19.8 25.6h5.2v2.8h-5.2z"/></clipPath><clipPath id="R"><path d="m25 25.6s-.1 0-.2 0-.3.1-.6.2c-.2.1-.5.2-.8.3s-.7.3-1 .6c-.9.6-1.7 1.1-2.6 1.6.3-.2.7-.4 1-.5s.6-.3.8-.3c.2-.1.4-.1.6-.2h.2z"/></clipPath><clipPath id="S"><path d="m19.8 25.6h5.2v2.8h-5.2z"/></clipPath><clipPath id="T"><path d="m19.8 25.6h5.2v2.8h-5.2z"/></clipPath><clipPath id="U"><path d="m10.7 11.3h4.7v13.4h-4.7z"/></clipPath><clipPath id="V"><path d="m13 11.3-2.2 2.1c.1.6.3 1.2.4 1.8s.3 1.2.4 1.9c.1.6.3 1.2.4 1.9.1.6.3 1.3.4 1.9.5-.4 1.1-.9 1.6-1.3.2-.2.5-.4.7-.6-.1-.7-.3-1.3-.4-1.9s-.3-1.3-.4-1.9-.3-1.3-.4-1.9c-.3-.8-.4-1.4-.5-2z"/></clipPath><clipPath id="W"><path d="m10.7 11.3h4.7v13.4h-4.7z"/></clipPath><clipPath id="X"><path d="m10.7 11.3h4.7v13.4h-4.7z"/></clipPath><clipPath id="Y"><path d="m18.3 26.5h3.7v2.2h-3.7z"/></clipPath><clipPath id="Z"><path d="m20.8 26.5-2.5 1.7c.1.1.1.2.2.3l.2.2c.1 0 .1.1.2.1h.1.1.1.1c.9-.5 1.7-1.1 2.6-1.6s0 0-.1 0c0 0 0 0-.1 0 0 0 0 0-.1 0s-.1 0-.2 0-.1 0-.2-.1c-.1 0-.1-.1-.2-.2 0-.2-.1-.3-.2-.4z"/></clipPath><clipPath id="aa"><path d="m18.3 26.5h3.7v2.2h-3.7z"/></clipPath><clipPath id="ab"><path d="m18.3 26.5h3.7v2.2h-3.7z"/></clipPath><clipPath id="ac"><path d="m7 14.4h2.8v2.7h-2.8z"/></clipPath><clipPath id="ad"><path d="m9.2 14.4-2.2 2c.3 0 .4.1.5.1.1.1.1.1.1.2s0 .1-.1.2c0 .1-.1.1-.1.1l2.2-2s0 0 .1-.1c0-.1.1-.1.1-.2 0-.1 0-.1-.1-.2-.1 0-.3 0-.5-.1z"/></clipPath><clipPath id="ae"><path d="m7 14.4h2.8v2.7h-2.8z"/></clipPath><clipPath id="af"><path d="m7 14.4h2.8v2.7h-2.8z"/></clipPath><clipPath id="ag"><path d="m13.8 22.6h7.1v5.5h-7.1z"/></clipPath><clipPath id="ah"><path d="m16.4 22.6c-.1 0-.1 0-.1 0s0 0-.1 0c0 0 0 0-.1 0l-2.4 1.8h.1.1.1.1c.3 0 .6 0 .9.1s.6.2.8.4c.3.2.5.4.7.6s.4.5.6.7.4.5.5.7c.2.2.3.4.4.6s.2.3.3.4.1.2.1.2l2.5-1.7s0-.1-.1-.2-.1-.3-.3-.4c-.1-.2-.2-.4-.4-.6s-.3-.5-.5-.7-.4-.5-.7-.7c-.2-.2-.5-.4-.7-.6-.3-.2-.5-.3-.8-.4-.4-.1-.7-.2-1-.2z"/></clipPath><clipPath id="ai"><path d="m13.8 22.6h7.1v5.5h-7.1z"/></clipPath><clipPath id="aj"><path d="m13.8 22.6h7.1v5.5h-7.1z"/></clipPath><clipPath id="ak"><path d="m13.1 22.6h3v2h-3z"/></clipPath><clipPath id="al"><path d="m16.2 22.6c-.1 0-.2 0-.3.1-.1 0-.1 0-.2.1-.1 0-.1.1-.2.1-.4.3-.8.6-1.2.9s-.8.6-1.2.9c0 0 .1-.1.2-.1s.1 0 .2-.1h.2.1z"/></clipPath><clipPath id="am"><path d="m13.1 22.6h3v2h-3z"/></clipPath><clipPath id="an"><path d="m13.1 22.6h3v2h-3z"/></clipPath><clipPath id="ao"><path d="m10.7 11.3h4.7v13.4h-4.7z"/></clipPath><clipPath id="ap"><path d="m13.7 19.6c-.5.4-1 .8-1.5 1.2.1.3.1.6.2 1 .1.3.1.6.2 1 .1.3.1.6.2 1 .1.3.1.6.2 1 .7-.5 1.7-1.3 2.4-1.8-.1-.3-.1-.7-.2-1s-.1-.7-.2-1-.1-.7-.2-1-.1-.7-.2-1c-.3.2-.6.4-.9.6"/></clipPath><clipPath id="aq"><path d="m10.7 11.3h4.7v13.4h-4.7z"/></clipPath><clipPath id="ar"><path d="m10.7 11.3h4.7v13.4h-4.7z"/></clipPath><clipPath id="as"><path d="m.6 11.3h12.4v2.8h-12.4z"/></clipPath><clipPath id="at"><path d="m10.2 11.3c-.7 0-1.5 0-2.2.1-.7 0-1.5.1-2.2.2s-1.5.1-2.2.2c-.7.7-1.4 1.4-2 2.1.7-.1 1.5-.2 2.2-.2.7-.1 1.4-.1 2.2-.2.7 0 1.4-.1 2.1-.1h2.1c.7-.7 1.5-1.4 2.2-2.1-.1 0-.1 0-.2 0-.7 0-1.3 0-2 0"/></clipPath><clipPath id="au"><path d="m.6 11.3h12.4v2.8h-12.4z"/></clipPath><clipPath id="av"><path d="m.6 11.3h12.4v2.8h-12.4z"/></clipPath><clipPath id="aw"><path d="m11.7 22.9h3.8v2.6h-3.8z"/></clipPath><clipPath id="ax"><path d="m15.5 22.9s-.1 0-.1.1c-.1 0-.2.1-.3.2s-.3.2-.5.3-.3.2-.5.3c-.8.6-1.6 1.2-2.4 1.8.1-.1.3-.2.5-.3s.3-.2.4-.3.3-.1.3-.2c.1 0 .1-.1.1-.1z"/></clipPath><clipPath id="ay"><path d="m11.7 22.9h3.8v2.6h-3.8z"/></clipPath><clipPath id="az"><path d="m11.7 22.9h3.8v2.6h-3.8z"/></clipPath><clipPath id="aA"><path d="m.6 11.4h7.5v2.7h-7.5z"/></clipPath><clipPath id="aB"><path d="m3.3 11.8c-.1 0-.2 0-.2 0-.1 0-.2 0-.2 0-.1 0-.2 0-.2 0l-2 2.2h.2.2.2.2s0 0 0-.1l.2-.2c.6-.6 1.1-1.2 1.7-1.8.1-.1 0-.1-.1-.1"/></clipPath><clipPath id="aC"><path d="m.6 11.4h7.5v2.7h-7.5z"/></clipPath><clipPath id="aD"><path d="m.6 11.4h7.5v2.7h-7.5z"/></clipPath><clipPath id="aE"><path d="m.5 9.8h2.5v4.3h-2.5z"/></clipPath><clipPath id="aF"><path d="m3 9.8c-.7.7-1.3 1.5-2 2.2-.2.2-.3.4-.4.7-.1.2-.1.5-.1.7s0 .4.1.5v.2l2-2.2s0-.1-.1-.2c0-.1-.1-.3-.1-.5s0-.5.1-.7c.2-.3.3-.5.5-.7z"/></clipPath><clipPath id="aG"><path d="m.5 9.8h2.5v4.3h-2.5z"/></clipPath><clipPath id="aH"><path d="m.5 9.8h2.5v4.3h-2.5z"/></clipPath><clipPath id="aI"><path d="m.6 11.9h8.6v4.5h-8.6z"/></clipPath><clipPath id="aJ"><path d="m2.6 11.9-2 2.2c.1.4.4.7 1 1 .5.3 1.2.5 1.9.7s1.4.3 2 .5c.6.1 1.2.2 1.5.2l2.2-2c-.4-.1-.9-.1-1.6-.3-.6-.2-1.4-.3-2.1-.5s-1.4-.4-1.9-.7c-.5-.4-.9-.7-1-1.1z"/></clipPath><clipPath id="aK"><path d="m.6 11.9h8.6v4.5h-8.6z"/></clipPath><clipPath id="aL"><path d="m.6 11.9h8.6v4.5h-8.6z"/></clipPath><clipPath id="aM"><path d="m5.9 15.1h3.8v10.3h-3.8z"/></clipPath><clipPath id="aN"><path d="m9.7 15.1-2.2 2c-.6.9-.9 1.9-1.2 2.8-.2.9-.4 1.9-.4 2.7-.1.8-.1 1.5 0 2 0 .5.1.8.1.8l2.2-1.8s0-.3-.1-.8c0-.5 0-1.2 0-2.1.1-.8.2-1.8.4-2.7.3-1 .6-2 1.2-2.9z"/></clipPath><clipPath id="aO"><path d="m5.9 15.1h3.8v10.3h-3.8z"/></clipPath><clipPath id="aP"><path d="m5.9 15.1h3.8v10.3h-3.8z"/></clipPath><clipPath id="aQ"><path d="m5.7 23.5h2.6v3h-2.6z"/></clipPath><clipPath id="aR"><path d="m5.9 25.3v.4c0 .1 0 .2-.1.3 0 .1-.1.2-.1.2 0 .1-.1.1-.2.2.7-.6 1.5-1.2 2.2-1.8.1 0 .1-.1.2-.2 0-.1.1-.1.1-.2s0-.2.1-.3c0-.1 0-.2 0-.4z"/></clipPath><clipPath id="aS"><path d="m5.7 23.5h2.6v3h-2.6z"/></clipPath><clipPath id="aT"><path d="m5.7 23.5h2.6v3h-2.6z"/></clipPath><clipPath id="aU"><path d="m5.6 28.4h5v2.6h-5z"/></clipPath><clipPath id="aV"><path d="m7.9 28.4-2.3 1.7c.4.2.7.3.9.4s.3.2.4.2.2.1.3.1.3.1.5.1c.3.1.3.1.3.1h.1.1s.1 0 .1-.1c.8-.6 1.6-1.1 2.3-1.7 0 0-.1 0-.1.1h-.1-.1-.1c-.3-.1-.4-.1-.5-.1s-.2-.1-.3-.1c-.3-.1-.4-.1-.6-.2-.2-.2-.5-.3-.9-.5z"/></clipPath><clipPath id="aW"><path d="m5.6 28.4h5v2.6h-5z"/></clipPath><clipPath id="aX"><path d="m5.6 28.4h5v2.6h-5z"/></clipPath><clipPath id="aY"><path d="m3.2 28h4.7v2.1h-4.7z"/></clipPath><clipPath id="aZ"><path d="m5.4 28-2.2 1.7c.2 0 .4 0 .7.1.3 0 .6.1.8.1.2.1.5.1.7.1s.3.1.3.1l2.3-1.7s-.1 0-.3-.1c-.2 0-.4-.1-.7-.1s-.6-.1-.8-.1c-.4-.1-.6-.1-.8-.1z"/></clipPath><clipPath id="a0"><path d="m3.2 28h4.7v2.1h-4.7z"/></clipPath><clipPath id="a1"><path d="m3.2 28h4.7v2.1h-4.7z"/></clipPath><clipPath id="a2"><path d="m2.7 25.9h3v3.8h-3z"/></clipPath><clipPath id="a3"><path d="m3.5 27.7c-.4.3-.6.6-.7.8s-.1.3-.1.5v.1c0 .2.1.3.2.4s.2.2.3.1l2.2-1.6c-.1 0-.2-.1-.3-.2s-.2-.2-.2-.4 0-.4.1-.7.3-.5.7-.8c-.7.6-1.4 1.2-2.2 1.8"/></clipPath><clipPath id="a4"><path d="m2.7 25.9h3v3.8h-3z"/></clipPath><clipPath id="a5"><path d="m2.7 25.9h3v3.8h-3z"/></clipPath><path d="m42.1 18.8c0 .7 0 1.2-.1 1.7-.1.4-.3.8-.5 1.1s-.6.5-1 .6-.9.2-1.5.2h-.6c-1.2 0-2-.3-2.5-.8s-.7-1.4-.7-2.7v-10.3c0-1.3.2-2.2.7-2.8.4-.5 1.2-.8 2.4-.8h.6c1.1 0 1.9.3 2.4.8s.7 1.5.7 2.8v3.4h-2.4v-3.4c0-.3-.1-.6-.3-.8s-.5-.3-.7-.3c-.3 0-.5.1-.7.3s-.3.5-.3.8v10.1c0 .3.1.6.3.7.2.2.4.3.7.3.7 0 1.1-.3 1.1-1v-3.5h2.4z"/><path d="m49.1 19.4c0 .6 0 1.1-.1 1.5s-.2.7-.5.9c-.2.2-.5.4-.9.4-.4.1-.9.1-1.4.1-.6 0-1 0-1.4-.1s-.7-.3-.9-.5-.4-.5-.5-.9-.1-.8-.1-1.4v-6.9c0-.7 0-1.2.1-1.6s.3-.7.5-1c.2-.2.5-.4.9-.5s.9-.1 1.4-.1 1 0 1.4.1.7.2.9.5c.2.2.4.6.5 1s.1 1 .1 1.7v4.1h-3.9v2.6c0 .7.3 1 .9 1 .7 0 1-.5 1-1.4v-.4h2zm-2-7.3c0-.6-.3-.9-.9-.9s-1 .3-1 .9v2.4h1.9z"/><path d="m56.3 22.2h-2v-9.3c0-.8-.3-1.3-.9-1.3-.3 0-.5.1-.7.4s-.3.5-.3.9v9.3h-2v-12.8h2v1.4c.1-.2.2-.4.4-.6s.4-.3.6-.5c.2-.1.4-.3.6-.4s.4-.1.6-.1c.6 0 1.1.3 1.3.8.3.6.4 1.5.4 2.7z"/><path d="m61.1 22.2h-.5c-.5 0-.9 0-1.3-.1-.3-.1-.6-.2-.8-.5-.2-.2-.3-.6-.4-1s-.1-1-.1-1.7v-7.6h-.8v-2h.8v-4.2h2v4.3h1.1v2h-1.1v7.4c0 .5.1.8.2 1s.5.3.9.3z"/><path d="m68.3 19.4c0 .6 0 1.1-.1 1.5s-.2.7-.5.9c-.2.2-.5.4-.9.4-.4.1-.9.1-1.4.1-.6 0-1 0-1.4-.1s-.7-.3-.9-.5-.4-.5-.5-.9-.1-.8-.1-1.4v-6.9c0-.7 0-1.2.1-1.6s.3-.7.5-1c.2-.2.5-.4.9-.5s.9-.1 1.4-.1c.6 0 1 0 1.4.1s.7.2.9.5c.2.2.4.6.5 1s.1 1 .1 1.7v4.1h-3.9v2.6c0 .7.3 1 .9 1 .7 0 1-.5 1-1.4v-.4h2zm-2-7.3c0-.6-.3-.9-.9-.9s-1 .3-1 .9v2.4h1.9z"/><path d="m75 14.8h-1.6v-2.3c0-.3-.1-.6-.3-.8s-.4-.4-.7-.4c-.6 0-.9.4-.9 1.2v9.7h-2v-12.8h1.8v1.2c.5-.9 1.1-1.3 2-1.3 1.1 0 1.7.9 1.7 2.7z"/><path d="m82.6 11.4h-1.3v10.9h-2v-10.9h-.7v-2h.7v-1.3c0-2 1.1-3 3.3-3v1.8c-.9 0-1.4.5-1.4 1.6v.5.3.2h1.3v1.9z"/><path d="m89.6 19.4c0 .6 0 1.1-.1 1.5s-.2.7-.5.9c-.2.2-.5.4-.9.4-.4.1-.9.1-1.4.1-.6 0-1 0-1.4-.1s-.7-.3-.9-.5-.4-.5-.5-.9-.1-.8-.1-1.4v-6.9c0-.7 0-1.2.1-1.6s.3-.7.5-1c.2-.2.5-.4.9-.5s.9-.1 1.4-.1c.6 0 1 0 1.4.1s.7.2.9.5c.2.2.4.6.5 1s.1 1 .1 1.7zm-2-7.3c0-.6-.3-.9-.9-.9s-1 .3-1 .9v7.1c0 .7.3 1 .9 1 .3 0 .5-.1.7-.3s.3-.4.3-.7z"/><path d="m96.4 14.8h-1.6v-2.3c0-.3-.1-.6-.3-.8s-.4-.4-.7-.4c-.6 0-.9.4-.9 1.2v9.7h-2v-12.8h1.8v1.2c.5-.9 1.1-1.3 2-1.3 1.1 0 1.7.9 1.7 2.7z"/><path d="m107.4 18.1c0 .8-.1 1.5-.2 2s-.3 1-.5 1.3-.5.5-.9.7c-.4.1-.8.2-1.3.2h-4.2v-17.2h3.6c.7 0 1.3 0 1.7.1s.8.3 1 .5c.2.3.4.7.5 1.2s.1 1.3.1 2.1v9.1zm-2.5-9.4c0-.8-.4-1.2-1.2-1.2h-.9v12.2h.9c.4 0 .7-.1.9-.3s.3-.5.3-.9z"/><path d="m110.8 6.8h-2v-1.7h2zm0 15.4h-2v-12.8h2z"/><path d="m118.1 22.7c0 2-1.1 3-3.3 3h-2.4v-2h2.2c.5 0 .9-.1 1.1-.3s.3-.5.3-.8c0-.1 0-.2 0-.3s0-.2 0-.4v-.8c-.4.9-1 1.4-2 1.4-1.3 0-2-1-2-3.1v-6.5c0-2.3.8-3.5 2.3-3.5.7 0 1.2.5 1.6 1.6v-1.5h2v13.2zm-2-9.8c0-.8-.3-1.1-.9-1.1-.7 0-1 .4-1 1.1v6.4c0 .6.3.9 1 .9.6 0 .9-.3.9-.9z"/><path d="m121.6 6.8h-2v-1.7h2zm0 15.4h-2v-12.8h2z"/><path d="m126.5 22.2h-.5c-.5 0-.9 0-1.3-.1-.3-.1-.6-.2-.8-.5-.2-.2-.3-.6-.4-1s-.1-1-.1-1.7v-7.6h-.8v-2h.8v-4.2h2v4.3h1.1v2h-1.1v7.4c0 .5.1.8.2 1s.5.3.9.3z"/><path d="m133.7 22.2h-3c-.7 0-1.2 0-1.5-.1-.4-.1-.6-.3-.8-.5s-.3-.6-.4-1-.1-1-.2-1.7v-.6c0-.6 0-1.1.1-1.5s.2-.7.4-1c.2-.2.4-.4.7-.5s.6-.2 1-.2h1.7v-2.9c0-.5-.3-.8-1-.8-.6 0-.9.2-.9.7v1.2h-2v-.6c0-.7 0-1.3.1-1.7s.2-.8.4-1 .5-.4.9-.5.9-.1 1.6-.1c.6 0 1 0 1.4.1s.7.2.9.4.4.5.5.8c.1.4.1.8.1 1.4zm-2-2v-3.1h-.9c-.3 0-.5.1-.7.3s-.3.4-.3.6v1.6c0 .5.3.7 1 .7h.9z"/><path d="m137.2 22.2h-2v-17.1h2z"/><path d="m148.5 12.2c0 .6-.1 1.1-.2 1.5s-.3.7-.6 1c-.3.2-.7.4-1.3.5-.5.1-1.2.2-2.1.2h-.3v6.8h-2.4v-17.1h4.1c1 0 1.8.3 2.2.8.4.6.7 1.5.7 2.8v3.5zm-2.4-3.3c0-.9-.4-1.4-1.2-1.4h-.9v5.4h.9c.8 0 1.2-.4 1.2-1.3z"/><path d="m159.4 16.6h-3.9v3.2c0 .2.1.3.3.5.2.1.4.2.6.2.7 0 1-.4 1-1.1v-1h2v.9c0 .4-.1.8-.2 1.2s-.3.7-.5.9c-.2.3-.5.5-.8.6-.3.2-.6.2-1 .2h-4.2c-1.1 0-2-.2-2.4-.6-.5-.4-.7-1.2-.7-2.2v-.2-1.3c0-1 .2-1.7.5-2.2s.9-.7 1.7-.7h1.7v-2.6c0-.3-.1-.5-.3-.7s-.4-.3-.7-.3c-.2 0-.4.1-.6.4-.2.2-.3.5-.4.8v.7h-2v-.8c0-1.1.3-2 .8-2.4.5-.5 1.5-.7 2.8-.7h3.2c2 0 3 1.1 3 3.4v3.8zm-5.9 0c-.8 0-1.3.1-1.5.2-.2.2-.4.4-.4.8v1.9c0 .3.1.6.2.6.1.1.4.1.8.1h.8v-3.6zm3.9-2.1v-2.2c0-.2-.1-.4-.3-.6s-.4-.3-.6-.3c-.6 0-.9.3-.9 1v2.1z"/><path d="m166.6 22.2h-2v-1.4c-.1.6-.3.9-.6 1.2-.3.2-.8.3-1.5.3-.6 0-1.1-.3-1.4-.8s-.4-1.5-.4-2.8v-6c0-.7 0-1.2.1-1.7.1-.4.2-.8.4-1.1s.4-.5.7-.6.6-.2 1-.2c.9 0 1.5.5 1.8 1.5v-5.5h2v17.1zm-2-9.4c0-.3-.1-.6-.3-.9s-.4-.4-.7-.4c-.7 0-1 .4-1 1.3v6.1c0 .7.3 1.1 1 1.1s1-.4 1-1.1z"/><path d="m173.8 22.2h-3c-.7 0-1.2 0-1.5-.1-.4-.1-.6-.3-.8-.5s-.3-.6-.4-1-.1-1-.2-1.7v-.6c0-.6 0-1.1.1-1.5s.2-.7.4-1c.2-.2.4-.4.7-.5s.6-.2 1-.2h1.7v-2.9c0-.5-.3-.8-1-.8-.6 0-.9.2-.9.7v1.2h-2v-.6c0-.7 0-1.3.1-1.7s.2-.8.4-1 .5-.4.9-.5.9-.1 1.6-.1c.6 0 1 0 1.4.1s.7.2.9.4.4.5.5.8c.1.4.1.8.1 1.4zm-2-2v-3.1h-.9c-.3 0-.5.1-.7.3s-.3.4-.3.6v1.6c0 .5.3.7 1 .7h.9z"/><path d="m181.1 22.7c0 2-1.1 3-3.3 3h-2.4v-2h2.2c.5 0 .9-.1 1.1-.3s.3-.5.3-.8c0-.1 0-.2 0-.3s0-.2 0-.4v-.8c-.4.9-1 1.4-2 1.4-1.3 0-2-1-2-3.1v-6.5c0-2.3.8-3.5 2.3-3.5.7 0 1.2.5 1.6 1.6v-1.5h2v13.2zm-2-9.8c0-.8-.3-1.1-.9-1.1-.7 0-1 .4-1 1.1v6.4c0 .6.3.9 1 .9.6 0 .9-.3.9-.9z"/><path d="m188.3 19.4c0 .6 0 1.1-.1 1.5s-.2.7-.5.9c-.2.2-.5.4-.9.4-.4.1-.9.1-1.4.1-.6 0-1 0-1.4-.1s-.7-.3-.9-.5-.4-.5-.5-.9-.1-.8-.1-1.4v-6.9c0-.7 0-1.2.1-1.6s.3-.7.5-1c.2-.2.5-.4.9-.5s.9-.1 1.4-.1c.6 0 1 0 1.4.1s.7.2.9.5c.2.2.4.6.5 1s.1 1 .1 1.7zm-2-7.3c0-.6-.3-.9-.9-.9s-1 .3-1 .9v7.1c0 .7.3 1 .9 1 .3 0 .5-.1.7-.3s.3-.4.3-.7z"/><path d="m195.4 22.7c0 2-1.1 3-3.3 3h-2.4v-2h2.2c.5 0 .9-.1 1.1-.3s.3-.5.3-.8c0-.1 0-.2 0-.3s0-.2 0-.4v-.8c-.4.9-1 1.4-2 1.4-1.3 0-2-1-2-3.1v-6.5c0-2.3.8-3.5 2.3-3.5.7 0 1.2.5 1.6 1.6v-1.5h2v13.2zm-2-9.8c0-.8-.3-1.1-.9-1.1-.7 0-1 .4-1 1.1v6.4c0 .6.3.9 1 .9.6 0 .9-.3.9-.9z"/><path d="m198.9 6.8h-2v-1.7h2zm0 15.4h-2v-12.8h2z"/><path d="m206.5 22.2h-2l-.9-2.2c-.2-.4-.3-.9-.6-1.5-.2-.6-.4-1.4-.7-2.3v5.9h-2v-17h2v9.8c.3-.8.5-1.6.7-2.2s.4-1.1.6-1.6l.7-1.7h1.8l-2.3 6.1z"/><g clip-path="url(#a)" enable-background="new"><g clip-path="url(#b)" enable-background="new"><g clip-path="url(#c)"><g clip-path="url(#d)" enable-background="new"><g clip-path="url(#e)"><path clip-path="url(#f)" d="m24 12.4-2.5 2z" fill="#df9d28"/><path clip-path="url(#f)" d="m24 12.4-2.5 2z" fill="#db9a28"/><path clip-path="url(#f)" d="m24 12.4-2.5 2z" fill="#d59529"/><path clip-path="url(#f)" d="m24 12.4-2.5 2z" fill="#cd912a"/><path clip-path="url(#f)" d="m24 12.4-2.5 2z" fill="#c88d2b"/><path clip-path="url(#f)" d="m24 12.4-2.5 2 2.4-2z" fill="#c38a2c"/><path clip-path="url(#f)" d="m23.9 12.4-2.4 2z" fill="#bf872c"/><path clip-path="url(#f)" d="m23.9 12.4-2.4 2v-.1z" fill="#ba842c"/><path clip-path="url(#f)" d="m23.9 12.4-2.4 1.9z" fill="#b4802c"/><path clip-path="url(#f)" d="m23.9 12.4-2.4 1.9z" fill="#af7e2c"/><path clip-path="url(#f)" d="m23.9 12.4-2.4 1.9z" fill="#ab7b2b"/><path clip-path="url(#f)" d="m23.9 12.4-2.4 1.9z" fill="#a6762a"/><path clip-path="url(#f)" d="m23.9 12.4-2.4 1.9z" fill="#a1732a"/><path clip-path="url(#f)" d="m23.9 12.4-2.4 1.9z" fill="#9c6f2a"/><path clip-path="url(#f)" d="m23.9 12.4-2.4 1.9z" fill="#976c29"/><path clip-path="url(#f)" d="m23.9 12.4-2.4 1.9z" fill="#916828"/><path clip-path="url(#f)" d="m23.9 12.4-2.4 1.9z" fill="#976c29"/><path clip-path="url(#f)" d="m23.9 12.4-2.4 1.9z" fill="#9c6f2a"/><path clip-path="url(#f)" d="m23.9 12.4-2.4 1.9z" fill="#a1732a"/><path clip-path="url(#f)" d="m23.9 12.4-2.4 1.9z" fill="#a6762a"/></g></g></g></g><g clip-path="url(#b)" enable-background="new"><g clip-path="url(#g)"><g clip-path="url(#h)" enable-background="new"><g clip-path="url(#i)"><path clip-path="url(#j)" d="m23.9 12.4-2.4 1.9c-.2 0-.4-.1-.5-.1-.2 0-.4-.1-.5-.1-.2 0-.4-.1-.6-.1s-.4-.1-.6-.1l2.4-2c.2 0 .4.1.6.1s.4.1.6.1.4.1.6.1c.1.1.3.1.4.2" fill="#a6762a"/><path clip-path="url(#j)" d="m21.7 12-2.4 2c-.3 0-.7-.1-1-.1s-.7-.1-1-.1-.7-.1-1-.1-.7-.1-1-.1l2.3-2c.4 0 .7.1 1.1.1s.7.1 1 .1.7.1 1 .1.7.1 1 .1" fill="#a1732a"/><path clip-path="url(#j)" d="m17.5 11.5-2.3 2c-.3 0-.7 0-1-.1-.3 0-.7 0-1-.1-.3 0-.7 0-1 0s-.7 0-1 0h-.1-.1-.1-.1l2.2-2.1h.1.1.1.1 1c.3 0 .7 0 1 .1.3 0 .7 0 1 .1.5.1.8.1 1.1.1" fill="#9c6f2a"/></g></g></g></g><g clip-path="url(#b)" enable-background="new"><g clip-path="url(#k)"><g clip-path="url(#l)" enable-background="new"><g clip-path="url(#m)"><path clip-path="url(#n)" d="m23.2 13.4-2.4 1.9s-.1.1-.1.1-.1.1-.1.1-.1.1-.1.1-.1 0-.1.1l2.4-1.9s.1 0 .1-.1c0 0 .1 0 .1-.1 0 0 .1-.1.1-.1 0-.1.1-.1.1-.1" fill="#2c5e2e"/><path clip-path="url(#n)" d="m22.7 13.7-2.4 1.9h-.1-.1-.1-.1l2.4-1.9h.1.1.2c-.1 0 0 0 0 0" fill="#2a6130"/><path clip-path="url(#n)" d="m22.3 13.8-2.4 1.9s0 0-.1 0c0 0 0 0-.1 0 0 0 0 0-.1 0h-.1l2.4-1.9h.1.1z" fill="#2c6532"/><path clip-path="url(#n)" d="m22 13.9-2.4 1.9s0 0-.1 0c0 0 0 0-.1 0 0 0 0 0-.1 0 0 0 0 0-.1 0s-.2 0-.4 0c-.1 0-.2 0-.3 0s-.2 0-.3 0-.2 0-.3 0l2.4-1.9h.3.3.3.4.1.1z" fill="#2b6833"/><path clip-path="url(#n)" d="m20.5 14-2.4 2c-.1 0-.1 0-.2 0s-.1 0-.2 0-.1 0-.2 0-.1 0-.2 0l2.4-2h.2.2.2z" fill="#2b6c36"/><path clip-path="url(#n)" d="m19.7 14.1-2.4 2s0 0-.1 0c0 0 0 0-.1 0 0 0 0 0-.1 0 0 0 0 0-.1 0l2.4-2h.1.1.1z" fill="#2d6f37"/><path clip-path="url(#n)" d="m19.4 14-2.4 2s0 0-.1 0c0 0 0 0-.1 0 0 0 0 0-.1 0 0 0 0 0-.1 0l2.4-2h.1.1.2c-.1 0 0 0 0 0" fill="#2f7339"/><path clip-path="url(#n)" d="m19.1 14-2.4 2s0 0-.1 0c0 0 0 0-.1 0 0 0 0 0-.1 0 0 0 0 0-.1 0l2.4-2h.1.1z" fill="#2f763a"/><path clip-path="url(#n)" d="m18.9 14-2.4 2s0 0-.1 0c0 0 0 0-.1 0 0 0 0 0-.1 0 0 0 0 0-.1 0l2.4-2h.1.1c.1-.1.1-.1.2 0-.1 0-.1 0 0 0" fill="#327a3c"/></g></g></g></g><g clip-path="url(#b)" enable-background="new"><g clip-path="url(#o)"><g clip-path="url(#p)" enable-background="new"><g clip-path="url(#q)"><path clip-path="url(#r)" d="m18.6 13.9-2.3 2z" fill="#378b42"/><path clip-path="url(#r)" d="m18.6 13.9-2.3 2h-.1z" fill="#358841"/><path clip-path="url(#r)" d="m18.6 13.9-2.4 2z" fill="#338440"/><path clip-path="url(#r)" d="m18.6 13.9-2.4 2z" fill="#32803e"/><path clip-path="url(#r)" d="m18.6 13.9-2.4 2v-.1l2.3-1.9z" fill="#327e3d"/><path clip-path="url(#r)" d="m18.5 13.9-2.3 1.9h-.1z" fill="#327a3c"/><path clip-path="url(#r)" d="m18.5 13.9-2.4 1.9z" fill="#2f763a"/><path clip-path="url(#r)" d="m18.5 13.9-2.4 1.9z" fill="#2f7339"/><path clip-path="url(#r)" d="m18.5 13.9-2.4 1.9 2.3-1.9z" fill="#2d6f37"/><path clip-path="url(#r)" d="m18.4 13.9-2.3 1.9z" fill="#2b6c36"/><path clip-path="url(#r)" d="m18.4 13.9-2.3 1.9h-.1z" fill="#2b6833"/><path clip-path="url(#r)" d="m18.4 13.9-2.4 1.9z" fill="#2c6532"/><path clip-path="url(#r)" d="m18.4 13.9-2.4 1.9z" fill="#2a6130"/><path clip-path="url(#r)" d="m18.4 13.9-2.4 1.9v.1z" fill="#2c5e2e"/></g></g></g></g><g clip-path="url(#b)" enable-background="new"><g clip-path="url(#s)"><g clip-path="url(#t)" enable-background="new"><g clip-path="url(#u)"><path clip-path="url(#v)" d="m17.5 11.5-2.3 2c-.3 0-.7 0-1-.1-.3 0-.7 0-1-.1-.3 0-.7 0-1 0s-.7 0-1 0h-.1-.1-.1-.1l2.2-2.1h.1.1.1.1 1c.3 0 .7 0 1 .1.3 0 .7 0 1 .1.5.1.8.1 1.1.1" fill="#9c6f2a"/></g></g></g></g><path clip-path="url(#b)" d="m10.5 0c.1 0 .3 0 .6.1s.6.1.9.2c.4.1.7.3 1.1.4.4.2.8.4 1.1.7.4.3.8.8 1.1 1.3s.5 1.1.6 1.7c.1.7.1 1.3-.1 1.8-.1.6-.4 1.1-.9 1.6 0 0 .1.1.3.3s.5.4.8.6.7.5 1.2.6c.4.2.9.3 1.4.3h.7.7.6.6.6c.2 0 .4.1.6.1s.4.1.5.2c.2.1.4.2.5.3.4.2.6.5.7.7s.2.5.2.7-.1.4-.1.5c-.2.2-.2.3-.2.3-.8-.2-1.7-.3-2.5-.4-.9-.1-1.7-.2-2.6-.3s-1.8-.2-2.6-.2c-.9-.1-1.8-.1-2.7-.1h-.1-.1-.1-.1c0-.2-.1-.4-.1-.6s-.1-.4-.1-.6-.1-.4-.1-.6-.1-.4-.1-.6c-.2-.8-.3-1.5-.5-2.3s-.3-1.5-.5-2.3c-.5-.7-.6-1.4-.8-2.2-.2-.7-.3-1.4-.5-2.2" fill="#fbb12e"/><g clip-path="url(#b)" enable-background="new"><g clip-path="url(#w)"><g clip-path="url(#x)" enable-background="new"><g clip-path="url(#y)"><path clip-path="url(#z)" d="m13 11.3-2.2 2.1c0-.2-.1-.4-.1-.5 0-.2-.1-.4-.1-.5 0-.2-.1-.4-.1-.5 0-.2-.1-.4-.1-.5-.2-.8-.3-1.5-.5-2.2-.3-1-.4-1.8-.6-2.5-.1-.7-.3-1.5-.4-2.2-.2-.7-.3-1.4-.5-2.1l2.1-2.4c.2.7.3 1.5.5 2.2s.3 1.5.5 2.2c.1.8.3 1.6.5 2.3.2.8.3 1.5.5 2.3 0 .2.1.4.1.6s.1.4.1.6.1.4.1.6c.1.1.1.3.2.5" fill="#b4802c"/></g></g></g></g><g clip-path="url(#b)" enable-background="new"><g clip-path="url(#A)"><g clip-path="url(#B)" enable-background="new"><g clip-path="url(#C)"><path clip-path="url(#D)" d="m26.3 25.2-2.6 1.7 2.6-1.7c-.1 0-.1 0 0 0-.1 0 0 0 0 0" fill="#2c5e2e"/><path clip-path="url(#D)" d="m26.2 25.2-2.6 1.7s0 0-.1 0c0 0 0 0-.1 0 0 0 0 0-.1 0 0 0 0 0-.1 0l2.6-1.7h.1.1c.1.1.1.1.2 0-.1.1 0 .1 0 0" fill="#2a6130"/><path clip-path="url(#D)" d="m25.9 25.4-2.6 1.6h-.1-.1-.1-.1l2.6-1.7h.1.1c.1.1.1.1.2.1z" fill="#2c6532"/><path clip-path="url(#D)" d="m25.5 25.5-2.6 1.7h-.1-.1-.1-.1l2.6-1.7h.1.1.1z" fill="#2b6833"/></g></g></g></g><g clip-path="url(#b)" enable-background="new"><g clip-path="url(#E)"><g clip-path="url(#F)" enable-background="new"><g clip-path="url(#G)"><path clip-path="url(#H)" d="m13 11.3-2.2 2.1c-.4 0-.8 0-1.2 0s-.8 0-1.2 0-.8 0-1.2 0-.8 0-1.2.1l2.1-2.1c.4 0 .8 0 1.2-.1h1.2 1.2z" fill="#005b98"/></g></g></g></g><g clip-path="url(#b)" enable-background="new"><g clip-path="url(#I)"><g clip-path="url(#J)" enable-background="new"><g clip-path="url(#K)"><path clip-path="url(#L)" d="m9.3 7.6-2.2 2.2z" fill="#3d87c7"/><path clip-path="url(#L)" d="m9.3 7.6-2.2 2.2z" fill="#3b85c6"/><path clip-path="url(#L)" d="m9.3 7.6-2.2 2.2z" fill="#3783c4"/><path clip-path="url(#L)" d="m9.3 7.6-2.2 2.2v-.1z" fill="#3181c3"/><path clip-path="url(#L)" d="m9.3 7.6-2.2 2.1z" fill="#2d80c2"/><path clip-path="url(#L)" d="m9.3 7.6-2.2 2.1 2.2-2.1c-.1-.1-.1-.1 0 0-.1 0 0 0 0 0" fill="#3181c3"/><path clip-path="url(#L)" d="m9.2 7.5-2.1 2.2 2.1-2.2c-.1-.1-.1-.1 0 0-.1 0-.1 0 0 0-.1 0 0 0 0 0z" fill="#3783c4"/><path clip-path="url(#L)" d="m9.1 7.4-2.2 2.2 2.1-2.2h.1c-.1 0-.1 0 0 0-.1 0 0 0 0 0" fill="#3b85c6"/><path clip-path="url(#L)" d="m8.9 7.3-2.1 2.2 2.1-2.2c-.1-.1-.1-.1 0 0z" fill="#3d87c7"/><path clip-path="url(#L)" d="m8.7 7.2-2.1 2.2s0 0-.1-.1c0 0 0 0-.1-.1 0 0 0 0-.1-.1 0 0 0 0-.1-.1l2.1-2.2s0 0 .1.1c0 0 0 0 .1.1s.2.1.2.2c0-.1 0-.1 0 0" fill="#4289c8"/><path clip-path="url(#L)" d="m8.5 6.9-2.1 2.2s-.1-.1-.1-.1-.1-.1-.1-.1-.1-.1-.1-.1c0-.1-.1-.1-.1-.2l2-2.3c0 .1 0 .1.1.2 0 .1.1.1.1.2 0 0 .1.1.1.1.1 0 .1.1.2.1" fill="#458bca"/><path clip-path="url(#L)" d="m8 6.3-2.1 2.2s0 0-.1-.1c0 0 0 0 0-.1 0 0 0 0 0-.1 0 0 0 0 0-.1l2-2.1s0 0 .1.1c0 0 0 0 .1.1-.1 0-.1 0 0 .1-.1 0-.1 0 0 0" fill="#4289c8"/><path clip-path="url(#L)" d="m7.8 6-2.1 2.3s0 0 0-.1 0 0 0-.1c0 0 0 0 0-.1l2.1-2.2v.1.1c-.1 0-.1 0 0 0" fill="#3d87c7"/><path clip-path="url(#L)" d="m7.6 5.8-2.1 2.3 2.1-2.2c-.1-.2 0-.2 0-.1z" fill="#3b85c6"/><path clip-path="url(#L)" d="m7.5 5.7-2.1 2.2 2.1-2.2c0-.2 0-.1 0 0 0-.1 0-.1 0 0" fill="#3783c4"/><path clip-path="url(#L)" d="m7.4 5.5-2.1 2.2 2.1-2.3v.1c0-.1 0-.1 0 0z" fill="#3181c3"/><path clip-path="url(#L)" d="m7.3 5.3-2 2.3 2.1-2.3c-.1-.1-.1 0-.1 0z" fill="#2d80c2"/><path clip-path="url(#L)" d="m7.3 5.2-2.1 2.2 2-2.4c0 .1 0 .1.1.2 0-.1 0-.1 0 0z" fill="#2a7dc0"/><path clip-path="url(#L)" d="m7.2 5-2.1 2.3 2.1-2.3c0-.1 0 0 0 0z" fill="#277cbf"/><path clip-path="url(#L)" d="m7.2 4.9-2.1 2.3 2.1-2.3c-.1-.1-.1-.1 0 0z" fill="#217abe"/><path clip-path="url(#L)" d="m7.1 4.7-2.1 2.3 2.1-2.3c0-.1 0-.1 0 0z" fill="#1a77bc"/><path clip-path="url(#L)" d="m7.1 4.6-2.1 2.2 2-2.4c0 .1 0 .1.1.2-.1-.1 0 0 0 0" fill="#1774ba"/><path clip-path="url(#L)" d="m7 4.4-2.1 2.3 2.1-2.5v.2c0-.1 0-.1 0 0z" fill="#1171b8"/><path clip-path="url(#L)" d="m7 4.2-2.1 2.3s0 0 0-.1c0 0 0 0 0-.1 0 0 0 0 0-.1 0 0 0 0 0-.1l2.1-2.3v.1.1c-.1.1-.1.1 0 .2z" fill="#096eb6"/><path clip-path="url(#L)" d="m6.9 3.9-2 2.3s0 0 0-.1c0 0 0 0 0-.1 0 0 0 0 0-.1 0 0 0 0 0-.1l2.1-2.3v.1.1c-.1.1-.1.2-.1.2z" fill="#016bb2"/><path clip-path="url(#L)" d="m6.9 3.7-2.1 2.3s0 0 0-.1c0 0 0 0 0-.1 0 0 0 0 0-.1 0 0 0 0 0-.1l2-2.3v.1.1c.1.1.1.1.1.2 0-.1 0 0 0 0" fill="#0068ad"/><path clip-path="url(#L)" d="m6.9 3.4-2 2.3s0 0 0-.1c0 0 0 0 0-.1 0 0 0 0 0-.1 0 0 0 0 0-.1l2-2.3v.1.1c-.1.1-.1.1 0 .2z" fill="#0065a8"/><path clip-path="url(#L)" d="m6.8 3.1-2 2.3s0 0 0-.1c0 0 0 0 0-.1 0 0 0 0 0-.1 0 0 0 0 0-.1l2-2.3v.1.1z" fill="#0062a4"/><path clip-path="url(#L)" d="m6.8 2.8-2 2.3s0 0 0-.1c0 0 0 0 0-.1 0 0 0 0 0-.1 0 0 0 0 0-.1l2-2.3v.1.1c.1.1.1.2 0 .2.1 0 .1 0 0 0" fill="#005f9e"/><path clip-path="url(#L)" d="m6.9 2.6-2 2.3s0 0 0-.1c0 0 0 0 0-.1 0 0 0 0 0-.1v-.1l2-2.3v.1.1c0 0 0 .1 0 .2 0-.1 0-.1 0 0" fill="#005b98"/><path clip-path="url(#L)" d="m6.9 2.3-2 2.3v-.1-.1s0 0 0-.1v-.1l2.1-2.2v.1c-.1 0-.1.1-.1.2 0-.1 0-.1 0 0" fill="#005893"/><path clip-path="url(#L)" d="m7 2-2 2.3v-.1-.1-.1-.1l2-2.3v.1.1c0 0 0 0 0 .2 0-.1 0-.1 0 0" fill="#00558e"/><path clip-path="url(#L)" d="m7.1 1.6-2 2.4v-.1-.1-.1s0-.1.1-.1l2-2.3s0 .1-.1.1v.1c.1 0 .1 0 0 .1z" fill="#025389"/><path clip-path="url(#L)" d="m7.3 1.3-2 2.3s0-.1.1-.1c0 0 0-.1.1-.1 0 0 0-.1.1-.1 0 0 0-.1.1-.1l2-2.3s0 .1-.1.1c0 0 0 .1-.1.1s-.1.1-.2.2c0-.1 0-.1 0 0" fill="#005084"/></g></g></g></g><g clip-path="url(#b)" enable-background="new"><g clip-path="url(#M)"><g clip-path="url(#N)" enable-background="new"><g clip-path="url(#O)"><path clip-path="url(#P)" d="m9 7.8-2.1 2.2s0 0 .1-.1c0 0 0 0 .1-.1 0 0 0 0 .1-.1 0 0 0 0 .1-.1l2.1-2.2s0 0-.1.1c0 0 0 0-.1.1s-.1.1-.2.2c.1 0 .1 0 0 0" fill="#005084"/></g></g></g></g><g clip-path="url(#b)" enable-background="new"><g clip-path="url(#Q)"><g clip-path="url(#R)" enable-background="new"><g clip-path="url(#S)"><path clip-path="url(#T)" d="m25 25.6-2.6 1.7z" fill="#2d6f37"/><path clip-path="url(#T)" d="m25 25.6-2.6 1.6z" fill="#2b6c36"/><path clip-path="url(#T)" d="m25 25.6-2.6 1.7s0 0-.1 0c0 0 0 0-.1 0l2.6-1.7h.1z" fill="#2b6833"/><path clip-path="url(#T)" d="m24.8 25.6-2.6 1.7h-.1c-.1 0-.1 0-.2.1-.1 0-.1 0-.2.1-.1 0-.2.1-.2.1l2.6-1.7c.1 0 .2-.1.2-.1.1 0 .1 0 .2-.1h.2c0-.1.1-.1.1-.1" fill="#2c6532"/><path clip-path="url(#T)" d="m24 25.9-2.6 1.7c-.1 0-.2.1-.3.1s-.2.1-.3.1-.2.1-.3.1-.2.1-.3.2l2.6-1.7c.1-.1.2-.1.3-.2.1 0 .2-.1.3-.1s.2-.1.3-.1c.2-.1.2-.1.3-.1" fill="#2a6130"/><path clip-path="url(#T)" d="m22.9 26.4-2.6 1.6s-.1 0-.1.1c0 0-.1 0-.1.1 0 0-.1.1-.1.1s-.1.1-.1.1l2.6-1.6s.1-.1.1-.1.1-.1.1-.1.1-.1.1-.1c0-.1 0-.1.1-.1" fill="#2c5e2e"/></g></g></g></g><g clip-path="url(#b)" enable-background="new"><g clip-path="url(#U)"><g clip-path="url(#V)" enable-background="new"><g clip-path="url(#W)"><path clip-path="url(#X)" d="m15.5 22.9-2.4 1.8c-.1-.3-.1-.6-.2-1-.1-.3-.1-.6-.2-1-.1-.3-.1-.6-.2-1-.1-.3-.1-.6-.2-1-.1-.6-.3-1.3-.4-1.9s-.3-1.3-.4-1.9-.3-1.2-.4-1.9c-.1-.6-.3-1.2-.4-1.8l2.2-2.1c.1.6.3 1.2.4 1.9.1.6.3 1.3.4 1.9s.3 1.3.4 1.9.3 1.3.4 1.9c.1.3.1.7.2 1s.1.7.2 1 .1.7.2 1c.2.5.3.8.4 1.2" fill="#32803e"/></g></g></g></g><g clip-path="url(#b)" enable-background="new"><g clip-path="url(#Y)"><g clip-path="url(#Z)" enable-background="new"><g clip-path="url(#aa)"><path clip-path="url(#ab)" d="m22 26.9-2.6 1.7z" fill="#2c5e2e"/><path clip-path="url(#ab)" d="m22 26.9-2.6 1.6 2.6-1.6c-.1.1-.1.1 0 0-.1 0 0 0 0 0" fill="#2a6130"/><path clip-path="url(#ab)" d="m21.9 27-2.6 1.6 2.6-1.6c-.1 0-.1 0 0 0z" fill="#2c6532"/><path clip-path="url(#ab)" d="m21.8 27-2.6 1.6 2.6-1.6c-.1 0-.1 0 0 0z" fill="#2b6833"/><path clip-path="url(#ab)" d="m21.7 27-2.6 1.6z" fill="#2b6c36"/><path clip-path="url(#ab)" d="m21.7 27-2.5 1.6 2.5-1.6c-.1 0-.1 0 0 0z" fill="#2d6f37"/><path clip-path="url(#ab)" d="m21.6 27-2.5 1.6z" fill="#2f7339"/><path clip-path="url(#ab)" d="m21.6 27-2.6 1.7 2.6-1.7c-.1 0-.1 0 0 0z" fill="#2f763a"/><path clip-path="url(#ab)" d="m21.5 27-2.5 1.7h-.1z" fill="#327a3c"/><path clip-path="url(#ab)" d="m21.5 27-2.6 1.7z" fill="#327e3d"/><path clip-path="url(#ab)" d="m21.5 27-2.6 1.6 2.5-1.6z" fill="#32803e"/><path clip-path="url(#ab)" d="m21.4 27-2.5 1.6h-.1z" fill="#338440"/><path clip-path="url(#ab)" d="m21.4 27-2.6 1.6z" fill="#358841"/><path clip-path="url(#ab)" d="m21.4 27-2.6 1.6 2.5-1.6z" fill="#378b42"/><path clip-path="url(#ab)" d="m21.3 27-2.5 1.6 2.5-1.7z" fill="#388e43"/><path clip-path="url(#ab)" d="m21.3 26.9-2.5 1.7h-.1z" fill="#389244"/><path clip-path="url(#ab)" d="m21.3 26.9-2.6 1.7z" fill="#3b9645"/><path clip-path="url(#ab)" d="m21.3 26.9-2.6 1.7 2.5-1.7z" fill="#3c9846"/><path clip-path="url(#ab)" d="m21.2 26.9-2.5 1.7v-.1z" fill="#3c9d47"/><path clip-path="url(#ab)" d="m21.2 26.9-2.5 1.6h-.1z" fill="#3ea047"/><path clip-path="url(#ab)" d="m21.2 26.9-2.5 1.7 2.5-1.7c-.1-.1-.1-.1 0 0 0-.1 0-.1 0 0z" fill="#3ea448"/><path clip-path="url(#ab)" d="m21.1 26.8-2.5 1.7z" fill="#3ea648"/><path clip-path="url(#ab)" d="m21.1 26.8-2.5 1.7 2.5-1.7c-.1 0 0 0 0 0z" fill="#40ab49"/><path clip-path="url(#ab)" d="m21 26.8-2.5 1.7 2.5-1.7c0-.1 0-.1 0 0" fill="#42ae49"/><path clip-path="url(#ab)" d="m20.9 26.6-2.5 1.7 2.5-1.7c0-.1 0-.1 0 0z" fill="#40ab49"/><path clip-path="url(#ab)" d="m20.8 26.5-2.5 1.7z" fill="#3ea648"/></g></g></g></g><g clip-path="url(#b)" enable-background="new"><g clip-path="url(#ac)"><g clip-path="url(#ad)" enable-background="new"><g clip-path="url(#ae)"><path clip-path="url(#af)" d="m9.7 15.1-2.2 2 2.2-2c.1-.2 0-.1 0 0 0-.1 0-.1 0 0z" fill="#84161c"/><path clip-path="url(#af)" d="m9.8 14.9-2.2 2z" fill="#89181d"/><path clip-path="url(#af)" d="m9.8 14.9-2.2 2z" fill="#8f1a1e"/><path clip-path="url(#af)" d="m9.8 14.8-2.2 2z" fill="#941b20"/><path clip-path="url(#af)" d="m9.8 14.8-2.2 2z" fill="#991c22"/><path clip-path="url(#af)" d="m9.8 14.8-2.2 2z" fill="#9e1d23"/><path clip-path="url(#af)" d="m9.8 14.8-2.2 2z" fill="#a31e23"/><path clip-path="url(#af)" d="m9.8 14.8-2.2 2z" fill="#a61f23"/><path clip-path="url(#af)" d="m9.8 14.8-2.2 2z" fill="#ac1f25"/><path clip-path="url(#af)" d="m9.8 14.8-2.2 2 2.2-2.1z" fill="#b32027"/><path clip-path="url(#af)" d="m9.8 14.7-2.2 2.1z" fill="#b72027"/><path clip-path="url(#af)" d="m9.8 14.7-2.2 2.1z" fill="#bb2028"/><path clip-path="url(#af)" d="m9.8 14.7-2.2 2.1v-.1z" fill="#c12129"/><path clip-path="url(#af)" d="m9.8 14.7-2.2 2z" fill="#c72129"/><path clip-path="url(#af)" d="m9.8 14.7-2.2 2z" fill="#cc212a"/><path clip-path="url(#af)" d="m9.8 14.7-2.2 2z" fill="#d1202b"/><path clip-path="url(#af)" d="m9.8 14.7-2.2 2z" fill="#d61f2c"/><path clip-path="url(#af)" d="m9.8 14.7-2.2 2z" fill="#d91f2d"/><path clip-path="url(#af)" d="m9.8 14.7-2.2 2z" fill="#e01f2e"/><path clip-path="url(#af)" d="m9.8 14.7-2.2 2z" fill="#e51e2f"/><path clip-path="url(#af)" d="m9.8 14.7-2.2 2z" fill="#e92230"/><path clip-path="url(#af)" d="m9.8 14.7-2.2 2z" fill="#ed2132"/><path clip-path="url(#af)" d="m9.8 14.7-2.2 2 2.2-2c-.1-.1-.1-.1 0 0 0-.1 0-.1 0 0 0-.1 0 0 0 0" fill="#ed2835"/><path clip-path="url(#af)" d="m9.7 14.6-2.2 2z" fill="#ed2132"/><path clip-path="url(#af)" d="m9.7 14.6-2.2 2z" fill="#e92230"/><path clip-path="url(#af)" d="m9.7 14.6-2.2 2z" fill="#e51e2f"/><path clip-path="url(#af)" d="m9.7 14.6-2.2 2z" fill="#e01f2e"/><path clip-path="url(#af)" d="m9.7 14.6-2.2 2z" fill="#d91f2d"/><path clip-path="url(#af)" d="m9.7 14.6-2.2 2h-.1l2.2-2.1v.1z" fill="#d61f2c"/><path clip-path="url(#af)" d="m9.6 14.5-2.2 2.1z" fill="#d1202b"/><path clip-path="url(#af)" d="m9.6 14.5-2.2 2.1z" fill="#cc212a"/><path clip-path="url(#af)" d="m9.6 14.5-2.2 2.1v-.1z" fill="#c72129"/><path clip-path="url(#af)" d="m9.6 14.5-2.2 2 2.1-2z" fill="#c12129"/><path clip-path="url(#af)" d="m9.5 14.5-2.1 2h-.1z" fill="#bb2028"/><path clip-path="url(#af)" d="m9.5 14.5-2.2 2z" fill="#b72027"/><path clip-path="url(#af)" d="m9.5 14.5-2.2 2 2.2-2c-.1 0-.1 0 0 0-.1 0 0 0 0 0" fill="#b32027"/><path clip-path="url(#af)" d="m9.4 14.5-2.2 2 2.2-2c-.1-.1-.1-.1 0 0 0-.1 0 0 0 0z" fill="#ac1f25"/><path clip-path="url(#af)" d="m9.3 14.4-2.2 2 2.2-2c-.1 0-.1 0 0 0z" fill="#a61f23"/><path clip-path="url(#af)" d="m9.2 14.4-2.2 2.1z" fill="#a31e23"/></g></g></g></g><g clip-path="url(#b)" enable-background="new"><g clip-path="url(#ag)"><g clip-path="url(#ah)" enable-background="new"><g clip-path="url(#ai)"><path clip-path="url(#aj)" d="m20.8 26.5-2.5 1.7z" fill="#2d6f37"/><path clip-path="url(#aj)" d="m20.8 26.5-2.5 1.7z" fill="#2f7339"/><path clip-path="url(#aj)" d="m20.8 26.5-2.5 1.7z" fill="#2f763a"/><path clip-path="url(#aj)" d="m20.8 26.5-2.5 1.7z" fill="#327a3c"/><path clip-path="url(#aj)" d="m20.8 26.5-2.5 1.6z" fill="#327e3d"/><path clip-path="url(#aj)" d="m20.8 26.5-2.5 1.6z" fill="#32803e"/><path clip-path="url(#aj)" d="m20.8 26.5-2.5 1.6z" fill="#338440"/><path clip-path="url(#aj)" d="m20.8 26.5-2.5 1.6z" fill="#358841"/><path clip-path="url(#aj)" d="m20.8 26.5-2.5 1.6z" fill="#378b42"/><path clip-path="url(#aj)" d="m20.8 26.5-2.5 1.6z" fill="#388e43"/><path clip-path="url(#aj)" d="m20.8 26.5-2.5 1.6z" fill="#389244"/><path clip-path="url(#aj)" d="m20.8 26.5-2.5 1.6z" fill="#3b9645"/><path clip-path="url(#aj)" d="m20.8 26.5-2.5 1.6z" fill="#3c9846"/><path clip-path="url(#aj)" d="m20.8 26.5-2.5 1.6z" fill="#3c9d47"/><path clip-path="url(#aj)" d="m20.8 26.5-2.5 1.7s0 0 0-.1v-.1l2.5-1.7v.1.1c0-.1 0-.1 0 0z" fill="#3ea047"/><path clip-path="url(#aj)" d="m20.7 26.2-2.5 1.7s0 0 0-.1c0 0 0-.1-.1-.1 0 0 0-.1-.1-.1 0 0 0-.1-.1-.1l2.5-1.7s0 .1.1.1c0 0 0 .1.1.1 0 .1 0 .1.1.2z" fill="#3ea448"/><path clip-path="url(#aj)" d="m20.5 25.9-2.5 1.6s0-.1-.1-.1c0 0 0-.1-.1-.1 0 0 0-.1-.1-.1 0 0-.1-.1-.1-.1l2.5-1.7s.1.1.1.1.1.1.1.1 0 .1.1.1c0 .1 0 .1.1.2" fill="#3ea648"/><path clip-path="url(#aj)" d="m20.2 25.4-2.5 1.7s-.1-.1-.1-.1-.1-.1-.1-.1-.1-.1-.1-.1-.1-.1-.1-.1l2.5-1.7s.1.1.1.2.1.1.1.1.1.1.1.1c0-.1 0 0 .1 0" fill="#40ab49"/><path clip-path="url(#aj)" d="m19.7 24.8-2.5 1.7s0 0-.1-.1c0 0 0 0-.1-.1 0 0 0 0-.1-.1 0 0 0 0-.1-.1 0-.1-.1-.1-.1-.2s-.1-.1-.1-.2c0 0-.1-.1-.1-.2s-.1-.1-.1-.2l2.5-1.7.2.2c0 .1.1.1.1.2s.1.1.1.2.1.1.1.2c0 0 0 0 .1.1 0 0 0 0 .1.1s.1.1.1.2z" fill="#42ae49"/><path clip-path="url(#aj)" d="m18.9 23.9-2.5 1.7s0 0-.1-.1c0 0 0 0-.1-.1 0 0-.1 0-.1-.1 0 0-.1 0-.1-.1l2.5-1.7s.1 0 .1.1c0 0 .1 0 .1.1l.2.2c0-.1 0 0 0 0" fill="#40ab49"/><path clip-path="url(#aj)" d="m18.6 23.6-2.5 1.7s0 0-.1 0 0 0-.1 0l2.5-1.8h.1.1z" fill="#3ea648"/><path clip-path="url(#aj)" d="m18.4 23.4-2.4 1.8 2.4-1.8c-.1 0-.1 0 0 0z" fill="#3ea448"/><path clip-path="url(#aj)" d="m18.3 23.3-2.4 1.8 2.4-1.8c-.1-.1-.1-.1 0 0-.1 0-.1 0 0 0-.1 0 0 0 0 0" fill="#3ea047"/><path clip-path="url(#aj)" d="m18.1 23.2-2.4 1.8 2.4-1.8c-.1-.1-.1-.1 0 0-.1 0 0 0 0 0z" fill="#3c9d47"/><path clip-path="url(#aj)" d="m18 23.1-2.4 1.8 2.4-1.8c-.1 0-.1 0 0 0z" fill="#3c9846"/><path clip-path="url(#aj)" d="m17.9 23.1-2.4 1.8 2.4-1.8c-.1-.1-.1-.1 0 0 0-.1 0-.1 0 0" fill="#3b9645"/><path clip-path="url(#aj)" d="m17.8 23-2.4 1.8 2.4-1.8c-.1-.1-.1-.1 0 0-.1-.1-.1 0 0 0-.1 0-.1 0 0 0-.1 0 0 0 0 0" fill="#389244"/><path clip-path="url(#aj)" d="m17.7 22.9-2.4 1.8 2.4-1.8c-.1 0-.1 0 0 0" fill="#388e43"/><path clip-path="url(#aj)" d="m17.5 22.9-2.4 1.8 2.4-1.8c-.1-.1-.1-.1 0 0 0-.1 0-.1 0 0z" fill="#378b42"/><path clip-path="url(#aj)" d="m17.4 22.8-2.4 1.8 2.4-1.8c-.1 0-.1 0 0 0z" fill="#358841"/><path clip-path="url(#aj)" d="m17.3 22.8-2.4 1.8 2.4-1.8c-.1-.1-.1 0 0 0-.1 0-.1 0 0 0z" fill="#338440"/><path clip-path="url(#aj)" d="m17.2 22.7-2.4 1.8 2.4-1.8c-.1 0-.1 0 0 0z" fill="#32803e"/><path clip-path="url(#aj)" d="m17.1 22.7-2.4 1.8 2.4-1.8c-.1 0-.1 0 0 0z" fill="#327e3d"/><path clip-path="url(#aj)" d="m17 22.7-2.4 1.8 2.4-1.8c-.2 0-.2 0 0 0-.1 0-.1 0 0 0" fill="#327a3c"/><path clip-path="url(#aj)" d="m16.8 22.7-2.4 1.8 2.4-1.8c-.1-.1-.1-.1 0 0 0-.1 0-.1 0 0z" fill="#2f763a"/><path clip-path="url(#aj)" d="m16.7 22.6-2.4 1.8 2.4-1.8c-.1 0-.1 0 0 0z" fill="#2f7339"/><path clip-path="url(#aj)" d="m16.5 22.6-2.4 1.8 2.4-1.8c-.1 0 0 0 0 0z" fill="#2d6f37"/><path clip-path="url(#aj)" d="m16.4 22.6-2.4 1.8 2.4-1.8c-.1 0-.1 0 0 0-.1 0 0 0 0 0" fill="#2b6c36"/><path clip-path="url(#aj)" d="m16.2 22.6-2.4 1.8z" fill="#2b6833"/></g></g></g></g><g clip-path="url(#b)" enable-background="new"><g clip-path="url(#ak)"><g clip-path="url(#al)" enable-background="new"><g clip-path="url(#am)"><path clip-path="url(#an)" d="m16.2 22.6-2.4 1.8z" fill="#2d6f37"/><path clip-path="url(#an)" d="m16.2 22.6-2.4 1.8z" fill="#2b6c36"/><path clip-path="url(#an)" d="m16.2 22.6-2.4 1.8s0 0-.1 0l2.4-1.8c-.1.1-.1.1.1 0-.1.1-.1.1 0 0-.1.1-.1 0 0 0-.1 0 0 0 0 0" fill="#2b6833"/><path clip-path="url(#an)" d="m16 22.7-2.4 1.8s0 0-.1 0c0 0 0 0-.1 0 0 0 0 0-.1 0 0 0 0 0-.1 0l2.4-1.8h.1.1z" fill="#2c6532"/><path clip-path="url(#an)" d="m15.8 22.7-2.4 1.8 2.4-1.8c-.2.1-.1.1 0 0-.1.1-.1.1 0 0-.1 0-.1 0 0 0" fill="#2a6130"/><path clip-path="url(#an)" d="m15.6 22.8-2.4 1.8 2.4-1.8c-.1 0-.1 0 0 0z" fill="#2c5e2e"/></g></g></g></g><g clip-path="url(#b)" enable-background="new"><g clip-path="url(#ao)"><g clip-path="url(#ap)" enable-background="new"><g clip-path="url(#aq)"><path clip-path="url(#ar)" d="m15.5 22.9-2.4 1.8c-.1-.3-.1-.6-.2-1-.1-.3-.1-.6-.2-1-.1-.3-.1-.6-.2-1-.1-.3-.1-.6-.2-1-.1-.6-.3-1.3-.4-1.9s-.3-1.3-.4-1.9-.3-1.2-.4-1.9c-.1-.6-.3-1.2-.4-1.8l2.2-2.1c.1.6.3 1.2.4 1.9.1.6.3 1.3.4 1.9s.3 1.3.4 1.9.3 1.3.4 1.9c.1.3.1.7.2 1s.1.7.2 1 .1.7.2 1c.2.5.3.8.4 1.2" fill="#32803e"/></g></g></g></g><path clip-path="url(#b)" d="m13.5 11.3c.9 0 1.8.1 2.7.1.9.1 1.8.1 2.6.2.9.1 1.7.2 2.6.3s1.7.3 2.5.4c0 .1-.1.2-.2.3s-.2.3-.4.5-.4.3-.6.5c-.3.1-.6.2-.9.3-.2 0-.5 0-.7.1-.2 0-.4 0-.6 0s-.3 0-.5 0c-.1 0-.3 0-.4 0s-.2 0-.3 0-.2 0-.3 0-.2 0-.3 0-.2 0-.3-.1 0 0-.1 0c0 0 0 0-.1 0h-.1v.1.1c0 .1.1.1.1.2.3.5.5 1 .8 1.4.2.5.4 1 .5 1.5s.2.9.3 1.4c.1.4.1.8.1 1.1 0 0 0 0 .1.1l.3.3c.1.1.3.2.4.4.2.1.4.3.6.4s.4.2.6.4c.2.1.3.3.5.5s.3.4.5.6c.1.2.3.5.4.7.1 0 .4.1.9.3s1 .4 1.4.7.7.6.6.8c-.1.3-.5.5-1.5.7 0 0-.1 0-.3.1-.2 0-.4.1-.7.2s-.6.2-1 .4-.7.4-1.1.7 0 0-.1 0c0 0 0 0-.1 0 0 0 0 0-.1 0s-.1 0-.2 0-.1 0-.2-.1c-.1 0-.1-.1-.2-.2s-.2-.2-.2-.3c0 0 0-.1-.1-.2s-.1-.3-.3-.4c-.1-.2-.2-.4-.4-.6s-.3-.5-.5-.7-.4-.5-.7-.7c-.2-.2-.5-.4-.7-.6-.3-.2-.5-.3-.8-.4s-.6-.2-.9-.2c0 0 0 0-.1 0 0 0 0 0-.1 0 0 0 0 0-.1 0 0 0 0 0-.1 0 0 0 0 0-.1 0s-.1 0-.2 0-.2 0-.2.1c-.1 0-.1.1-.2.1-.1-.3-.1-.7-.2-1s-.1-.7-.2-1-.1-.7-.2-1-.1-.7-.2-1c-.1-.7-.3-1.3-.4-1.9s-.3-1.3-.4-1.9-.3-1.3-.4-1.9-.3-1.3-.4-1.9h.1.1.1c.5.1.6.1.6.1" fill="#43b149"/><g clip-path="url(#b)" enable-background="new"><g clip-path="url(#as)"><g clip-path="url(#at)" enable-background="new"><g clip-path="url(#au)"><path clip-path="url(#av)" d="m13 11.3-2.2 2.1c-.4 0-.8 0-1.2 0s-.8 0-1.2 0-.8 0-1.2 0-.8 0-1.2.1l2.1-2.1c.4 0 .8 0 1.2-.1h1.2 1.2z" fill="#005b98"/><path clip-path="url(#av)" d="m8.1 11.4-2.1 2.1c-.4 0-.9.1-1.3.1s-.9.1-1.3.1c-.5 0-.9.1-1.4.2-.5 0-1 .1-1.4.1l2-2.2c.5-.1.9-.1 1.4-.2.5 0 .9-.1 1.4-.1s.9-.1 1.4-.1z" fill="#005893"/></g></g></g></g><g clip-path="url(#b)" enable-background="new"><g clip-path="url(#aw)"><g clip-path="url(#ax)" enable-background="new"><g clip-path="url(#ay)"><path clip-path="url(#az)" d="m15.5 22.9-2.4 1.8z" fill="#9e1d23"/><path clip-path="url(#az)" d="m15.5 22.9-2.4 1.8z" fill="#991c22"/><path clip-path="url(#az)" d="m15.5 22.9-2.4 1.8z" fill="#941b20"/><path clip-path="url(#az)" d="m15.5 22.9-2.4 1.8z" fill="#8f1a1e"/><path clip-path="url(#az)" d="m15.5 22.9-2.4 1.8h-.1l2.4-1.8z" fill="#89181d"/><path clip-path="url(#az)" d="m15.4 22.9-2.4 1.8s-.1.1-.2.1c-.1.1-.2.1-.3.2s-.3.2-.4.3-.3.2-.4.3l2.4-1.8c.1-.1.3-.2.4-.3s.3-.2.4-.3.2-.1.3-.2c.1 0 .2-.1.2-.1" fill="#84161c"/></g></g></g></g><g clip-path="url(#b)" enable-background="new"><g clip-path="url(#aA)"><g clip-path="url(#aB)" enable-background="new"><g clip-path="url(#aC)"><path clip-path="url(#aD)" d="m8.1 11.4-2.1 2.1c-.4 0-.9.1-1.3.1s-.9.1-1.3.1c-.5 0-.9.1-1.4.2-.5 0-1 .1-1.4.1l2-2.2c.5-.1.9-.1 1.4-.2.5 0 .9-.1 1.4-.1s.9-.1 1.4-.1z" fill="#005893"/></g></g></g></g><g clip-path="url(#b)" enable-background="new"><g clip-path="url(#aE)"><g clip-path="url(#aF)" enable-background="new"><g clip-path="url(#aG)"><path clip-path="url(#aH)" d="m2.6 11.9-2 2.2z" fill="#2a7dc0"/><path clip-path="url(#aH)" d="m2.6 11.9-2 2.2z" fill="#277cbf"/><path clip-path="url(#aH)" d="m2.6 11.9-2 2.2z" fill="#217abe"/><path clip-path="url(#aH)" d="m2.6 11.9-2 2.2z" fill="#1a77bc"/><path clip-path="url(#aH)" d="m2.6 11.9-2 2.2 2-2.2c0-.1 0-.1 0 0z" fill="#1774ba"/><path clip-path="url(#aH)" d="m2.6 11.8-2 2.2 2-2.2c0-.1 0-.1 0 0 0-.1 0 0 0 0z" fill="#1171b8"/><path clip-path="url(#aH)" d="m2.6 11.7-2 2.2 2-2.2c-.1-.1-.1-.1 0 0-.1 0-.1 0 0 0" fill="#096eb6"/><path clip-path="url(#aH)" d="m2.5 11.6-2 2.2 2-2.2c0-.2 0-.1 0 0 0-.1 0-.1 0 0 0-.1 0 0 0 0" fill="#016bb2"/><path clip-path="url(#aH)" d="m2.5 11.4-2 2.2 2-2.2c0-.1 0-.1 0 0z" fill="#0068ad"/><path clip-path="url(#aH)" d="m2.5 11.3-2 2.2 2-2.2c0-.1 0-.1 0 0z" fill="#0065a8"/><path clip-path="url(#aH)" d="m2.5 11.1-2 2.2 2-2.2c0-.1 0-.1 0 0z" fill="#0062a4"/><path clip-path="url(#aH)" d="m2.5 11-2 2.2 2-2.2c0-.1 0-.1 0 0z" fill="#005f9e"/><path clip-path="url(#aH)" d="m2.5 10.8-2 2.2 2-2.2c0-.1 0-.1 0 0 0-.1 0 0 0 0z" fill="#005b98"/><path clip-path="url(#aH)" d="m2.6 10.6-2 2.2 2-2.2c0-.1 0-.1 0 0z" fill="#005893"/><path clip-path="url(#aH)" d="m2.6 10.5-2 2.2 2-2.2c0-.2 0-.1 0 0 0-.1 0-.1 0 0 0-.1 0 0 0 0" fill="#00558e"/><path clip-path="url(#aH)" d="m2.7 10.3-2 2.2s0 0 0-.1c0 0 0 0 0-.1 0 0 0 0 0-.1 0 0 0 0 0-.1l2-2.2v.1.1.2c0-.1 0 0 0 0" fill="#025389"/><path clip-path="url(#aH)" d="m2.8 10-2 2.2s0 0 0-.1c0 0 0 0 0-.1 0 0 0 0 .1-.1 0 0 0 0 .1-.1l2-2.2s0 0-.1.1c0 0 0 0-.1.1.1.1 0 .2 0 .2z" fill="#005084"/></g></g></g></g><path clip-path="url(#b)" d="m10.5 0c.1.7.3 1.5.5 2.2s.3 1.5.5 2.2c.1.8.3 1.6.5 2.3.2.8.3 1.5.5 2.3 0 .2.1.4.1.6s.1.4.1.6.1.4.1.6.1.4.1.6c-.8 0-1.7 0-2.5 0-.9 0-1.7.1-2.6.1s-1.7.1-2.6.2-1.8.2-2.6.3-.1-.2-.1-.4c0-.3 0-.6.1-1 .1-.3.3-.7.7-1 .3-.3.9-.5 1.7-.6.8 0 1.4-.1 2-.2.5-.1.9-.2 1.2-.4.3-.1.5-.2.7-.4.1-.1.3-.3.4-.4 0 0-.1-.1-.3-.2-.2-.2-.4-.4-.7-.7s-.5-.6-.8-1c-.2-.4-.4-.9-.5-1.5-.1-.5-.2-1.1-.1-1.6s.2-1 .5-1.4c.2-.4.6-.7 1.1-.9.6-.3 1.2-.3 2-.3" fill="#488ecb"/><g clip-path="url(#b)" enable-background="new"><g clip-path="url(#aI)"><g clip-path="url(#aJ)" enable-background="new"><g clip-path="url(#aK)"><path clip-path="url(#aL)" d="m9.2 14.4-2.2 2c-.1 0-.2 0-.3 0s-.2 0-.4-.1c-.1 0-.3 0-.4-.1-.1 0-.3 0-.4-.1l2.2-2.1c.2 0 .3.1.5.1.1 0 .3 0 .4.1.1 0 .2 0 .4.1 0 .1.1.1.2.1" fill="#a61f23"/><path clip-path="url(#aL)" d="m7.6 14.2-2.2 2.1c-.1 0-.2 0-.3-.1-.1 0-.2 0-.3-.1-.1 0-.2 0-.3-.1-.1 0-.2 0-.3-.1l2.1-2.1c.1 0 .2.1.3.1.2.1.3.1.4.1s.2 0 .3.1c.1 0 .2 0 .3.1" fill="#ac1f25"/><path clip-path="url(#aL)" d="m6.3 13.9-2.1 2.1c-.1 0-.1 0-.2 0s-.1 0-.2 0-.1 0-.2-.1c-.1 0-.1 0-.2-.1l2.1-2.1c.1 0 .1 0 .2.1.1 0 .1 0 .2.1.1 0 .1 0 .2.1.1-.2.1-.1.2-.1" fill="#b32027"/><path clip-path="url(#aL)" d="m5.5 13.7-2.1 2.1h-.1-.1-.1-.1l2.1-2.1h.1.1.1c0-.1 0-.1.1 0" fill="#b72027"/><path clip-path="url(#aL)" d="m4.9 13.5-2.1 2.1h-.1-.1-.1-.1l2.1-2.1h.1.1.1z" fill="#bb2028"/><path clip-path="url(#aL)" d="m4.5 13.3-2.1 2.1h-.1-.1s0 0-.1 0c0 0 0 0-.1 0l2.1-2.1h.1.1z" fill="#c12129"/><path clip-path="url(#aL)" d="m4.2 13.2-2.1 2.1s0 0-.1 0c0 0 0 0-.1 0 0 0 0 0-.1 0 0 0 0 0-.1 0l2.3-2.2h.1.1c-.1.1-.1.1 0 .1z" fill="#c72129"/><path clip-path="url(#aL)" d="m4 13.1-2.1 2.1 1.9-2.2c0 .1.1.1.2.1-.1 0-.1 0 0 0" fill="#cc212a"/><path clip-path="url(#aL)" d="m3.8 13-2.1 2.1 1.9-2.1h.2c-.1 0-.1 0 0 0z" fill="#d1202b"/><path clip-path="url(#aL)" d="m3.6 13-2.1 2.1 2.1-2.1c-.1-.1-.1-.1 0 0-.1-.1 0-.1 0 0 0-.1 0-.1 0 0" fill="#d61f2c"/><path clip-path="url(#aL)" d="m3.5 12.9-2 2.1 2-2.1c-.1-.1-.1-.1 0 0z" fill="#d91f2d"/><path clip-path="url(#aL)" d="m3.4 12.8-2 2.1 2-2.1c-.1 0-.1 0 0 0-.1 0 0 0 0 0z" fill="#e01f2e"/><path clip-path="url(#aL)" d="m3.3 12.7-2 2.1 2-2.1c-.1 0-.1 0 0 0z" fill="#e51e2f"/><path clip-path="url(#aL)" d="m3.2 12.7-2 2.1 2-2.1c-.1-.1-.1-.1 0 0-.1-.1 0-.1 0 0z" fill="#e92230"/><path clip-path="url(#aL)" d="m3.1 12.6-2 2.1 2-2.1c-.1 0-.1 0 0 0z" fill="#ed2132"/><path clip-path="url(#aL)" d="m3 12.6-2 2.1 2-2.1c-.1-.1-.1-.1 0 0 0-.1 0-.1 0 0" fill="#ed2835"/><path clip-path="url(#aL)" d="m2.9 12.4-2 2.1 2-2.1c-.1-.1-.1 0 0 0-.1 0 0 0 0 0z" fill="#ed2937"/><path clip-path="url(#aL)" d="m2.8 12.3-2 2.1z" fill="#ed2835"/><path clip-path="url(#aL)" d="m2.8 12.3-2 2.1 2-2.1c-.1-.1-.1-.1 0 0 0-.1 0-.1 0 0z" fill="#ed2132"/><path clip-path="url(#aL)" d="m2.7 12.2-2 2.1z" fill="#e92230"/><path clip-path="url(#aL)" d="m2.7 12.2-2 2.1 2-2.1c0-.1 0-.1 0 0 0-.1 0 0 0 0z" fill="#e51e2f"/><path clip-path="url(#aL)" d="m2.7 12.1-2 2.2z" fill="#e01f2e"/><path clip-path="url(#aL)" d="m2.7 12.1-2 2.2z" fill="#d91f2d"/><path clip-path="url(#aL)" d="m2.7 12.1-2 2.2 2-2.2c-.1-.1-.1-.1 0 0-.1-.1 0 0 0 0z" fill="#d61f2c"/><path clip-path="url(#aL)" d="m2.6 12-2 2.2z" fill="#d1202b"/><path clip-path="url(#aL)" d="m2.6 12-2 2.2z" fill="#cc212a"/><path clip-path="url(#aL)" d="m2.6 12-2 2.2 2-2.2c0-.1 0 0 0 0z" fill="#c72129"/><path clip-path="url(#aL)" d="m2.6 11.9-2 2.2z" fill="#c12129"/></g></g></g></g><g clip-path="url(#b)" enable-background="new"><g clip-path="url(#aM)"><g clip-path="url(#aN)" enable-background="new"><g clip-path="url(#aO)"><path clip-path="url(#aP)" d="m8.2 23.5-2.2 1.8z" fill="#89181d"/><path clip-path="url(#aP)" d="m8.2 23.5-2.3 1.8z" fill="#8f1a1e"/><path clip-path="url(#aP)" d="m8.2 23.5-2.3 1.8z" fill="#941b20"/><path clip-path="url(#aP)" d="m8.2 23.5-2.3 1.8z" fill="#991c22"/><path clip-path="url(#aP)" d="m8.2 23.5-2.3 1.8z" fill="#9e1d23"/><path clip-path="url(#aP)" d="m8.2 23.5-2.3 1.8z" fill="#a31e23"/><path clip-path="url(#aP)" d="m8.2 23.5-2.3 1.8z" fill="#a61f23"/><path clip-path="url(#aP)" d="m8.2 23.5-2.3 1.8z" fill="#ac1f25"/><path clip-path="url(#aP)" d="m8.2 23.5-2.2 1.8z" fill="#b32027"/><path clip-path="url(#aP)" d="m8.2 23.5-2.2 1.8v-.1-.1s0-.1 0-.2 0-.1 0-.2l2.2-1.9v.2.2.3c0-.1 0-.1 0 0" fill="#ac1f25"/><path clip-path="url(#aP)" d="m8.1 22.9-2.2 1.9c0-.1 0-.1 0-.2s0-.1 0-.2 0-.1 0-.2 0-.2 0-.2l2.2-1.9v.2.2.2z" fill="#a61f23"/><path clip-path="url(#aP)" d="m8.1 22.1-2.2 1.9c0-.1 0-.1 0-.2s0-.2 0-.2c0-.1 0-.2 0-.2 0-.1 0-.2 0-.3l2.2-1.9v.3.3.2c0-.1 0 0 0 .1" fill="#a31e23"/><path clip-path="url(#aP)" d="m8.1 21.1-2.2 1.9c0-.1 0-.2 0-.3s0-.2 0-.3 0-.2 0-.3 0-.2 0-.3l2.3-1.8v.3.3.3c-.1 0-.1.1-.1.2" fill="#9e1d23"/><path clip-path="url(#aP)" d="m8.2 20-2.2 1.9c0-.1 0-.2 0-.3s0-.2 0-.3 0-.2 0-.3 0-.2 0-.3l2.2-1.9v.3.3.3z" fill="#991c22"/><path clip-path="url(#aP)" d="m8.3 18.9-2.2 1.9c0-.1 0-.2.1-.3 0-.1 0-.2.1-.3 0-.1 0-.2.1-.3 0-.1 0-.2.1-.3l2.2-2c0 .1-.1.2-.1.3s0 .2-.1.3c0 .1 0 .2-.1.3 0 .2 0 .3-.1.4" fill="#941b20"/><path clip-path="url(#aP)" d="m8.6 17.7-2.2 2c0-.1.1-.2.1-.3s.1-.2.1-.3.1-.2.1-.3.1-.2.1-.3l2.2-2c0 .1-.1.2-.1.3s-.1.2-.1.3-.1.2-.1.3c-.1.1-.1.2-.1.3" fill="#8f1a1e"/><path clip-path="url(#aP)" d="m9 16.5-2.2 2c0-.1.1-.2.1-.3s.1-.2.1-.3.1-.2.2-.3.1-.2.2-.3l2.2-2c-.1.1-.1.2-.2.3s-.1.2-.2.3c0 .1-.1.2-.1.3s-.1.2-.1.3" fill="#89181d"/><path clip-path="url(#aP)" d="m9.6 15.2-2.2 2 2.2-2c0-.1 0-.1 0 0z" fill="#84161c"/></g></g></g></g><g clip-path="url(#b)" enable-background="new"><g clip-path="url(#aQ)"><g clip-path="url(#aR)" enable-background="new"><g clip-path="url(#aS)"><path clip-path="url(#aT)" d="m7.9 24.7-2.2 1.8h.1s0 0 .1-.1c0 0 0 0 .1-.1 0 0 0 0 0-.1l2.2-1.8v.1s0 0-.1.1c-.1 0-.1 0-.2.1z" fill="#84161c"/><path clip-path="url(#aT)" d="m8.1 24.5-2.2 1.8 2.2-1.8c.1-.1 0-.1 0 0 0-.1 0-.1 0 0" fill="#89181d"/><path clip-path="url(#aT)" d="m8.2 24.3-2.2 1.8z" fill="#8f1a1e"/><path clip-path="url(#aT)" d="m8.2 24.3-2.2 1.8 2.2-1.8c0-.1 0-.1 0 0" fill="#941b20"/><path clip-path="url(#aT)" d="m8.2 24.2-2.2 1.8 2.2-1.8c0-.1 0-.1 0 0 0-.1 0 0 0 0" fill="#991c22"/><path clip-path="url(#aT)" d="m8.2 24.1-2.2 1.8 2.2-1.8c0-.1 0-.1 0 0z" fill="#9e1d23"/><path clip-path="url(#aT)" d="m8.2 24-2.2 1.8 2.2-1.8c0-.1 0-.1 0 0 0-.1 0 0 0 0z" fill="#a31e23"/><path clip-path="url(#aT)" d="m8.2 23.9-2.2 1.8 2.2-1.8c0-.1 0-.1 0 0z" fill="#a61f23"/><path clip-path="url(#aT)" d="m8.2 23.8-2.2 1.8 2.2-1.8c0-.1 0-.1 0 0z" fill="#ac1f25"/><path clip-path="url(#aT)" d="m8.2 23.7-2.2 1.8 2.2-1.8c0-.1 0-.1 0 0z" fill="#b32027"/><path clip-path="url(#aT)" d="m8.2 23.6-2.2 1.8 2.2-1.8c0-.1 0-.1 0 0z" fill="#b72027"/></g></g></g></g><g clip-path="url(#b)" enable-background="new"><g clip-path="url(#aU)"><g clip-path="url(#aV)" enable-background="new"><g clip-path="url(#aW)"><path clip-path="url(#aX)" d="m10.7 29.2-2.3 1.7 2.3-1.7c-.1 0-.1 0 0 0-.1 0 0 0 0 0" fill="#84161c"/><path clip-path="url(#aX)" d="m10.6 29.3-2.3 1.7 2.3-1.7c-.1 0-.1 0 0 0" fill="#89181d"/><path clip-path="url(#aX)" d="m10.5 29.3-2.4 1.7 2.4-1.7c-.1 0-.1 0 0 0-.1 0 0 0 0 0" fill="#8f1a1e"/><path clip-path="url(#aX)" d="m10.4 29.3-2.3 1.7 2.3-1.7c-.1 0-.1 0 0 0z" fill="#941b20"/><path clip-path="url(#aX)" d="m10.3 29.3-2.3 1.7z" fill="#991c22"/><path clip-path="url(#aX)" d="m10.3 29.3-2.4 1.7 2.4-1.7c-.1 0 0 0 0 0z" fill="#9e1d23"/><path clip-path="url(#aX)" d="m10.2 29.3-2.3 1.7z" fill="#a31e23"/><path clip-path="url(#aX)" d="m10.2 29.3-2.3 1.7z" fill="#a61f23"/><path clip-path="url(#aX)" d="m10.2 29.3-2.4 1.7 2.4-1.7c-.1 0-.1 0 0 0-.1 0 0 0 0 0" fill="#ac1f25"/><path clip-path="url(#aX)" d="m10.1 29.3-2.3 1.7c-.1 0-.1 0-.1 0h-.1-.1-.1l2.3-1.7h.1.1.1z" fill="#b32027"/><path clip-path="url(#aX)" d="m9.6 29.2-2.3 1.7 2.3-1.7c-.1 0 0 0 0 0z" fill="#b72027"/><path clip-path="url(#aX)" d="m9.5 29.2-2.3 1.7 2.3-1.7c-.1 0-.1 0 0 0z" fill="#bb2028"/><path clip-path="url(#aX)" d="m9.4 29.2-2.3 1.7 2.3-1.7c0-.1 0-.1 0 0 0-.1 0 0 0 0z" fill="#c12129"/><path clip-path="url(#aX)" d="m9.4 29.1-2.3 1.7 2.3-1.7c-.1 0-.1 0 0 0-.1 0 0 0 0 0z" fill="#c72129"/><path clip-path="url(#aX)" d="m9.3 29.1-2.3 1.7z" fill="#cc212a"/><path clip-path="url(#aX)" d="m9.2 29.1-2.3 1.7 2.2-1.8s.1 0 .1.1c0-.1 0 0 0 0z" fill="#d1202b"/><path clip-path="url(#aX)" d="m9.1 29-2.3 1.7s-.1 0-.1-.1c-.1 0-.1-.1-.2-.1s-.2-.1-.3-.1-.2-.1-.3-.2l2.3-1.7c.1.1.2.1.3.2s.2.1.3.1.1.1.2.1c0 .1.1.1.1.1" fill="#d61f2c"/><path clip-path="url(#aX)" d="m8.2 28.5-2.3 1.7s0 0-.1 0c0 0 0 0-.1 0 0 0 0 0-.1 0 0 0 0 0-.1 0l2.3-1.7h.1.1.2c-.1 0 0 0 0 0" fill="#d1202b"/></g></g></g></g><g clip-path="url(#b)" enable-background="new"><g clip-path="url(#aY)"><g clip-path="url(#aZ)" enable-background="new"><g clip-path="url(#a0)"><path clip-path="url(#a1)" d="m7.9 28.4-2.3 1.7z" fill="#d1202b"/><path clip-path="url(#a1)" d="m7.9 28.4-2.3 1.7z" fill="#cc212a"/><path clip-path="url(#a1)" d="m7.9 28.4-2.3 1.7z" fill="#c72129"/><path clip-path="url(#a1)" d="m7.9 28.4-2.3 1.7z" fill="#c12129"/><path clip-path="url(#a1)" d="m7.9 28.4-2.3 1.7z" fill="#bb2028"/><path clip-path="url(#a1)" d="m7.9 28.4-2.3 1.7z" fill="#b72027"/><path clip-path="url(#a1)" d="m7.9 28.4-2.3 1.7s0 0-.1 0h-.1-.1-.1l2.3-1.7h.2.1z" fill="#b32027"/><path clip-path="url(#a1)" d="m7.5 28.3-2.3 1.7c-.1 0-.2 0-.3 0s-.2 0-.4-.1c-.1 0-.2 0-.4-.1-.1 0-.2 0-.4-.1l2.3-1.6c.1 0 .2 0 .4.1.1 0 .3 0 .4.1.1 0 .2 0 .4.1.1-.1.2-.1.3-.1" fill="#ac1f25"/><path clip-path="url(#a1)" d="m6 28.1-2.2 1.7h-.1-.1-.1-.1l2.2-1.8h.1.1.1c.1.1.1.1.1.1" fill="#a61f23"/><path clip-path="url(#a1)" d="m5.6 28-2.2 1.7 2-1.7h.2c-.1 0-.1 0 0 0" fill="#a31e23"/></g></g></g></g><g clip-path="url(#b)" enable-background="new"><g clip-path="url(#a2)"><g clip-path="url(#a3)" enable-background="new"><g clip-path="url(#a4)"><path clip-path="url(#a5)" d="m5.4 28-2.2 1.7z" fill="#9e1d23"/><path clip-path="url(#a5)" d="m5.4 28-2.2 1.7z" fill="#a31e23"/><path clip-path="url(#a5)" d="m5.4 28-2.2 1.7z" fill="#a61f23"/><path clip-path="url(#a5)" d="m5.4 28-2.2 1.7h-.1z" fill="#ac1f25"/><path clip-path="url(#a5)" d="m5.4 28-2.3 1.7 2.2-1.7z" fill="#b32027"/><path clip-path="url(#a5)" d="m5.3 28-2.2 1.7z" fill="#b72027"/><path clip-path="url(#a5)" d="m5.3 28-2.2 1.7z" fill="#bb2028"/><path clip-path="url(#a5)" d="m5.3 28-2.2 1.7z" fill="#c12129"/><path clip-path="url(#a5)" d="m5.3 28-2.2 1.7z" fill="#c72129"/><path clip-path="url(#a5)" d="m5.3 28-2.2 1.7z" fill="#cc212a"/><path clip-path="url(#a5)" d="m5.3 28-2.2 1.7z" fill="#d1202b"/><path clip-path="url(#a5)" d="m5.3 28-2.2 1.7h-.1z" fill="#d61f2c"/><path clip-path="url(#a5)" d="m5.3 28-2.3 1.7 2.2-1.8v.1z" fill="#d91f2d"/><path clip-path="url(#a5)" d="m5.2 27.9-2.2 1.8z" fill="#e01f2e"/><path clip-path="url(#a5)" d="m5.2 27.9-2.2 1.8z" fill="#e51e2f"/><path clip-path="url(#a5)" d="m5.2 27.9-2.2 1.8z" fill="#e92230"/><path clip-path="url(#a5)" d="m5.2 27.9-2.2 1.8v-.1h-.1z" fill="#ed2132"/><path clip-path="url(#a5)" d="m5.2 27.9-2.2 1.7 2.2-1.7c-.1 0-.1 0 0 0z" fill="#ed2835"/><path clip-path="url(#a5)" d="m5.1 27.9-2.2 1.7 2.2-1.7c0-.1 0-.1 0 0 0-.1 0 0 0 0" fill="#ed2937"/><path clip-path="url(#a5)" d="m5.1 27.8-2.2 1.7 2.2-1.7c-.1-.1-.1 0 0 0-.1 0 0 0 0 0z" fill="#ed2835"/><path clip-path="url(#a5)" d="m5 27.7-2.2 1.8z" fill="#ed2132"/><path clip-path="url(#a5)" d="m5 27.7-2.2 1.7z" fill="#e92230"/><path clip-path="url(#a5)" d="m5 27.7-2.2 1.8z" fill="#e51e2f"/><path clip-path="url(#a5)" d="m5 27.7-2.2 1.8 2.2-1.8c0-.1 0-.1 0 0" fill="#e01f2e"/><path clip-path="url(#a5)" d="m5 27.6-2.2 1.8z" fill="#d91f2d"/><path clip-path="url(#a5)" d="m5 27.6-2.2 1.8v-.1h-.1l2.2-1.7z" fill="#d61f2c"/><path clip-path="url(#a5)" d="m4.9 27.6-2.2 1.8 2.2-1.8c0-.1 0 0 0 0z" fill="#d1202b"/><path clip-path="url(#a5)" d="m4.9 27.5-2.2 1.8z" fill="#cc212a"/><path clip-path="url(#a5)" d="m4.9 27.5-2.2 1.8v-.1z" fill="#c72129"/><path clip-path="url(#a5)" d="m4.9 27.5-2.2 1.8z" fill="#c12129"/><path clip-path="url(#a5)" d="m4.9 27.5-2.2 1.8 2.2-1.8c0-.1 0-.1 0 0z" fill="#bb2028"/><path clip-path="url(#a5)" d="m4.9 27.4-2.2 1.8z" fill="#b72027"/><path clip-path="url(#a5)" d="m4.9 27.4-2.2 1.8z" fill="#b32027"/><path clip-path="url(#a5)" d="m4.9 27.4-2.2 1.8 2.2-1.8c0-.1 0-.1 0 0z" fill="#ac1f25"/><path clip-path="url(#a5)" d="m4.9 27.3-2.2 1.8z" fill="#a61f23"/><path clip-path="url(#a5)" d="m4.9 27.3-2.2 1.7 2.2-1.7c0-.1 0-.1 0 0z" fill="#a31e23"/><path clip-path="url(#a5)" d="m4.9 27.2-2.2 1.8z" fill="#9e1d23"/><path clip-path="url(#a5)" d="m4.9 27.1-2.2 1.8z" fill="#991c22"/><path clip-path="url(#a5)" d="m4.9 27.1-2.2 1.8 2.2-1.8c0-.1 0-.1 0 0z" fill="#941b20"/><path clip-path="url(#a5)" d="m4.9 27-2.2 1.8 2.3-1.9s0 0-.1.1c.1-.1 0-.1 0 0 0-.1 0-.1 0 0z" fill="#8f1a1e"/><path clip-path="url(#a5)" d="m5 26.9-2.2 1.8 2.2-2v.2c0-.1 0-.1 0 0 0-.1 0 0 0 0" fill="#89181d"/><path clip-path="url(#a5)" d="m5 26.7-2.2 1.8c0-.1.1-.1.1-.2s.1-.1.1-.2c.2-.1.2-.1.3-.2s.1-.1.2-.2l2.2-1.8c-.1.1-.2.1-.2.2-.1.1-.1.1-.2.2s-.1.1-.2.2c0 .1 0 .1-.1.2" fill="#84161c"/></g></g></g></g><path clip-path="url(#b)" d="m13 11.3c.1.6.3 1.2.4 1.9.1.6.3 1.3.4 1.9s.3 1.3.4 1.9.3 1.3.4 1.9c.1.3.1.7.2 1s.1.7.2 1 .1.7.2 1 .1.7.2 1c0 0-.1 0-.3.1s-.4.2-.6.3-.5.3-.7.4c-.2.2-.4.3-.5.5s-.3.4-.4.5c-.1.2-.3.4-.5.6s-.3.5-.5.9c-.2.3-.4.7-.6 1.2v.1s0 .1-.1.2c0 .1-.1.2-.1.3s-.1.2-.1.3c-.1.1-.1.2-.2.3s-.1.2-.2.3-.2.2-.3.2c-.1.1-.2.1-.3.1-.3-.1-.4-.1-.5-.1s-.2-.1-.3-.1-.2 0-.4-.1-.5-.3-.9-.5c0 0-.1 0-.3-.1-.2 0-.4-.1-.7-.1s-.6-.1-.8-.1c-.3-.1-.5-.1-.7-.1-.1 0-.2-.1-.4-.2-.1-.2-.2-.4-.1-.7s.2-.6.6-1 1-.8 2-1.2h.1c.1 0 .2-.1.3-.2s.2-.2.2-.4c.1-.2.1-.4 0-.7 0 0 0-.3-.1-.8 0-.5 0-1.2 0-2.1.1-.8.2-1.8.4-2.7.2-1 .6-1.9 1.1-2.9 0 0 0 0 .1-.1 0-.1.1-.1.1-.2s0-.1-.1-.2-.3-.1-.5-.2c-.4-.1-.9-.1-1.6-.3-.5-.1-1.3-.2-2-.4s-1.4-.4-1.9-.7-.9-.6-1-1c.9-.1 1.8-.2 2.6-.3.9-.1 1.7-.2 2.6-.2.9-.1 1.7-.1 2.6-.1.9-.1 1.7-.1 2.6-.1" fill="#ed2e3a"/></g><path d="m-24.1-29h76.3v90.8h-76.3z" fill="none"/></svg>