<svg id="Layer_1" data-name="Layer 1" xmlns="http://www.w3.org/2000/svg" viewBox="0 0 3320.23 1091.25"><defs><style>.cls-1{fill:#ed1c24;}.cls-2{fill:#0071bc;}.cls-3{fill:#fdb22f;}.cls-4{fill:#009245;}.cls-5{fill:#e73724;}.cls-6{fill:#4d4d4d;}</style></defs><title>LOGO cfdp 2018Full longsvg</title><path class="cls-1" d="M96.2,648.17s-56.8-61,33.38-122.65,99.11-101.41,105.07-127.88c0,0-67.91.21-111.07-61.19-43.83-62.37-55.68-155.66,42.7-223L390.55,443.72Z"/><path class="cls-1" d="M165.34,114.52s71.3-43.87,130.09-35.81c69,9.45,135.82,100,106.29,205.84,0,0,73.44,23.22,131.09-22.34s95.13-94.15,148.3-103,43.74,57.32,43.74,57.32L391.36,444.31Z"/><path class="cls-1" d="M389.74,443.14,724,215.25s1,62.8-44.9,111.06-62.49,64.95-91.31,79.32c0,0-19.6,4.91,1.62,18,56.2,34.65,98.15,97.79,114.2,138.07,0,0,22.35,8.72,52.35,4.38,27.66-4,51.48.74,79.2,20.82,0,0,170.64-94.95,67.76,43.15,0,0-37.5,49.78-66.72,120.64,0,0-11.89,26.51-36.87,12.23,0,0-105.64-82.3-176.11-23,0,0-14,11.92-17,19.67Z"/><path class="cls-1" d="M390.46,443.59l215.7,316.2s-35.85,51.34-41.78,75.07c-7.1,28.38-18.1,58.28-22.75,120,0,0,7.27,59.31-26,64.82-33.69,5.6-18.56,3.54-78.08-.53,0,0-61.72,8.94-85,14.55-11.92,2.87-65.32-16.16,36.12-100.47,0,0,27.88-13.34,6.49-44.6,0,0-70.32-117.21-53.08-263.3,0,0,9.38-24.78-22.38-11.1C275.89,633.12,122.76,687,95.48,647.11Z"/><path class="cls-2" d="M96.2,648.17s-56.8-61,33.38-122.65,99.11-101.41,105.07-127.88c0,0-67.91.21-111.07-61.19-43.83-62.37-55.68-155.66,42.7-223L390.55,443.72Z"/><path class="cls-3" d="M165.34,114.52s71.3-43.87,130.09-35.81c69,9.45,135.82,100,106.29,205.84,0,0,73.44,23.22,131.09-22.34s95.13-94.15,148.3-103,43.74,57.32,43.74,57.32L391.36,444.31Z"/><path class="cls-4" d="M389.74,443.14,724,215.25s1,62.8-44.9,111.06-62.49,64.95-91.31,79.32c0,0-19.6,4.91,1.62,18,56.2,34.65,98.15,97.79,114.2,138.07,0,0,22.35,8.72,52.35,4.38,27.66-4,51.48.74,79.2,20.82,0,0,170.64-94.95,67.76,43.15,0,0-37.5,49.78-66.72,120.64,0,0-11.89,26.51-36.87,12.23,0,0-105.64-82.3-176.11-23,0,0-14,11.92-17,19.67Z"/><path class="cls-5" d="M390.46,443.59l215.7,316.2s-35.85,51.34-41.78,75.07c-7.1,28.38-18.1,58.28-22.75,120,0,0,7.27,59.31-26,64.82-33.69,5.6-18.56,3.54-78.08-.53,0,0-61.72,8.94-85,14.55-11.92,2.87-65.32-16.16,36.12-100.47,0,0,27.88-13.34,6.49-44.6,0,0-70.32-117.21-53.08-263.3,0,0,9.38-24.78-22.38-11.1C275.89,633.12,122.76,687,95.48,647.11Z"/><path class="cls-6" d="M1129.88,953.58l1.69,12.84q-14,4.05-34.65,4.06-25.51,0-35.83-13.52t-10.31-46.82q0-33.28,10.31-46.81t35.83-13.52a138.7,138.7,0,0,1,32.28,3.38l-1.69,13q-13.53-1.35-30.59-1.35-16.05,0-22.22,9.8t-6.17,35.49q0,25.7,6.17,35.49t22.22,9.81Q1118.39,955.44,1129.88,953.58Z"/><path class="cls-6" d="M1200.52,935.16h-37q1.17,12.84,6.67,17.23t18,4.4a269.81,269.81,0,0,0,28.9-2l1.52,10.82q-11.16,4.89-32.62,4.9-21.63,0-30.67-9.81t-9-33.63q0-24,8.87-33.63t29.32-9.63q18.93,0,27.55,6.93t8.62,20.79Q1220.63,935.16,1200.52,935.16Zm-37.18-12.68h32.78q8.12,0,8.11-11-.17-7.61-4.31-10.74t-14.61-3.12q-12.18,0-16.9,5.15T1163.34,922.48Z"/><path class="cls-6" d="M1255.1,886l1,12.67q19.44-14.86,36.51-14.87,11,0,16.65,5.83t5.66,17v61.86h-16.4V911.33q0-7.77-2.28-10.73t-8.19-3a31.3,31.3,0,0,0-12.85,2.87,190.62,190.62,0,0,0-17.57,9.46v58.48h-16.4V886Z"/><path class="cls-6" d="M1385.4,955.1l1.86,12.67a72.54,72.54,0,0,1-19.44,2.2q-10.47,0-16-6t-5.49-17.15V898.65h-15V886.82l15-.67V861.81h16.22V886h25.52v12.67h-25.52v46c0,3.83.82,6.54,2.45,8.11s4.42,2.37,8.37,2.37Z"/><path class="cls-6" d="M1455.7,935.16h-37q1.18,12.84,6.67,17.23t18,4.4a269.47,269.47,0,0,0,28.9-2l1.52,10.82q-11.15,4.89-32.61,4.9-21.64,0-30.68-9.81t-9-33.63q0-24,8.87-33.63t29.32-9.63q18.93,0,27.55,6.93t8.62,20.79Q1475.81,935.16,1455.7,935.16Zm-37.18-12.68h32.79q8.1,0,8.11-11-.18-7.61-4.31-10.74t-14.62-3.12q-12.16,0-16.9,5.15T1418.52,922.48Z"/><path class="cls-6" d="M1549.32,883.78l-1.86,15.38h-5.07q-9.63,0-29.57,9.46v59.83h-16.39V886h12.67l1.69,12.5q18.42-14.7,34.65-14.7Z"/><path class="cls-6" d="M1649.88,860.63h-16.73q-7.61,0-10.73,2.87t-3.13,10V886h25.52v12.67h-25.52v69.8H1602.9v-69.8H1588V886.82l14.88-.84V871.61q0-12,5.74-18.17t18.76-6.16q15.88,0,23.83,1.18Z"/><path class="cls-6" d="M1665.26,893.75q9-10,30.42-10t30.42,10q9,10,9,33.63t-9,33.46q-9,9.81-30.42,9.81t-30.42-9.81q-9-9.8-9-33.46T1665.26,893.75Zm48,10.14q-4.73-6.25-17.57-6.25t-17.58,6.25q-4.74,6.25-4.73,23.49,0,17.07,4.73,23.32t17.58,6.26q12.84,0,17.57-6.26t4.73-23.32Q1718,910.15,1713.25,903.89Z"/><path class="cls-6" d="M1809.41,883.78l-1.86,15.38h-5.07q-9.63,0-29.57,9.46v59.83h-16.39V886h12.67l1.69,12.5q18.42-14.7,34.65-14.7Z"/><path class="cls-6" d="M1860.45,968.45V851.84q22.14-1.53,42.08-1.52,25.68,0,35.91,13t10.23,46.81q0,33.81-10.23,46.82t-35.91,13Q1882.58,970,1860.45,968.45Zm16.9-103.26v89.57q10.82.51,25.18.51,15.88,0,22-9.81t6.17-35.32q0-25.51-6.17-35.32t-22-9.8q-5.07,0-13.44.09C1883.52,865.16,1879.6,865.19,1877.35,865.19Z"/><path class="cls-6" d="M1976.21,850.82H1984q4.73,0,4.73,4.74V865q0,4.9-4.73,4.9h-7.78q-4.73,0-4.73-4.9v-9.46Q1971.48,850.82,1976.21,850.82Zm12,117.63H1972V886h16.22Z"/><path class="cls-6" d="M2092,894.76,2080.32,896q2.86,5.74,2.87,14.36,0,14-8,20.2t-27.8,6.17a89.26,89.26,0,0,1-16.39-1.36,8.27,8.27,0,0,0-1.44,7.78c.85,2.82,3.07,4.51,6.68,5.07l30.42,4.73q11.65,1.7,16.64,7.27t5,16.22q0,14.7-8.62,20.28t-31.27,5.58q-22.81,0-31.6-5.49T2008,976.9q0-6.93,3-11t10.14-8.11q-5.93-4.89-5.33-13.1t6.51-12.42q-10.81-5.58-10.82-21.8,0-14.54,8-20.62t28-6.08q12.33,0,19.6,2.2h25.69Zm-33.8,70.14-26.54-3.55q-7.77,6.42-7.77,14.2c0,5.4,1.55,8.9,4.65,10.47s9.66,2.37,19.69,2.37q14.52,0,19.26-2.45t4.73-10.39q0-5.74-2.53-7.52T2058.18,964.9Zm-10.82-40.56q11.49,0,16.06-3.13t4.56-10.9q0-7.93-4.48-11t-16.14-3q-11.83,0-16.39,3t-4.57,11q0,7.61,4.65,10.82T2047.36,924.34Z"/><path class="cls-6" d="M2113.94,850.82h7.78q4.72,0,4.73,4.74V865q0,4.9-4.73,4.9h-7.78q-4.72,0-4.73-4.9v-9.46Q2109.21,850.82,2113.94,850.82Zm12,117.63h-16.22V886h16.22Z"/><path class="cls-6" d="M2197.6,955.1l1.86,12.67A72.54,72.54,0,0,1,2180,970q-10.47,0-16-6t-5.49-17.15V898.65h-15V886.82l15-.67V861.81h16.22V886h25.52v12.67h-25.52v46c0,3.83.82,6.54,2.45,8.11s4.42,2.37,8.37,2.37Z"/><path class="cls-6" d="M2218.21,899.67l-1.52-12a236.06,236.06,0,0,1,40.06-3.89q15,0,22.14,6.08T2286,911v57.46h-12.84l-1.86-13q-14.19,14.53-33,14.53-11.51,0-18.34-6.08t-6.85-17.24V938q0-9.79,6.09-15.21t17.24-5.41h33.12V911q-.16-7.61-3.55-10.48t-12.84-2.87Q2243.9,897.64,2218.21,899.67Zm11.5,40.56v4.39c0,4.06.95,7,2.87,8.79s5,2.7,9.13,2.7q14.7,0,27.88-11.49V929.75h-30.08c-3.61.11-6.14,1-7.61,2.79S2229.71,936.85,2229.71,940.23Z"/><path class="cls-6" d="M2327.22,850.15v94.47q-.16,5.24,2.53,7.86t8.12,2.62h7.6l1.86,12.67q-4.9,2.21-15.72,2.2-9.63,0-15.21-5.66t-5.57-16V850.15Z"/><path class="cls-6" d="M2396.67,968.45V851.84q14.37-1.53,40.57-1.52,21.8,0,30,7.77t8.2,29.07q0,21.47-7.86,29.24t-28.31,7.77a222.12,222.12,0,0,1-25.69-1.52v45.8Zm16.9-58.81h23.33q12.33-.17,16.9-4.74t4.56-17.74q0-13.18-4.56-17.75t-16.9-4.56q-16.91,0-23.33.17Z"/><path class="cls-6" d="M2600,935.16h-36.16q1,12.84,6.5,17.23t18,4.4a262.3,262.3,0,0,0,28.9-2l1.52,10.82q-11,4.89-32.45,4.9-14.37,0-22.9-4.14a26.66,26.66,0,0,1-12.76-13.27,52.73,52.73,0,0,1-14.7,11.66,41.3,41.3,0,0,1-20.62,5.24q-11.49,0-18.33-6.08t-6.85-17.24V938q0-9.79,6.09-15.21t17.23-5.41h33.13V911q0-7.61-3.47-10.48t-12.93-2.87q-9.29,0-35,2l-1.52-12a235.85,235.85,0,0,1,40.05-3.89q16.91,0,23.66,7.6,8.79-7.61,27.38-7.6,18.77,0,27.38,6.93t8.62,20.79Q2621.1,935.16,2600,935.16Zm-93.29,5.07v4.39q0,6.09,2.88,8.79t9.12,2.7a39.82,39.82,0,0,0,14.37-3.12,47,47,0,0,0,14.7-9.38,92.72,92.72,0,0,1-1.35-13.86H2516.5q-5.41.16-7.61,2.79C2507.42,934.28,2506.69,936.85,2506.69,940.23Zm56.79-17.75h31.94q9,0,9-11,0-7.44-4.23-10.65t-14.7-3.21q-12.16,0-16.9,5.15T2563.48,922.48Z"/><path class="cls-6" d="M2700.54,968.45l-1.36-11.32q-15.88,13.35-32.44,13.35-15.21,0-22.06-10.9t-6.84-32.71q0-23.65,7.6-33.37t23.83-9.72a55.62,55.62,0,0,1,28.39,7.44q-.67-7.28-.67-16.23V850.15h16.39v118.3ZM2697,946V902q-15.39-4-23.66-4-10.48,0-14.54,5.83t-4.05,22.9q0,17.07,4,23.32t13.6,6.25a26.32,26.32,0,0,0,11.07-2.2A104.06,104.06,0,0,0,2697,946Z"/><path class="cls-6" d="M2739.41,899.67l-1.53-12a236.06,236.06,0,0,1,40.06-3.89q15,0,22.14,6.08t7.09,21.13v57.46h-12.84l-1.86-13Q2778.28,970,2759.52,970q-11.51,0-18.34-6.08t-6.84-17.24V938q0-9.79,6.08-15.21t17.24-5.41h33.12V911q-.17-7.61-3.55-10.48t-12.84-2.87Q2765.09,897.64,2739.41,899.67Zm11.49,40.56v4.39c0,4.06.95,7,2.87,8.79s5,2.7,9.13,2.7q14.7,0,27.88-11.49V929.75H2760.7c-3.61.11-6.14,1-7.61,2.79S2750.9,936.85,2750.9,940.23Z"/><path class="cls-6" d="M2909.59,894.76,2897.93,896q2.87,5.74,2.87,14.36,0,14-8,20.2t-27.8,6.17a89.26,89.26,0,0,1-16.39-1.36,8.29,8.29,0,0,0-1.44,7.78c.85,2.82,3.07,4.51,6.68,5.07l30.42,4.73q11.66,1.7,16.64,7.27t5,16.22q0,14.7-8.62,20.28t-31.26,5.58q-22.81,0-31.61-5.49t-8.79-19.86q0-6.93,3-11t10.14-8.11q-5.93-4.89-5.33-13.1t6.51-12.42q-10.82-5.58-10.82-21.8,0-14.54,8-20.62t28-6.08q12.33,0,19.6,2.2h25.69Zm-33.8,70.14-26.54-3.55q-7.77,6.42-7.77,14.2c0,5.4,1.55,8.9,4.65,10.47s9.66,2.37,19.69,2.37q14.54,0,19.26-2.45t4.73-10.39q0-5.74-2.53-7.52T2875.79,964.9ZM2865,924.34q11.49,0,16.06-3.13t4.56-10.9q0-7.93-4.48-11t-16.14-3q-11.83,0-16.39,3t-4.56,11q0,7.61,4.64,10.82T2865,924.34Z"/><path class="cls-6" d="M2931.05,893.75q9-10,30.42-10t30.42,10q9,10,9,33.63t-9,33.46q-9,9.81-30.42,9.81t-30.42-9.81q-9-9.8-9-33.46T2931.05,893.75Zm48,10.14q-4.74-6.25-17.58-6.25t-17.58,6.25q-4.72,6.25-4.73,23.49,0,17.07,4.73,23.32t17.58,6.26q12.84,0,17.58-6.26t4.73-23.32Q2983.78,910.15,2979.05,903.89Z"/><path class="cls-6" d="M3100.05,894.76,3088.39,896q2.87,5.74,2.87,14.36,0,14-8,20.2t-27.8,6.17a89.26,89.26,0,0,1-16.39-1.36,8.29,8.29,0,0,0-1.44,7.78c.85,2.82,3.07,4.51,6.68,5.07l30.42,4.73q11.65,1.7,16.64,7.27t5,16.22q0,14.7-8.62,20.28t-31.26,5.58q-22.82,0-31.61-5.49t-8.79-19.86q0-6.93,3-11t10.14-8.11q-5.92-4.89-5.33-13.1t6.51-12.42q-10.82-5.58-10.82-21.8,0-14.54,8-20.62t28-6.08q12.33,0,19.6,2.2h25.69Zm-33.8,70.14-26.54-3.55q-7.77,6.42-7.77,14.2c0,5.4,1.55,8.9,4.65,10.47s9.66,2.37,19.69,2.37q14.52,0,19.26-2.45t4.73-10.39q0-5.74-2.53-7.52T3066.25,964.9Zm-10.82-40.56q11.49,0,16.06-3.13t4.56-10.9q0-7.93-4.48-11t-16.14-3q-11.83,0-16.39,3t-4.56,11q0,7.61,4.64,10.82T3055.43,924.34Z"/><path class="cls-6" d="M3122,850.82h7.77q4.73,0,4.73,4.74V865q0,4.9-4.73,4.9H3122q-4.74,0-4.74-4.9v-9.46Q3117.28,850.82,3122,850.82Zm12,117.63h-16.22V886H3134Z"/><path class="cls-6" d="M3185.9,927.89h-10.31a113.21,113.21,0,0,1,.84,12.84v27.72H3160V850.15h16.56V902a95.32,95.32,0,0,1-1,14h10.14L3210.57,886h18.93l-24.84,29.91a30.92,30.92,0,0,1-6.09,6.08v.34a27.94,27.94,0,0,1,6.09,7.1l27.54,39h-18.92Z"/><path class="cls-6" d="M1460.19,664.29,1470.57,753q-78.33,24.53-200,24.53-146.27,0-205.69-75.48t-59.44-261.35q0-185.87,59.44-261.36t205.69-75.48q108.48,0,186.81,20.76L1446,214.23q-82.08-6.58-175.49-6.6-81.16,0-110.87,49.53T1130,440.68q0,134,29.72,183.51t110.87,49.53Q1390.36,673.72,1460.19,664.29Z"/><path class="cls-6" d="M1923.46,177.44h-90.58q-38.7,0-54.25,14.62t-15.57,50.48v61.33H1898v83H1763.06V766.19H1648V386.9h-82.09V308.58l82.09-4.71V227.44q0-67.93,34-103.78T1792.31,87.8q90.57,0,140.58,8.49Z"/><path class="cls-6" d="M2035.72,766.19v-651q129.25-8.49,243.43-8.49,148.11,0,207.1,72.65t59,261.36q0,188.71-59,261.35t-207.1,72.65Q2165,774.68,2035.72,766.19Zm117.94-560.45v468q73.59,1.9,125.49,1.89,81.13,0,111.33-50.48t30.2-184.45q0-134-30.67-184.93T2279.15,204.8q-25.47,0-66.52.47T2153.66,205.74Z"/><path class="cls-6" d="M2716,766.19v-651q84-8.49,235.87-8.49,128.31,0,176,43.88t47.65,165.58q0,121.71-45.29,165.59T2967,525.59a1118.78,1118.78,0,0,1-133-7.55V766.19Zm117.93-336.84H2949q62.28-.93,84.92-24.06t22.64-89.16q0-66-22.64-89.16T2949,203.85H2833.92Z"/></svg>