<svg height="27" viewBox="0 0 84 27" width="84" xmlns="http://www.w3.org/2000/svg" xmlns:xlink="http://www.w3.org/1999/xlink"><mask id="a" fill="#fff"><path d="m0 0h83.1905217v26.4764348h-83.1905217z" fill="#fff" fill-rule="evenodd"/></mask><path d="m80.8004348 24.3698478v-2.4170869h2.2104782v-1.4838261h-2.2104782v-2.0555218h2.2738695v-1.4873478h-4.1016521v8.9311305h4.2178695v-1.4873479zm2.2175217-21.1257391.0187826-2.15647827h-7.9344782v2.15647827h2.6518695v10.7941304h2.6495218v-10.7941304zm-14.5870435 10.7941304h6.116087v-2.1553043h-3.4653913v-3.50413045h3.2059565v-2.15647826h-3.2059565v-2.97821739h3.2986956v-2.15647827h-5.9493913zm1.4685653 8.64-2.0825218-5.7521739h-2.1975652v8.9311305h1.6481739v-5.765087l2.0696087 5.765087h2.2116522v-8.9311305h-1.6493478zm-2.5802609-13.34386953v-3.56165218c0-2.7363913-1.4462609-4.68508696-4.6533913-4.68508696h-3.8915218v12.95060867h3.9103044c2.9653043 0 4.6346087-1.9674782 4.6346087-4.70386953zm-2.6506957.52591304c0 1.36760869-.8710434 2.02265219-2.0026956 2.02265219h-1.2408261v-8.6388261h1.2596087c1.1668696 0 1.983913.729 1.983913 2.02382608zm-4.2002608 7.06578259h-1.8911739v5.9188696c0 2.1717391 1.2396521 3.1026522 3.0169565 3.1026522 1.7632174 0 3.0028695-.9309131 3.0028695-3.1155653v-5.9059565h-1.8911739v6.1513044c0 1.0858695-.3580434 1.3969565-1.1246087 1.3969565-.7548261 0-1.1128695-.311087-1.1128695-1.3969565zm-2.2503913-2.8878261-2.5016087-11.00191301c.2594348-.27939131.4073478-.65504348.4073478-1.10465218 0-1.27486956-1.2971739-1.93226087-2.5579565-1.93226087-1.2596087 0-2.5579565.65739131-2.5579565 1.93226087 0 .46721739.1854782.86047826.4636956 1.161l-2.2715217 10.56052179-2.8995653-5.72517396c1.2044348-.31695652 2.187-1.72447826 2.187-3.24234783 0-1.87356521-1.1680434-3.59804348-3.6332608-3.59804348h-4.2073044v12.95060867h2.6506957v-5.65943475h.4636956l2.6506957 5.65943475h5.4856956l.4636957-2.8866521h2.5943478l.5376522 2.8866521zm-12.4552174-9.4077391c0 1.01191304-.2594348 1.66695652-1.7233044 1.66695652h-.741913v-3.12965217h.9086087c1.1116956 0 1.5566087.46956522 1.5566087 1.46269565zm6.9507391 4.38573913.7783044-5.06191304h.2042608l.8710435 5.06191304zm2.1494348-7.08456522c0 .56113044-.7407391.84286957-1.2971739.84286957-.5376522 0-1.2783913-.28173913-1.2783913-.84286957 0-.56347826.7407391-.84404348 1.2783913-.84404348.5564348 0 1.2971739.28056522 1.2971739.84404348zm-14.6997391 17.47604349c0-1.2913044-.8053044-2.4816522-2.5051305-2.4816522h-2.9007391v8.9311305h1.8277826v-3.9044348h.3193043l1.8277827 3.9044348h2.0566956l-2.1341739-4.213174c.8311304-.2206956 1.5084783-1.1891739 1.5084783-2.2363043zm-1.8782609-.0387391c0 .6973043-.1796087 1.1516087-1.1891739 1.1516087h-.5106522v-2.1588261h.6256957c.7665652 0 1.0741304.3216521 1.0741304 1.0072174zm-4.6815652-5.3307392h6.1172608v-2.1553043h-3.4665652v-3.50413045h3.2071305v-2.15647826h-3.2071305v-2.97821739h3.2998696v-2.15647827h-5.9505652zm-.8522609 3.4066957.5364783-1.3065652h-.8182174l-.3826957.9297391c-.3967826-.1549565-.8311304-.2324348-1.3042174-.2324348-1.7632174 0-3.0662608 1.1116957-3.0662608 3.2446957v2.6366087c0 1.1621739.3826956 2.0156087 1.0095652 2.5462174l-.4989131 1.213826h.8182174l.3322174-.8017826c.4085218.1819566.8945218.2723479 1.418087.2723479 1.7643913 0 3.0674348-1.0612174 3.0674348-3.2446957v-2.6366087c0-1.1997391-.4214348-2.079-1.1116957-2.6213478zm-1.2525652 1.0318695-1.8911739 4.6275653v-.027-3.3726522c0-1.0459565.4214348-1.3946087 1.188-1.3946087.2817391 0 .5247391.0516522.7031739.1666956zm.4730869 4.6005653c0 1.0858695-.4214347 1.3969565-1.1891739 1.3969565-.3439565 0-.6256956-.0657391-.8170435-.2453478l1.9933044-4.86c.012913.1033043.012913.2066087.012913.3357391zm-2.3161304-9.0391305h2.6518696v-12.95060867h-2.6518696zm-.9262174-4.70386953v-3.56165218c0-2.7363913-1.4462609-4.68508696-4.6522174-4.68508696h-3.8926956v12.95060867h3.9114782c2.9653044 0 4.6334348-1.9674782 4.6334348-4.70386953zm-2.6506956.52591304c0 1.36760869-.8710435 2.02265219-2.0015218 2.02265219h-1.242v-8.6388261h1.2607826c1.1668696 0 1.9827392.729 1.9827392 2.02382608zm-13.123174 4.17795649h6.1172609v-2.1553043h-3.4665652v-3.50413045h3.2071304v-2.15647826h-3.2071304v-2.97821739h3.2998696v-2.15647827h-5.9505653zm2.2245653 2.8878261h-2.9019131v8.9311305h1.8277826v-3.9044348h.3193044l1.8277826 3.9044348h2.0578696l-2.134174-4.213174c.8299566-.2206956 1.5073044-1.1891739 1.5073044-2.2363043 0-1.2913044-.8053044-2.4816522-2.5039565-2.4816522zm-.4472609 1.4356957c.7665652 0 1.0729565.3216521 1.0729565 1.0072174 0 .6973043-.1784348 1.1516087-1.188 1.1516087h-.5118261v-2.1588261zm-5.44695653-4.3235218h2.37247823v-12.95060867h-4.1885217l-1.63173913 9.22108697-1.63056522-9.22108697h-4.20730435v12.95060867h2.37247826v-10.28817388l2.03791304 10.28817388h2.66947827l2.2057826-10.17782606zm-4.55947826 2.8878261h-4.66395652v8.9311305h1.8266087v-3.9044348h2.26213043v-1.4838261h-2.26213043v-2.0555218h2.83734782zm.38386957 3.024v2.8819565c0 2.1846522 1.30304348 3.1155653 3.07917391 3.1155653 1.76321739 0 3.06743481-.9309131 3.06743481-3.1155653v-2.8936956c0-2.1189131-1.30421742-3.1026522-3.08034785-3.1026522-1.76321739 0-3.06626087.9837391-3.06626087 3.1143913zm1.89117391-.2453478c0-1.0459565.42143478-1.3946087 1.188-1.3946087.75365218 0 1.17626087.3486522 1.17626087 1.3946087v3.3726522c0 1.0858695-.42260869 1.3969565-1.18917391 1.3969565-.75365218 0-1.17508696-.311087-1.17508696-1.3969565zm17.46900001-2.7786522h-2.646v8.9311305h2.7997826c1.8911739 0 2.4534783-1.3453044 2.4534783-2.6119566 0-1.1093478-.4989131-1.7186087-1.4955653-2.0672608.9203479-.284087 1.2009131-1.1492609 1.2009131-1.8853044 0-1.2936522-.7536522-2.3666087-2.3126087-2.3666087zm-.8686957 4.9750435h.3826957c.7794783 0 1.3042174.3498261 1.3042174 1.227913 0 .8158696-.1666957 1.2936522-1.2396522 1.2936522h-.4472609zm.2418261-3.5393478c.8182174 0 1.1633479.3216521 1.1633479 1.0588695 0 .7501305-.2559131 1.0999566-1.0987827 1.0999566h-.3063913v-2.1588261zm19.4634783-1.4356957h-2.1999131v8.9311305h1.6493479v-5.765087l2.0707826 5.765087h2.2104782v-8.9311305h-1.6481739v5.7521739zm6.2874782 6.3191739v.5693479c0 1.8606521 1.3417827 2.133 2.363087 2.133.8569565 0 1.4697391-.2723479 1.9944783-.7642174.3322174.3885652.6902608.7642174 1.4568261.7642174.3826956 0 .7407391-.0903913.7407391-.0903913v-1.4216087c-.4343478-.0129131-.6902609 0-.9332609-.3627392l-.2171739-.3216521c.0516522-.1033044.1150435-.2077827.1796087-.3122609l.8945217-1.6528696-1.4192608-.7876956-.6386087 1.3429565-.8686957-1.215c.8945218-.4636957 1.8277826-1.0600435 1.8277826-2.3114348 0-1.3969565-1.227913-1.9792174-2.2363043-1.9792174-1.3417826 0-2.5051305.6092609-2.5051305 2.1212609 0 .3216522.0516522.8123478.3956087 1.3288695l.3709566.5564348c-.7536522.5294348-1.405174 1.2279131-1.405174 2.403zm2.836174-3.1918695-.1396957-.1936957c-.1291304-.1666956-.4096956-.6843913-.4096956-.9684782 0-.3873914.2042608-.7102174.8053043-.7102174.4601739 0 .7407391.295826.7407391.7360434 0 .4273044-.3956087.8146957-.9966521 1.1363479zm-1.0999566 3.0885652c-.0117391-.4636957.1420435-.9027391.4355218-1.1891739l1.2783913 1.9017391c-.2958261.2958261-.6268696.5153478-.9332609.5153478-.3956087 0-.7536522-.2453478-.7665652-.579913zm20.9836957-3.0615652v2.6366087c0 2.1693913 1.1128696 3.2306087 2.889 3.2306087 1.8148696 0 2.8760869-.918 2.8760869-2.8185653v-1.7444347h-2.8760869v1.3957826h.9837391v.7243043c0 .7243044-.243.9696522-.9966522.9696522-.714913 0-.9837391-.311087-.9837391-1.3969565v-3.3726522c0-1.0459565.2805652-1.3946087.9966522-1.3946087.6902609 0 .9837391.1796087.9837391 1.1891739v.5294348h1.8923478v-.2077826c0-2.1189131-1.1128695-2.9852609-2.889-2.9852609-1.7632173 0-2.8760869 1.1116957-2.8760869 3.2446957z" fill-rule="evenodd" mask="url(#a)"/></svg>